<svg viewBox="0 0 680 389" fill="none" xmlns="http://www.w3.org/2000/svg">
    <g clip-path="url(#clip0_349_2011)">
        <path d="M66.5081 293.651C66.3603 293.651 66.0556 293.72 65.6288 293.843C58.9914 295.757 51.8979 294.947 46.5055 291.135L44.2708 292.249C42.4107 293.176 40.3985 293.757 38.3321 293.962C32.1241 294.582 26.0702 291.771 22.519 286.621L16.1508 277.387C14.5691 275.093 13.2591 272.627 12.2325 270.035C8.00546 259.359 1.51774 243.317 0.585974 242.389C-0.732467 241.074 0.585974 223.986 0.585974 222.672C0.585974 221.82 1.74114 216.879 2.64686 213.171C3.0226 211.633 3.71276 210.191 4.6635 208.927C6.29048 206.765 8.60766 205.228 11.2275 204.576L18.9385 202.653C21.6357 201.982 24.4046 201.641 27.1838 201.641H34.8655C31.4244 198.782 32.4624 193.238 36.7024 191.829L37.5725 191.541C38.3954 191.267 39.2664 191.17 40.129 191.256L45.7811 191.82C48.5104 192.092 51.2574 192.02 53.9585 191.61C55.3277 191.402 56.685 191.107 58.0225 190.726L61.2341 189.811L68.6949 187.952C70.722 187.446 72.8414 187.446 74.8685 187.952L77.0883 188.506C80.3143 189.309 82.8363 191.833 83.6478 195.069L86.6465 194.696C91.5531 194.084 96.5266 195.046 100.856 197.444C104.272 199.336 107.164 202.054 109.269 205.352L110.344 207.036C113.574 212.096 115.29 217.98 115.29 223.99V238.445L110.268 274.748C110.101 275.954 109.788 277.135 109.335 278.264C106.671 284.902 99.681 288.698 92.6897 287.305L91.5585 287.079C87.6031 290.146 79.4288 296.28 78.3741 296.28C77.0556 296.28 67.8266 293.651 66.5081 293.651Z" fill="#F26225" />
        <path d="M531.617 15.0147L535.887 292.017H542.292L544.427 287.08L543.36 30.9218V19.4029L535.887 11.7236L531.617 15.0147Z" fill="#EE693F" />
        <path d="M126.12 298.411C193.128 295.294 327.473 288.947 328.791 288.507L179.397 291.258L151.386 293.459L133.81 291.808L127.768 288.507V27.131L130.514 19.9776C134.176 18.3268 141.499 14.9152 141.499 14.475C141.499 14.0347 144.795 12.4574 146.442 11.7236H137.105L127.219 13.3744L123.374 18.8771L120.628 274.75V292.358L126.12 298.411Z" fill="#F26225" />
        <path d="M525.885 302.675C465.913 298.412 345.31 289.992 342.669 290.419L348.721 286.688L522.034 290.419L539.09 294.682L525.885 302.675Z" fill="#F26226" />
        <path d="M544.427 157.732V136.417H545.534C551.069 137.165 562.361 138.66 563.246 138.66C564.353 138.66 565.461 142.587 565.461 144.269V151L574.317 154.366L572.103 157.732H544.427Z" fill="#088E73" />
        <path d="M72.0961 205.335L58.9116 206.642M72.0961 205.335L78.2693 206.209C80.2745 206.493 82.1762 207.274 83.8006 208.481C85.6289 209.84 87.0358 211.685 87.8591 213.806L90.8064 221.397C92.3858 225.465 93.2931 229.761 93.493 234.118L95.828 285.006M72.0961 205.335L80.0067 198.805L87.9173 193.581M58.9116 206.642L70.7776 291.537M58.9116 206.642H49.6825M58.9116 206.642V201.528C58.9116 196.239 58.4706 190.96 57.5932 185.745L56.488 179.176C56.3461 178.332 56.2747 177.479 56.2747 176.623C56.2747 170.303 60.1398 164.622 66.0276 162.289L69.459 160.929M95.828 285.006C91.8727 288.054 83.6984 294.148 82.6436 294.148C81.3251 294.148 72.0961 291.537 70.7776 291.537M95.828 285.006L96.9592 285.231C103.951 286.615 110.941 282.843 113.604 276.247C114.057 275.125 114.371 273.952 114.538 272.754L119.56 236.682V222.319C119.56 216.346 117.844 210.5 114.613 205.472L113.538 203.798C111.434 200.522 108.542 197.821 105.125 195.941C100.796 193.558 95.8226 192.602 90.916 193.21L87.9173 193.581M87.9173 193.581C87.1058 190.365 84.5838 187.858 81.3579 187.059L79.138 186.509C77.1109 186.007 74.9915 186.007 72.9644 186.509L65.5037 188.356L62.292 189.265C58.316 190.392 54.1633 190.76 50.0506 190.352L44.3985 189.792C43.5359 189.707 42.665 189.803 41.842 190.075L40.972 190.362C36.7319 191.762 35.694 197.271 39.135 200.111M70.7776 291.537C70.6298 291.537 70.3251 291.605 69.8983 291.728C61.5784 294.111 52.5421 292.241 47.0374 285.577C45.3035 283.477 44.0197 281.045 43.2657 278.431L36.4981 254.966L30.3746 229.489C30.0632 228.193 29.9059 226.866 29.9059 225.534C29.9059 218.814 33.8819 212.728 40.044 210.015L41.7719 209.254L49.6825 206.642M49.6825 206.642L39.135 200.111M39.135 200.111H31.4534C28.6741 200.111 25.9053 200.45 23.208 201.117L15.4971 203.027C12.8772 203.676 10.56 205.203 8.93303 207.351C7.98229 208.607 7.29213 210.04 6.91639 211.568C6.01067 215.252 4.8555 220.162 4.8555 221.008C4.8555 222.314 3.53707 239.293 4.8555 240.6C5.78727 241.522 12.275 257.463 16.5021 268.071C17.5286 270.646 18.8386 273.097 20.4203 275.376L26.7885 284.551C30.3398 289.668 36.3936 292.461 42.6016 291.846C44.6681 291.642 46.6803 291.065 48.5403 290.144L51.0008 288.924" stroke="#282828" stroke-width="4" />
        <path d="M337.331 197.165H366.554H492.27H520.942V289.886H379.788L337.331 287.126V197.165Z" fill="#02C69E" />
        <path d="M397.037 260.958L426.689 264.306C426.928 264.332 427.087 264.067 426.951 263.869C423.989 259.608 420.444 255.776 416.419 252.487L412.873 249.59C408.704 246.182 404.224 243.174 399.53 240.525C396.176 238.632 393.132 236.87 392.768 236.52C392.398 236.165 388.78 235.449 385.096 234.721L384.81 234.664C380.849 233.881 376.694 235.465 374.402 238.772L373.058 242.527C372.472 244.164 372.4 245.938 372.852 247.615C373.474 249.927 375.041 251.874 377.173 252.985L386.014 257.592C389.447 259.382 393.185 260.523 397.037 260.958Z" fill="#EE693F" />
        <path d="M295.216 63.0208L310.359 74.5654C310.481 74.6586 310.655 74.5621 310.643 74.4073C310.398 71.0562 309.694 67.7565 308.552 64.6031L307.546 61.825C306.364 58.5588 304.883 55.4137 303.169 52.4009C301.945 50.2478 300.847 48.2689 300.761 47.9546C300.674 47.6344 298.925 46.0543 297.144 44.445L297.006 44.32C295.092 42.5898 292.307 42.1213 289.987 43.2238L288.04 44.8867C287.192 45.6109 286.581 46.5804 286.286 47.6663C285.882 49.1629 286.111 50.7635 286.919 52.0803L290.27 57.5421C291.572 59.6634 293.249 61.5211 295.216 63.0208Z" fill="#EE693F" />
        <path d="M354.849 160.671L354.554 159.085C354.308 157.765 354.381 156.406 354.762 155.12C355.441 152.836 357.048 150.951 359.183 149.933L371.337 144.139C374.169 142.79 377.151 141.793 380.224 141.178C388.885 139.443 400.68 137.117 401.415 137.117C418.38 137.117 435.226 134.137 452.098 135.917L463.478 137.117L483.8 142.107L497.693 147.632C500.412 148.712 502.621 150.798 503.871 153.464C505.712 157.386 505.212 162.043 501.885 164.791C499.709 166.589 497.774 167.921 497.531 168.166C496.982 168.72 468.421 183.69 466.774 183.69C466.057 183.69 459.03 184.455 450.971 185.361C438.109 186.807 425.129 186.896 412.256 185.558L404.059 184.707C397.553 184.03 391.131 182.694 384.891 180.718L370.948 176.303C367.856 175.323 364.988 173.734 362.509 171.628L359.897 169.406C357.266 167.17 355.482 164.084 354.849 160.671Z" fill="#F26226" />
        <path d="M432.21 155.372L431.272 160.898C431.269 160.917 431.287 160.934 431.305 160.928L436.933 159.2C440.671 158.053 443.737 155.358 445.358 151.798C445.981 150.426 446.375 148.962 446.522 147.463L447.284 139.681C447.288 139.633 447.238 139.599 447.195 139.621L441.57 142.539C440.06 143.32 438.671 144.315 437.445 145.492C434.685 148.137 432.849 151.601 432.21 155.372Z" fill="#00CAA1" />
        <path d="M87.406 161.765L86.4682 167.292C86.4648 167.311 86.4834 167.327 86.5024 167.322L92.1303 165.593C95.8674 164.446 98.9341 161.751 100.555 158.191C101.178 156.82 101.572 155.356 101.718 153.857L102.48 146.075C102.485 146.026 102.435 145.993 102.392 146.015L96.7659 148.932C95.257 149.714 93.868 150.708 92.6409 151.885C89.8813 154.531 88.0459 157.995 87.406 161.765Z" fill="#00CAA1" />
        <path d="M76.3316 141.548L83.1603 144.938C83.1846 144.95 83.2134 144.932 83.2135 144.906L83.2647 137.075C83.2989 131.877 81.0386 126.912 77.056 123.438C75.5228 122.102 73.7726 121.02 71.8762 120.237L62.0305 116.173C61.9699 116.148 61.905 116.198 61.9163 116.262L63.4176 124.562C63.8202 126.788 64.5489 128.947 65.5814 130.973C67.9034 135.527 71.6725 139.236 76.3316 141.548Z" fill="#00CAA1" />
        <path d="M415.685 161.674L419.514 160.814C419.527 160.81 419.533 160.796 419.524 160.785L416.864 157.781C415.098 155.787 412.515 154.606 409.77 154.537C408.713 154.51 407.659 154.65 406.649 154.949L401.411 156.503C401.378 156.513 401.37 156.553 401.396 156.573L404.824 159.267C405.743 159.989 406.767 160.583 407.863 161.03C410.329 162.035 413.073 162.262 415.685 161.674Z" fill="#00CAA1" />
        <path d="M438.125 177.957L441.928 177.981C441.941 177.981 441.951 177.967 441.944 177.956L440.171 174.473C438.995 172.161 436.856 170.449 434.295 169.771C433.309 169.511 432.286 169.41 431.265 169.474L425.972 169.804C425.94 169.806 425.922 169.842 425.942 169.868L428.509 173.223C429.198 174.122 430.015 174.921 430.938 175.596C433.011 177.113 435.531 177.94 438.125 177.957Z" fill="#00CAA1" />
        <path d="M336.766 24.6303V286.386M336.766 24.6303L365.887 17.4965L425.777 9.81391L458.744 8.16765L518.961 9.77853C519.83 9.80178 520.688 10.0346 521.451 10.4505M336.766 24.6303C329.118 19.9017 320.797 16.3567 312.086 14.1158L288.964 8.16765C277.06 5.6068 250.613 2.13135 248.854 2.13135C247.096 2.13135 199.038 2.31427 174.129 3.22886C171.702 3.22886 169.733 5.19434 169.733 7.61889V284.613C169.733 287.692 172.271 290.169 175.354 290.098L336.766 286.386M336.766 286.386L520.283 290.105M521.451 10.4505L526.327 13.1064M521.451 10.4505L520.283 290.105M520.283 290.105L526.327 290.227M526.327 290.227V13.1064M526.327 290.227L534.843 291.599M526.327 13.1064H531.547M534.843 291.599L536.991 291.945C540.331 292.483 543.36 289.907 543.36 286.528V25.5448C543.36 23.1702 542.588 20.8596 541.162 18.9598L539.898 17.277C537.927 14.6515 534.832 13.1064 531.547 13.1064M534.843 291.599L531.547 13.1064" stroke="#282828" stroke-width="4" />
        <path d="M167.931 12.7886H149.766M149.766 12.7886L147.564 292.747M149.766 12.7886L132.061 18.6852C129.813 19.4338 128.297 21.5356 128.297 23.9031V286.048C128.297 288.904 130.484 291.284 133.331 291.528L147.564 292.747M149.766 12.7886C148.359 13.2571 139.606 13.1332 132.865 12.9398C129.986 12.8573 127.224 14.0976 125.401 16.3251C124.069 17.9515 123.336 19.9851 123.323 22.0866L121.695 290.894C121.692 291.394 121.758 291.891 121.889 292.374L122.236 293.645C122.889 296.037 125.059 297.697 127.54 297.697C139.815 297.697 158.657 297.697 160.225 297.697C161.986 297.697 278.762 293.297 336.929 291.097L517.165 301.536C523.537 301.906 529.909 300.837 535.81 298.409C536.07 298.302 536.305 298.145 536.504 297.947L543.359 291.097M147.564 292.747L178.941 291.097" stroke="#282828" stroke-width="4" />
        <path d="M356.161 14.4956L367.335 10.932C370.966 9.77337 374.694 12.4306 374.694 16.179V110.3C374.694 110.737 374.117 110.908 373.87 110.544L364.938 97.3968C364.763 97.1387 364.378 97.134 364.196 97.3877L354.686 110.651C354.435 110.999 353.876 110.832 353.868 110.404L352.277 19.8377C352.234 17.413 353.81 15.2452 356.161 14.4956Z" fill="#EE693F" stroke="#282828" stroke-width="4" />
        <path d="M429.007 155.371L428.07 160.898C428.066 160.918 428.085 160.934 428.103 160.928L433.731 159.2C437.469 158.052 440.535 155.358 442.156 151.797C442.779 150.427 443.173 148.963 443.32 147.464L444.082 139.681C444.086 139.633 444.036 139.599 443.993 139.621L438.367 142.538C436.858 143.321 435.469 144.315 434.243 145.491C431.483 148.137 429.647 151.602 429.007 155.371Z" stroke="#282828" stroke-width="4" />
        <path d="M85.2712 158.569L84.3334 164.096C84.3301 164.115 84.3486 164.131 84.3676 164.126L89.9956 162.397C93.7326 161.251 96.7994 158.555 98.4197 154.995C99.0436 153.624 99.4369 152.16 99.5836 150.661L100.345 142.879C100.35 142.831 100.3 142.797 100.257 142.819L94.6311 145.736C93.1223 146.518 91.7332 147.513 90.5061 148.689C87.7466 151.335 85.9112 154.799 85.2712 158.569Z" stroke="#282828" stroke-width="4" />
        <path d="M77.7091 140.083L85.2389 143.873C85.2656 143.886 85.2977 143.867 85.298 143.839L85.3988 135.169C85.4658 129.412 82.9952 123.903 78.6123 120.036C76.9248 118.548 74.9962 117.341 72.9043 116.464L62.0432 111.912C61.9763 111.883 61.9042 111.939 61.9164 112.009L63.5292 121.208C63.9617 123.674 64.755 126.069 65.8849 128.316C68.4261 133.372 72.5719 137.499 77.7091 140.083Z" stroke="#282828" stroke-width="4" />
        <path d="M416.034 163.453L420.581 162.031C420.597 162.026 420.601 162.006 420.59 161.995L417.5 158.926C415.194 156.636 412.033 155.435 408.798 155.619C407.608 155.687 406.435 155.942 405.322 156.373L399.277 158.718C399.241 158.733 399.235 158.783 399.267 158.806L403.336 161.57C404.505 162.366 405.781 162.989 407.126 163.421C410.022 164.351 413.132 164.362 416.034 163.453Z" stroke="#282828" stroke-width="4" />
        <path d="M439.357 178.511L444.058 179.045C444.073 179.047 444.085 179.031 444.08 179.016L442.483 174.923C441.292 171.871 438.891 169.474 435.874 168.33C434.764 167.909 433.596 167.667 432.413 167.613L425.984 167.322C425.945 167.32 425.92 167.364 425.941 167.398L428.548 171.607C429.297 172.817 430.212 173.912 431.264 174.858C433.531 176.894 436.355 178.17 439.357 178.511Z" stroke="#282828" stroke-width="4" />
        <path d="M371.283 236.633L369.941 240.389C369.356 242.026 369.284 243.801 369.735 245.478C370.357 247.79 371.921 249.738 374.049 250.849L382.877 255.458C386.304 257.248 390.037 258.389 393.882 258.825L423.487 262.173C423.726 262.2 423.885 261.934 423.749 261.737C420.791 257.474 417.252 253.642 413.233 250.352L409.693 247.453C405.531 244.045 401.057 241.036 396.372 238.387C393.023 236.493 389.983 234.731 389.62 234.38C389.241 234.015 385.449 233.271 381.675 232.523C377.72 231.74 373.572 233.325 371.283 236.633ZM371.283 236.633L344.804 219.545M371.283 236.633L356.021 235.718" stroke="#282828" stroke-width="4" />
        <path d="M287.07 43.3152L285.163 45.1248C284.332 45.913 283.764 46.9321 283.533 48.0468C283.215 49.5831 283.562 51.1806 284.491 52.4525L288.343 57.7275C289.839 59.7764 291.706 61.5338 293.851 62.9104L310.357 73.5075C310.491 73.5931 310.665 73.4839 310.641 73.3286C310.158 69.9679 309.201 66.6902 307.801 63.5901L306.568 60.859C305.117 57.6481 303.365 54.5797 301.38 51.6606C299.962 49.5743 298.688 47.6551 298.577 47.3441C298.462 47.0192 296.44 45.4778 294.431 43.9384C292.325 42.3257 289.403 42.0447 287.07 43.3152ZM287.07 43.3152L276.483 25.5786M287.07 43.3152L278.32 38.3272" stroke="#282828" stroke-width="4" />
        <path d="M544.464 183.184L629.529 184.679M629.529 184.679L638.367 184.835M629.529 184.679C627.374 180.128 623.844 176.363 619.434 173.908L607.434 167.228C601.227 163.227 594.336 160.392 587.103 158.864L585.759 158.58C581.808 157.746 577.78 157.324 573.74 157.324M629.529 184.679C630.263 190.993 630.174 197.373 629.265 203.663L619.938 268.232C619.736 269.633 618.539 270.682 617.116 270.702L543.359 271.767M573.74 157.324H545.569M573.74 157.324V156.613C573.74 154.161 571.972 152.062 569.547 151.635C566.71 151.137 564.859 148.388 565.471 145.584L565.66 144.717C566.426 141.207 563.894 137.833 560.297 137.571L544.464 136.417M629.529 196.939L629.203 204.092" stroke="#282828" stroke-width="4" />
        <path d="M439.937 117.233L439.707 116.37C438.381 111.409 440.224 106.116 444.29 103.211C445.192 102.566 446.008 101.783 446.7 100.899C449.952 96.7503 450.332 90.847 447.597 86.3084L446.244 84.0658C445.848 83.4097 445.408 82.7842 444.926 82.1944L442.088 78.7175C439.197 75.177 438.094 70.4057 439.119 65.8741L439.15 65.7363C439.666 63.4521 440.722 61.3398 442.22 59.5926C444.429 57.0162 445.65 53.6769 445.65 50.2158V44.7622" stroke="#282828" stroke-width="4" />
        <path d="M425.812 108.707L425.65 108.116C424.575 104.21 426.056 100.033 429.317 97.7687C430.032 97.2724 430.679 96.6688 431.231 95.9851C433.839 92.7519 434.138 88.1181 431.938 84.5744L430.867 82.8477C430.553 82.3417 430.204 81.8599 429.822 81.4062L427.522 78.668C425.216 75.9251 424.349 72.1429 425.171 68.6102C425.588 66.8217 426.441 65.1438 427.641 63.7847C429.413 61.776 430.395 59.1552 430.395 56.4363V52.2222" stroke="#282828" stroke-width="4" />
        <path d="M604.04 184.634L578.401 134.881C577.519 133.168 577.289 131.192 577.756 129.322L577.894 128.772C578.413 126.688 579.885 124.975 581.862 124.149C584.096 123.218 586.656 123.55 588.578 125.023L592.301 127.874C594.101 129.253 595.564 131.025 596.578 133.056L601.794 143.504C603.289 146.499 604.553 149.604 605.574 152.793L613.605 177.872L624.858 211.121L633.245 243.239C634.03 246.243 635.042 249.184 636.272 252.034L640.721 262.336C642.487 266.427 645.395 269.918 649.096 272.389C650.933 273.616 652.937 274.572 655.046 275.227L665.303 278.416C667.214 279.01 669.029 279.875 670.694 280.987L675.789 284.389C678.419 286.145 680 289.104 680 292.273C680 295.545 678.826 298.707 676.692 301.182L673.937 304.377C670.911 307.885 666.972 310.479 662.559 311.867L659.201 312.925C652.961 314.889 646.27 314.889 640.03 312.925L639.624 312.796C633.325 310.814 627.83 306.848 623.954 301.487L621.076 297.506C619.146 294.837 618.106 291.625 618.106 288.328V283.256L619.708 271.798C621.26 260.693 621.457 249.44 620.294 238.286C618.843 224.39 615.297 210.794 609.777 197.964L604.04 184.634Z" fill="#FAB361" />
        <path d="M202.826 132.153C208.985 132.153 277.982 132.153 311.712 132.153" stroke="#282828" stroke-width="4" />
        <path d="M202.826 78.8657C206.872 78.8657 252.194 78.8657 274.349 78.8657" stroke="#282828" stroke-width="4" />
        <path d="M202.826 62.8794C205.966 62.8794 241.142 62.8794 258.336 62.8794" stroke="#282828" stroke-width="4" />
        <path d="M202.826 190.77C208.985 190.77 277.982 190.77 311.712 190.77" stroke="#282828" stroke-width="4" />
        <path d="M202.826 146.008C208.985 146.008 277.982 146.008 311.712 146.008" stroke="#282828" stroke-width="4" />
        <path d="M202.826 205.69C208.985 205.69 277.982 205.69 311.712 205.69" stroke="#282828" stroke-width="4" />
        <path d="M202.826 159.863C208.985 159.863 277.982 159.863 311.712 159.863" stroke="#282828" stroke-width="4" />
        <path d="M202.826 220.611C208.985 220.611 277.982 220.611 311.712 220.611" stroke="#282828" stroke-width="4" />
        <path d="M455.824 163.89L458.066 160.574C459 160.942 460.868 161.79 460.868 162.232C460.868 162.674 461.989 163.522 462.549 163.89C463.858 163.705 466.585 163.337 467.033 163.337C467.593 163.337 469.835 160.574 470.396 160.021C470.956 159.469 470.956 156.706 471.517 156.153C471.965 155.711 473.198 155.601 473.758 155.601L478.242 161.679C477.681 163.153 476.448 166.211 476 166.653C475.552 167.095 473.571 168.679 472.637 169.416L462.549 170.521L457.506 167.758L455.824 163.89Z" fill="white" />
        <path d="M447.284 245.322L450.694 242.458C451.516 243.165 453.118 244.699 452.966 245.179C452.815 245.658 453.66 246.947 454.101 247.531C455.491 247.761 458.383 248.257 458.837 248.404C459.405 248.588 462.627 246.326 463.383 245.91C464.142 245.495 465.09 242.494 465.848 242.079C466.455 241.747 467.742 242.032 468.311 242.216L470.769 250.288C469.695 251.704 467.396 254.619 466.789 254.951C466.183 255.283 463.632 256.353 462.431 256.846L451.825 254.731L447.661 250.073L447.284 245.322Z" fill="white" />
        <path d="M471.837 225.947L477.107 221.448C478.375 222.559 480.853 224.969 480.619 225.724C480.384 226.478 481.69 228.503 482.374 229.42C484.52 229.781 488.988 230.562 489.691 230.793C490.569 231.082 495.547 227.525 496.719 226.872C497.889 226.219 499.356 221.505 500.527 220.852C501.464 220.329 503.455 220.777 504.332 221.066L508.132 233.752C506.472 235.978 502.918 240.558 501.981 241.08C501.044 241.603 497.101 243.284 495.247 244.057L478.855 240.734L472.418 233.415L471.837 225.947Z" fill="white" />
        <path d="M367.507 150.888L370.541 149.205C371.1 149.869 372.173 151.286 371.994 151.631C371.816 151.976 372.323 153.09 372.599 153.604C373.663 153.989 375.876 154.803 376.216 154.984C376.64 155.21 379.451 153.959 380.098 153.754C380.745 153.549 381.858 151.392 382.505 151.187C383.023 151.023 384 151.434 384.424 151.661L385.369 158.218C384.351 159.142 382.187 161.031 381.669 161.195C381.151 161.359 379.014 161.796 378.01 161.994L369.927 158.781L367.222 154.586L367.507 150.888Z" fill="white" />
        <path d="M469.034 161.794L465.013 163.932C463.139 164.929 461.565 161.865 460.775 159.894L460.472 159.14L460.439 159.058C459.574 156.899 460.385 154.43 462.364 153.209L462.635 153.041C464.043 152.171 465.828 152.191 467.215 153.095C467.725 153.426 468.159 153.863 468.487 154.375L470.254 157.138C470.693 157.825 470.861 158.653 470.722 159.457C470.552 160.455 469.927 161.317 469.034 161.794Z" fill="#D9D9D9" />
        <path d="M460.401 159.069L460.368 158.987C459.512 156.852 460.315 154.409 462.27 153.2L462.538 153.035C463.93 152.174 465.695 152.194 467.066 153.088C467.57 153.415 467.998 153.848 468.322 154.355L470.069 157.088C470.504 157.768 470.669 158.587 470.532 159.383C470.364 160.37 469.747 161.223 468.864 161.695C467.28 162.538 465.35 163.565 464.889 163.81C463.036 164.797 461.481 161.765 460.699 159.815L460.401 159.069ZM460.401 159.069C459.162 159.729 458.154 160.775 457.548 162.043L457.384 162.387C457.032 163.123 456.863 163.935 456.895 164.75C456.938 165.886 457.363 166.973 458.101 167.835L458.825 168.681C460.133 170.209 461.954 171.203 463.943 171.479L464.129 171.504C465.471 171.69 466.839 171.56 468.122 171.124L470.367 170.361C472.827 169.525 475.079 168.165 476.651 166.094C477.483 164.997 478.159 164.017 478.207 163.849C478.38 163.247 477.865 160.281 477.424 158.664C477.1 157.479 475.436 156.055 475.134 155.808C473.674 154.612 471.308 154.99 469.57 155.725L469.48 155.763" stroke="#282828" stroke-width="4" />
        <path d="M379.128 154.468L374.891 153.597C372.966 153.201 373.65 150.295 374.278 148.538L374.525 147.847C375.226 145.883 377.328 144.679 379.504 144.992L379.845 145.042C381.359 145.26 382.607 146.275 383.058 147.653C383.228 148.172 383.275 148.719 383.199 149.258L382.802 152.044C382.701 152.765 382.311 153.422 381.714 153.883C380.992 154.441 380.039 154.656 379.128 154.468Z" fill="#D9D9D9" />
        <path d="M375.074 147.831C375.748 145.878 377.767 144.68 379.858 144.992L380.186 145.042C381.641 145.258 382.84 146.268 383.274 147.639C383.437 148.154 383.483 148.699 383.409 149.235L383.028 152.006C382.93 152.723 382.556 153.376 381.982 153.835C381.289 154.389 380.373 154.603 379.497 154.416C377.882 154.073 375.896 153.649 375.425 153.55C373.576 153.156 374.233 150.266 374.836 148.519L375.074 147.831ZM375.074 147.831L375.032 147.823C373.791 147.558 372.497 147.682 371.334 148.177L370.981 148.326C370.312 148.61 369.724 149.048 369.27 149.605C368.626 150.389 368.28 151.366 368.289 152.37L368.298 153.346C368.314 155.098 368.993 156.783 370.203 158.078L370.369 158.256C371.19 159.134 372.208 159.816 373.343 160.251L375.412 161.041C377.626 161.887 379.999 162.265 382.324 161.783C383.557 161.528 384.611 161.261 384.744 161.177C385.22 160.875 386.609 158.606 387.253 157.278C387.725 156.304 387.399 154.406 387.333 154.071C387.047 152.61 385.561 151.563 384.123 151.066L383.393 150.812" stroke="#282828" stroke-width="4" />
        <path d="M377.801 208.043L361.884 185.441L497.457 189.851L490.321 199.774L476.051 212.453C471.476 215.393 462.219 221.273 461.78 221.273C461.341 221.273 460.133 224.947 459.584 226.785L451.9 230.644L440.922 233.4L413.478 230.644L403.05 226.785L401.952 221.273L377.801 208.043Z" fill="#F5F5F5" />
        <path d="M505.397 160.225L503.127 171.589C501.72 178.635 499.057 185.369 495.268 191.471C490.71 198.809 484.62 205.076 477.415 209.837L459.204 221.875M505.397 160.225C507.007 155.715 505.292 150.69 501.261 148.108L495.861 144.649C494.888 144.026 493.86 143.496 492.788 143.067L486.806 140.672C480.887 138.302 474.726 136.596 468.433 135.583L459.988 134.225C451.414 132.845 442.743 132.153 434.058 132.153H414.11L402.232 133.439C396.596 134.049 391.019 135.124 385.56 136.653L371.251 140.664C367.96 141.586 364.877 143.136 362.171 145.229L357.71 148.679C355.429 150.443 353.875 152.986 353.344 155.822M505.397 160.225C498.207 168.142 489.179 174.295 479.169 178.051C474.671 179.74 470.004 180.942 465.25 181.636L456.647 182.892C449.563 183.925 442.411 184.445 435.251 184.445H424.559L396.342 181.661C389.157 180.952 382.101 179.27 375.368 176.661L371.026 174.978C369.323 174.319 367.686 173.502 366.134 172.541C360.184 168.854 355.732 163.176 353.568 156.514L353.344 155.822M459.204 221.875L441.606 223.527H425.384L409.711 221.875L402.562 220.942M459.204 221.875C459.204 223.968 458.276 225.953 456.669 227.293L455.073 228.624C453.458 229.97 451.506 230.847 449.427 231.159L443.92 231.986C442.38 232.218 440.824 232.334 439.267 232.334H427.308L415.804 231.005C413.952 230.791 412.143 230.303 410.435 229.554L406.257 227.725C404.935 227.146 403.859 226.121 403.213 224.83C402.785 223.972 402.562 223.028 402.562 222.069V220.942M353.344 155.822C353.344 161.656 354.274 167.453 356.101 172.992L357.363 176.818C360.686 186.9 366.324 196.062 373.824 203.569C380.446 210.197 388.366 215.382 397.087 218.797L402.562 220.942" stroke="#282828" stroke-width="4" />
        <path d="M460.519 248.32H454.96C452.475 248.32 452.465 244.243 452.74 241.709L452.845 240.749C453.151 237.935 455.383 235.754 458.137 235.578L458.706 235.541C460.621 235.418 462.438 236.422 463.392 238.131C463.759 238.787 463.981 239.518 464.043 240.271L464.35 244.046C464.433 245.053 464.135 246.055 463.517 246.844C462.787 247.777 461.685 248.32 460.519 248.32Z" fill="#D9D9D9" />
        <path d="M452.595 240.586C452.894 237.86 455.078 235.747 457.773 235.577L458.33 235.54C460.204 235.422 461.982 236.394 462.915 238.049C463.274 238.685 463.491 239.393 463.552 240.123L463.852 243.78C463.933 244.755 463.641 245.725 463.037 246.489C462.323 247.394 461.245 247.919 460.103 247.919C457.954 247.919 455.293 247.919 454.664 247.919C452.233 247.919 452.223 243.971 452.492 241.515L452.595 240.586ZM452.595 240.586H452.51C450.882 240.586 449.296 241.101 447.97 242.059L447.536 242.373C446.781 242.919 446.168 243.645 445.752 244.486C445.159 245.689 444.997 247.064 445.296 248.376L445.585 249.644C446.1 251.906 447.423 253.892 449.298 255.22L449.62 255.45C450.896 256.354 452.358 256.952 453.896 257.197L456.789 257.66C459.826 258.145 462.932 257.98 465.74 256.711C467.229 256.038 468.489 255.399 468.634 255.252C469.152 254.728 470.266 251.394 470.704 249.49C471.026 248.094 470.071 245.719 469.893 245.3C469.114 243.474 466.949 242.533 465.006 242.287L463.978 242.157" stroke="#282828" stroke-width="4" />
        <path d="M492.904 230.203H484.848C481.218 230.203 481.219 224.436 481.618 220.859L481.773 219.476C482.217 215.49 485.489 212.397 489.527 212.145L490.255 212.099C493.063 211.925 495.727 213.352 497.118 215.777C497.646 216.7 497.966 217.725 498.054 218.782L498.505 224.169C498.623 225.584 498.192 226.99 497.301 228.1C496.235 229.429 494.617 230.203 492.904 230.203Z" fill="#D9D9D9" />
        <path d="M482.696 219.304C483.132 215.411 486.342 212.39 490.304 212.144L491.019 212.099C493.774 211.929 496.388 213.323 497.753 215.692C498.271 216.593 498.585 217.594 498.672 218.627L499.115 223.889C499.23 225.271 498.808 226.644 497.933 227.728C496.886 229.026 495.299 229.782 493.618 229.782C490.488 229.782 486.629 229.782 485.714 229.782C482.152 229.782 482.153 224.149 482.544 220.655L482.696 219.304ZM482.696 219.304H482.594C480.207 219.304 477.88 220.043 475.941 221.417L475.333 221.848C474.222 222.635 473.324 223.677 472.714 224.885C471.851 226.6 471.615 228.556 472.05 230.423L472.47 232.234C473.225 235.473 475.166 238.324 477.92 240.236L478.343 240.529C480.214 241.829 482.362 242.688 484.622 243.043L488.804 243.697C493.237 244.392 497.772 244.156 501.867 242.342C504.038 241.381 505.876 240.468 506.086 240.259C506.84 239.511 508.464 234.748 509.104 232.027C509.572 230.031 508.182 226.638 507.92 226.04C506.787 223.437 503.619 222.085 500.77 221.732L499.295 221.55" stroke="#282828" stroke-width="4" />
        <path d="M616.194 287.844V282.886L617.762 271.682C619.282 260.826 619.474 249.826 618.336 238.922C616.915 225.334 613.443 212.042 608.035 199.495L602.42 186.467L577.316 137.825C576.451 136.151 576.227 134.219 576.683 132.392L576.82 131.848C577.328 129.815 578.768 128.141 580.703 127.334C582.891 126.423 585.399 126.748 587.282 128.188L590.928 130.976C592.689 132.324 594.121 134.054 595.112 136.037L600.222 146.258C601.685 149.184 602.921 152.219 603.921 155.334L611.786 179.855L622.805 212.362L631.017 243.765C631.785 246.701 632.776 249.573 633.98 252.359L638.338 262.438C640.067 266.435 642.913 269.845 646.536 272.261C648.336 273.461 650.299 274.396 652.366 275.038L662.404 278.153C664.277 278.734 666.056 279.581 667.688 280.669L672.672 283.992C675.249 285.71 676.798 288.604 676.798 291.701M616.194 287.844C616.194 291.067 617.212 294.209 619.101 296.82L621.916 300.706C625.713 305.949 631.099 309.829 637.275 311.77L637.656 311.891C643.77 313.811 650.324 313.811 656.437 311.891L659.712 310.86C664.038 309.502 667.9 306.963 670.864 303.531L673.557 300.413C675.647 297.992 676.798 294.9 676.798 291.701M616.194 287.844L622.805 290.599C631.147 294.589 640.276 296.66 649.524 296.66H655.862L659.707 296.158C665.568 295.394 671.31 293.896 676.798 291.701" stroke="#282828" stroke-width="4" />
        <path d="M190.145 310.012L191.291 310.376C191.965 310.591 192.614 310.884 193.173 311.319C194.675 312.487 196.76 314.566 197.26 316.819C198.019 320.241 196.301 320.603 192.517 324.624C188.734 328.646 190.452 328.283 191.706 332.318C192.96 336.35 197.123 334.041 198.113 335.264C199.4 336.854 197.962 339.692 199.435 341.113L202.576 344.14C204.556 346.049 205.329 348.911 204.335 351.443C203.542 353.468 202.684 355.242 202.171 355.184C201.334 355.089 202.809 360.88 203.785 364.268C203.886 364.615 203.769 364.984 203.489 365.207C203.081 365.531 203.045 366.137 203.414 366.512C205.626 368.759 209.379 372.435 210.886 373.405C212.233 374.272 214.985 374.15 216.906 373.881C217.726 373.766 218.557 373.716 219.383 373.809L220.698 373.958C221.892 374.092 223.09 373.75 224.023 373.006C225.667 371.696 228.022 371.702 229.683 373.027C231.342 374.351 233.693 374.361 235.338 373.051L236.212 372.355C236.988 371.737 237.959 371.41 238.958 371.432C241.442 371.487 243.289 369.42 243.545 366.966C243.633 366.113 243.812 365.64 244.136 366.041C244.337 366.288 244.77 366.401 245.34 366.42C248.397 366.525 248.225 362.006 249.87 359.459C251.209 357.387 251.935 355.801 252.779 353.116C253.143 351.954 252.151 350.743 250.985 349.437C248.025 346.119 244.971 342.213 245.433 337.829C245.549 336.731 247.878 335.881 249.712 334.42L251.037 333.364C251.677 332.854 251.83 331.948 251.395 331.248L251.139 330.838C250.391 329.636 251.602 328.194 252.923 328.717C253.826 329.073 254.817 328.482 254.919 327.523L255.118 325.637C255.229 324.585 254.748 323.543 253.874 322.926C252.247 321.778 252.144 319.397 253.686 318.169L253.896 318.002C254.531 317.497 254.935 316.758 255.02 315.951L255.088 315.3C255.274 313.539 253.666 312.096 251.925 312.464C250.247 312.817 248.673 311.486 248.751 309.778L248.857 307.453C248.955 305.321 247.48 303.433 245.461 302.685C244.038 302.158 242.557 301.479 241.513 300.688C238.778 298.619 234.467 298.194 232.312 295.531L230.532 293.331C229.045 291.496 229.278 289.298 228.287 288.074C228.065 287.801 227.567 287.314 226.919 286.719C223.238 283.338 215.177 284.096 214.101 279.243C213.861 278.159 210.673 278.069 208.14 278.218C206.994 278.284 205.955 278.866 205.24 279.754L203.347 282.108C202.576 283.067 201.104 283.06 200.323 282.095C199.762 281.402 198.802 281.172 197.996 281.539L195.558 282.646C194.234 283.248 193.219 284.361 192.744 285.729L191.631 288.938C191.28 289.95 190.474 290.738 189.449 291.068L189.101 291.181C186.97 291.869 186.208 294.469 187.623 296.217C188.744 297.601 188.532 299.614 187.151 300.714L187.006 300.83C186.005 301.629 185.549 302.924 185.826 304.179L186.154 305.659C186.609 307.709 188.133 309.371 190.145 310.012Z" fill="#00CAA1" />
        <path d="M185.878 304.901L187.048 305.284C187.724 305.504 188.376 305.805 188.935 306.247C190.441 307.436 192.533 309.549 193.045 311.829C193.822 315.29 192.108 315.646 188.355 319.689C184.601 323.732 186.313 323.374 187.587 327.458C188.862 331.541 193.003 329.23 193.999 330.473C195.28 332.07 193.859 334.933 195.324 336.363L198.519 339.482C200.499 341.414 201.278 344.306 200.294 346.876C199.514 348.909 198.672 350.686 198.16 350.624C197.324 350.523 198.829 356.388 199.825 359.818C199.925 360.164 199.81 360.535 199.53 360.76C199.126 361.086 199.089 361.692 199.454 362.067C201.673 364.349 205.448 368.096 206.962 369.086C208.311 369.969 211.056 369.86 212.972 369.599C213.79 369.487 214.619 369.442 215.441 369.54L216.763 369.698C217.952 369.842 219.145 369.499 220.075 368.751C221.709 367.436 224.062 367.462 225.703 368.791C227.367 370.139 229.748 370.164 231.402 368.833L232.231 368.166C233.004 367.544 233.974 367.219 234.968 367.247C237.439 367.317 239.286 365.234 239.524 362.768C239.607 361.901 239.783 361.419 240.11 361.827C240.306 362.071 240.72 362.188 241.264 362.214C244.323 362.369 244.158 357.792 245.797 355.208C247.122 353.122 247.838 351.523 248.665 348.814C249.022 347.642 248.025 346.413 246.855 345.087C243.885 341.724 240.808 337.777 241.247 333.326C241.357 332.216 243.677 331.37 245.5 329.904L246.811 328.849C247.449 328.335 247.603 327.422 247.168 326.718L246.896 326.28C246.152 325.076 247.363 323.629 248.671 324.157C249.572 324.522 250.563 323.923 250.659 322.956L250.849 321.029C250.952 319.982 250.487 318.956 249.63 318.341L249.58 318.305C247.942 317.131 247.863 314.72 249.422 313.466L249.56 313.355C250.205 312.836 250.615 312.077 250.697 311.248L250.762 310.598C250.937 308.816 249.332 307.365 247.586 307.729C245.905 308.078 244.333 306.739 244.402 305.014L244.496 302.648C244.583 300.488 243.108 298.581 241.088 297.814C239.662 297.273 238.175 296.577 237.127 295.772C234.399 293.677 230.093 293.228 227.938 290.54L226.125 288.276C224.632 286.414 224.851 284.194 223.855 282.952C223.629 282.67 223.121 282.169 222.462 281.556C218.781 278.132 210.746 278.852 209.647 273.95C209.4 272.853 206.224 272.744 203.697 272.88C202.549 272.94 201.51 273.529 200.797 274.427L198.95 276.755C198.175 277.734 196.691 277.731 195.904 276.75C195.343 276.048 194.382 275.817 193.571 276.186L191.177 277.276C189.848 277.882 188.828 279.011 188.359 280.401L187.273 283.614C186.927 284.638 186.119 285.435 185.094 285.765L184.818 285.854C182.67 286.547 181.894 289.188 183.316 290.963C184.439 292.363 184.225 294.403 182.839 295.519L182.727 295.609C181.729 296.413 181.276 297.718 181.558 298.976L181.904 300.522C182.366 302.579 183.878 304.246 185.878 304.901Z" stroke="#282828" stroke-width="4" />
        <path d="M177.737 319.629L185.634 310.258C186.493 309.24 187.888 308.827 189.194 309.207C191.425 309.855 192.411 312.446 191.141 314.335L187.358 319.967C186.71 320.932 185.861 321.744 184.897 322.404C182.196 324.252 177.798 327.521 177.727 328.248L177.695 328.583C177.528 330.308 178.666 331.916 180.374 332.371C180.981 332.532 181.618 332.534 182.22 332.375L189.79 330.388C191.542 329.928 193.352 331.015 193.759 332.771C194.208 334.697 192.783 336.702 190.888 337.295C188.676 337.99 186.391 338.857 185.275 338.72C184.307 338.603 182.623 338.615 180.974 338.671C179.61 338.72 179.082 340.376 180.135 341.251C180.336 341.417 180.575 341.533 180.832 341.583C183.386 342.075 188.141 342.868 189.466 342.602C191.211 342.252 197.873 344.185 198.491 343.698C198.771 343.478 199.168 344.703 199.525 346.19C199.981 348.086 198.802 349.933 196.921 350.477C196.38 350.634 195.81 350.672 195.248 350.591L173.03 347.351L164.283 344.927C160.633 343.916 157.52 341.514 155.639 338.257L154.547 336.367C153.987 335.397 153.702 334.3 153.722 333.194C153.779 330.024 156.286 327.466 159.494 327.301L162.137 327.166C163.089 327.116 164.024 326.919 164.91 326.583L171.415 324.106C172.893 323.542 174.273 322.761 175.507 321.787C176.322 321.144 177.07 320.423 177.737 319.629Z" fill="#00CAA1" stroke="#282828" stroke-width="3" />
    </g>
    <defs>
        <clipPath id="clip0_349_2011">
            <rect width="680" height="389" fill="white" />
        </clipPath>
    </defs>
</svg>
