<svg width="265" height="178" viewBox="0 0 265 178" fill="none" xmlns="http://www.w3.org/2000/svg">
<g clip-path="url(#clip0_346_257)">
<path d="M43.3581 94.4187L55.8258 84.7833C56.4651 84.2892 57.2481 84.0215 58.0537 84.0215C59.4406 84.0215 60.7085 84.8114 61.3288 86.0618L64.0208 91.4891C64.5535 92.5631 65.2257 93.5606 66.02 94.4554L69.7738 98.6845C72.1381 101.348 74.842 103.685 77.8148 105.632C81.4807 108.034 85.5112 109.817 89.747 110.909L95.5458 112.404C101.746 114.003 108.119 114.812 114.518 114.812H151.451C153.268 114.812 170.892 111.764 181.871 109.817C183.504 109.527 185 110.792 185 112.463C185 113.807 184.013 114.945 182.691 115.124L143.94 120.364L109.263 120.988C95.0304 121.245 80.8097 120.021 66.8263 117.336L52.2672 114.246C49.3626 113.63 46.7259 112.102 44.7344 109.884L42.2167 107.079C39.8455 104.437 39.325 100.6 40.9055 97.4131C41.4873 96.2404 42.3259 95.2165 43.3581 94.4187Z" fill="#ECE5E2"/>
<path d="M263 130.021H2V139.021H263V130.021Z" fill="#FAB361"/>
<path d="M133.5 88.0215C180.72 88.0215 219 74.1423 219 57.0215C219 39.9007 180.72 26.0215 133.5 26.0215C86.2797 26.0215 48 39.9007 48 57.0215C48 74.1423 86.2797 88.0215 133.5 88.0215Z" fill="#FAB361"/>
<path d="M251 165.521C251 167.601 249.391 169.947 245.759 171.889C242.212 173.786 237.174 175.021 231.5 175.021C225.826 175.021 220.788 173.786 217.241 171.889C213.609 169.947 212 167.601 212 165.521C212 163.441 213.609 161.095 217.241 159.153C220.788 157.256 225.826 156.021 231.5 156.021C237.174 156.021 242.212 157.256 245.759 159.153C249.391 161.095 251 163.441 251 165.521Z" stroke="#282828" stroke-width="4"/>
<path d="M48.8582 67.0215H40.4871C38.7071 67.0215 37.0614 67.9678 36.1659 69.506L2 128.197M2 128.197H263M2 128.197V134.021C2 136.782 4.23858 139.021 7 139.021H258C260.761 139.021 263 136.782 263 134.021V128.197M263 128.197L230.688 69.6069C229.808 68.012 228.131 67.0215 226.31 67.0215H218.485" stroke="#282828" stroke-width="4"/>
<path d="M42 167.021C56.9117 167.021 69 157.396 69 145.521C69 133.647 56.9117 124.021 42 124.021C27.0883 124.021 15 133.647 15 145.521C15 157.396 27.0883 167.021 42 167.021Z" fill="#EE693F"/>
<path d="M47.018 44.6226L43.1446 41.3503C39.4495 38.2288 35.0284 36.0938 30.2915 35.1433L28.0943 34.7025C27.703 34.624 27.3049 34.5844 26.9057 34.5844C24.529 34.5844 22.3717 35.978 21.3882 38.1486L18.7644 43.9395C18.2607 45.0512 18 46.2582 18 47.4794V48.7961C18 51.9478 20.1381 54.695 23.186 55.4594C23.7291 55.5957 24.2868 55.6645 24.8465 55.6645H26.0958C28.0224 55.6645 29.9351 55.9932 31.7518 56.6364L33.6018 57.2914C36.195 58.2096 38.6417 59.5001 40.8656 61.1228L43.0155 62.6912L43.768 63.103C46.8886 64.8106 49.549 67.2529 51.5207 70.2198L60.026 87.2847L64.5347 94.2024C67.1779 98.2579 70.5199 101.809 74.4041 104.689C78.1328 107.453 82.3002 109.576 86.7578 110.857C89.9888 111.785 93.1966 112.656 94.5474 112.882C95.5682 113.053 100.242 113.441 106.084 113.908C122.05 115.185 138.099 115.389 154.084 114.388L173.92 111.423C176.369 111.058 178.782 110.493 181.139 109.733L185.563 108.307C189.535 107.026 193.146 104.813 196.097 101.853C197.766 100.179 199.202 98.2868 200.367 96.2278L209.118 80.7599L214.626 71.4539C217.236 67.0437 221.056 63.4793 225.628 61.1855L229.718 58.7921C230.992 58.047 232.329 57.4179 233.714 56.9126L235.622 56.2167C236.625 55.8505 237.677 55.6343 238.744 55.5749L241.404 55.4266C244.263 55.2673 246.736 53.3727 247.641 50.6473C247.971 49.6548 248.075 48.601 247.946 47.5629L247.52 44.1463C247.273 42.1644 246.457 40.2974 245.171 38.7727C242.963 36.1548 239.6 34.8116 236.203 35.1903L234.721 35.3555C233.338 35.5096 231.987 35.8848 230.723 36.4667L220.625 41.1092M47.018 44.6226L46.0067 48.6805C45.3573 51.2861 45.3786 54.0146 46.0685 56.6097C46.6931 58.9594 47.8483 61.1336 49.4446 62.9639L52.6513 66.6404C55.8677 70.3279 59.7858 73.3341 64.1756 75.4822L70.4615 78.5583C75.4944 81.0213 80.7989 82.8812 86.2654 84.1L91.6724 85.3054C97.5827 86.623 103.585 87.4832 109.627 87.8784L123.565 88.7904C134.572 88.6231 156.988 87.5601 158.087 87.2847C159.227 86.9987 164.753 85.8437 170.87 84.6553C179.629 82.9532 188.22 80.3879 196.343 76.6839L202.235 73.9975C204.815 72.8209 207.26 71.3669 209.527 69.661C213.876 66.3888 217.499 62.244 220.164 57.4908L220.625 56.6683L222.251 52.7068C223.449 49.7876 223.404 46.5036 222.126 43.6188L220.625 41.1092M47.018 44.6226L48.3975 42.8431C52.107 38.0585 56.7653 34.0977 62.0781 31.2107C64.7056 29.783 67.4721 28.6293 70.3343 27.7679L86.0421 23.0406L108.556 19.0253L130.069 18.0215L154.084 19.0253L177.599 23.0406L184.544 24.624C194.539 26.9028 204.16 30.5945 213.121 35.5882L220.625 41.1092" stroke="#282828" stroke-width="4"/>
<path d="M110.038 39.5278L93.684 40.8351L92.0469 41.287C89.9312 41.8711 87.7502 42.1868 85.5553 42.2268L82.2841 45.5951L82.2347 47.062C82.1885 48.437 82.0311 49.806 81.7645 51.1559L82.8696 52.8899L84.1981 54.7753L84.4815 55.0145C86.895 57.0519 89.6883 58.5932 92.7008 59.5498L96.5114 53.5905L99.4358 49.6347C99.5351 49.5003 99.6547 49.3819 99.7902 49.2836L99.8959 49.2071C100.885 48.4899 102.28 49.1349 102.37 50.3517C102.402 50.7802 102.61 51.1766 102.944 51.447L104.76 52.9126C104.886 53.0136 105.02 53.1022 105.162 53.177C106.273 53.7609 106.783 55.0956 106.158 56.1818C105.637 57.0861 104.995 57.9518 104.358 58.249C104.273 58.2885 104.179 58.3316 104.076 58.3775C100.693 59.8879 97.1106 60.8989 93.5 61.7335L91.134 62.3608C89.0088 62.9242 86.8042 63.1295 84.6113 62.9682C82.4817 62.8114 80.3916 62.3109 78.4226 61.4864L76.3149 60.6036L73.5732 58.7464C73.1786 58.479 72.8876 58.0849 72.7487 57.6296C72.565 57.0272 72.6642 56.3742 73.0187 55.8532L73.6821 54.8783C71.1591 53.7531 69.6826 51.1018 70.0579 48.3699L70.0852 48.1714L70.32 46.9297C70.6603 45.1305 72.9336 44.5534 74.0995 45.9256C72.8969 44.4403 70.6497 41.5849 70.7699 41.4085L73.2177 37.8111C74.6179 35.7534 76.5658 34.1264 78.8423 33.1133L80.0421 32.5794L80.0979 32.4973C81.3521 30.6541 83.1762 29.2707 85.2917 28.558C86.7689 28.0605 88.3404 27.9061 89.8864 28.1069L92.3357 28.4248L95.1388 29.0098C95.3614 28.7418 95.6862 28.5793 96.0345 28.5614L100.161 28.3507C101.541 28.2803 102.923 28.4787 104.228 28.9349L104.369 28.9844C106.265 29.6467 107.95 30.796 109.258 32.3163L112 35.5049L110.786 38.9525C110.672 39.275 110.379 39.5006 110.038 39.5278Z" fill="#F26226"/>
<path d="M93.5595 40.7922L109.827 39.4823C110.167 39.4551 110.458 39.2291 110.572 38.906M93.5595 40.7922C91.4172 37.3667 91.7057 32.9461 94.2749 29.8312L95.0066 28.944M93.5595 40.7922L91.931 41.245C89.8264 41.8302 87.6569 42.1465 85.4736 42.1866M110.572 38.906L111.779 35.4517M110.572 38.906C113.756 39.7714 116.776 41.1643 119.505 43.0265C120.702 43.8434 121.724 44.5406 122.05 44.7629C122.554 45.107 125.01 46.0103 127.183 46.7699C128.748 47.3168 130.413 47.4995 132.062 47.3364L133.251 47.2187C135.984 46.9481 138.456 45.4711 140 43.1872M95.0066 28.944C95.2281 28.6755 95.5512 28.5127 95.8977 28.4948L100.002 28.2837C101.375 28.2131 102.75 28.4119 104.048 28.869L104.189 28.9185C106.074 29.5822 107.751 30.7337 109.051 32.2569L111.779 35.4517M95.0066 28.944L92.2182 28.3579L89.7818 28.0393C88.244 27.8382 86.6807 27.9929 85.2113 28.4914C83.1069 29.2054 81.2924 30.5915 80.0448 32.4383L79.9893 32.5205M85.4736 42.1866L84.4572 42.2053C83.0129 42.2319 81.6268 41.6338 80.6514 40.5631C79.6177 39.4285 79.1538 37.8829 79.3906 36.3632L79.9893 32.5205M85.4736 42.1866L82.2195 45.5614M111.779 35.4517L116.233 36.3895C118.371 36.8399 120.56 36.9953 122.74 36.8515L124.474 36.737C126.1 36.6298 127.695 36.24 129.189 35.5849L131.55 34.5495C132.747 34.0247 133.748 33.1321 134.409 32.0001L134.778 31.3661C136.292 28.7731 135.645 24.9059 132.763 24.0979C132.341 23.9793 130.794 24.0166 129.322 24.0898C127.955 24.1577 126.71 24.8868 125.941 26.0253M79.9893 32.5205L78.7958 33.0555C76.5313 34.0705 74.5936 35.7007 73.2008 37.7623C72.4399 38.8887 70.8875 41.1865 70.7658 41.3667C70.644 41.5469 72.9683 44.5151 74.1457 45.9767M74.1457 45.9767L74.7541 46.0733C77.2492 46.469 79.8011 46.2941 82.2195 45.5614M74.1457 45.9767C73.0086 44.4952 70.6636 45.0601 70.3183 46.8986L70.0847 48.1427L70.0576 48.3416C69.6843 51.0788 71.153 53.7352 73.6628 54.8626M82.2195 45.5614L82.1704 47.0311C82.1244 48.4088 81.9679 49.7805 81.7026 51.1329M73.6628 54.8626L75.8076 54.0233C77.8485 53.2247 79.8203 52.2579 81.7026 51.1329M73.6628 54.8626L73.0028 55.8394C72.6502 56.3614 72.5515 57.0156 72.7342 57.6192C72.8724 58.0754 73.1619 58.4702 73.5544 58.7381L76.2817 60.5989M81.7026 51.1329L82.8019 52.8703L84.1235 54.7593M84.1235 54.7593L84.1056 54.808C83.3799 56.7846 81.8425 58.3516 79.8862 59.1088L76.2817 60.5989M84.1235 54.7593L84.4054 54.999C86.8061 57.0404 89.5848 58.5847 92.5815 59.5431M76.2817 60.5989L78.3783 61.4834C80.337 62.3096 82.4161 62.811 84.5345 62.9681C86.7159 63.1297 88.9089 62.924 91.0229 62.3596L93.3764 61.731M92.5815 59.5431L93.3764 61.731M92.5815 59.5431L96.372 53.5723L99.2809 49.6089C99.3798 49.4741 99.4988 49.3555 99.6336 49.257L99.7387 49.1804C100.723 48.4618 102.11 49.108 102.199 50.3272C102.232 50.7566 102.439 51.1537 102.771 51.4246L104.577 52.8931C104.702 52.9943 104.836 53.0831 104.978 53.158C106.082 53.743 106.59 55.0803 105.968 56.1686C105.45 57.0746 104.811 57.942 104.177 58.2398C104.093 58.2794 104 58.3225 103.897 58.3685C100.532 59.8818 96.968 60.8948 93.3764 61.731" stroke="#282828" stroke-width="4"/>
<path d="M149.408 64.2446L165.657 64.8763L167.322 64.6269C169.473 64.3045 171.656 64.2511 173.821 64.4678L177.439 61.5688L177.661 60.146C177.869 58.8125 178.185 57.4976 178.608 56.2142L177.725 54.397L176.641 52.4062L176.39 52.1402C174.255 49.8751 171.688 48.0488 168.837 46.7666L164.382 52.1258L161.037 55.6373C160.923 55.7566 160.791 55.858 160.646 55.9379L160.533 56.0002C159.474 56.5834 158.178 55.7928 158.233 54.5974C158.252 54.1763 158.095 53.766 157.797 53.4638L156.184 51.8252C156.073 51.7122 155.951 51.6103 155.82 51.5208C154.795 50.8228 154.451 49.4638 155.195 48.4789C155.815 47.6589 156.549 46.8907 157.211 46.6754C157.298 46.6467 157.396 46.6159 157.503 46.5832C161.011 45.5063 164.656 44.9391 168.309 44.547L170.712 44.2117C172.869 43.9105 175.064 43.9673 177.203 44.38C179.28 44.7806 181.278 45.5114 183.118 46.5437L185.088 47.6488L187.567 49.7767C187.923 50.083 188.163 50.5007 188.246 50.9603C188.356 51.5683 188.181 52.1926 187.77 52.6586L187.002 53.5307C189.353 54.9203 190.491 57.6741 189.799 60.2907L189.749 60.4809L189.372 61.6626C188.824 63.3751 186.518 63.6723 185.533 62.2002C186.54 63.7867 188.415 66.8289 188.276 66.9868L185.442 70.2049C183.82 72.0455 181.711 73.403 179.35 74.1244L178.106 74.5046L178.041 74.578C176.589 76.2268 174.631 77.3615 172.465 77.8091C170.952 78.1216 169.387 78.0889 167.889 77.7133L165.516 77.1184L162.827 76.2223C162.576 76.4573 162.237 76.5777 161.892 76.5545L157.807 76.2791C156.439 76.187 155.103 75.8329 153.873 75.2365L153.739 75.172C151.953 74.3062 150.429 72.9905 149.322 71.3579L147 67.9335L148.602 64.7176C148.753 64.4167 149.068 64.2313 149.408 64.2446Z" fill="#F26226"/>
<path d="M165.659 64.8763L149.412 64.2445C149.072 64.2314 148.757 64.4167 148.607 64.7176M165.659 64.8763C167.374 68.4564 166.567 72.7191 163.657 75.4457L162.829 76.2223M165.659 64.8763L167.324 64.6269C169.475 64.3045 171.658 64.2511 173.822 64.4678M148.607 64.7176L147.004 67.9334M148.607 64.7176C145.558 63.5035 142.736 61.7963 140.255 59.6668C139.168 58.7327 138.238 57.9354 137.943 57.6812C137.484 57.2878 135.162 56.1223 133.102 55.1296C131.619 54.4148 129.993 54.0422 128.343 54.0078L127.152 53.983C124.416 53.9258 121.796 55.0719 120 57.111M162.829 76.2223C162.579 76.4573 162.239 76.5777 161.895 76.5545L157.81 76.2791C156.442 76.187 155.106 75.8329 153.876 75.2365L153.743 75.172C151.956 74.3062 150.433 72.9905 149.326 71.3579L147.004 67.9334M162.829 76.2223L165.518 77.1184L167.892 77.7133C169.389 78.0889 170.954 78.1216 172.466 77.8091C174.632 77.3615 176.59 76.2268 178.042 74.578L178.107 74.5046M173.822 64.4678L174.831 64.5686C176.263 64.7119 177.563 65.4556 178.402 66.6103C179.29 67.8342 179.567 69.3906 179.153 70.8399L178.107 74.5046M173.822 64.4678L177.44 61.5688M147.004 67.9334L142.71 66.5006C140.648 65.8125 138.5 65.405 136.327 65.2896L134.597 65.1978C132.976 65.1117 131.351 65.3038 129.797 65.7654L127.34 66.4953C126.093 66.8654 124.998 67.6156 124.211 68.6385L123.769 69.2114C121.967 71.5543 122.151 75.3888 124.906 76.5115C125.31 76.6762 126.844 76.821 128.309 76.9223C129.67 77.0163 130.987 76.4534 131.882 75.437M178.107 74.5046L179.351 74.1244C181.712 73.403 183.821 72.0455 185.442 70.2049C186.327 69.1992 188.134 67.1477 188.276 66.9868C188.417 66.8259 186.469 63.6688 185.476 62.1105M185.476 62.1105L184.885 61.9455C182.464 61.2687 179.919 61.1398 177.44 61.5688M185.476 62.1105C186.427 63.6835 188.813 63.4091 189.372 61.6626L189.749 60.4809L189.799 60.2907C190.491 57.6741 189.353 54.9203 187.002 53.5307M177.44 61.5688L177.662 60.146C177.87 58.8125 178.187 57.4976 178.609 56.2142M187.002 53.5307L184.782 54.0953C182.668 54.6325 180.604 55.3413 178.609 56.2142M187.002 53.5307L187.77 52.6586C188.181 52.1926 188.356 51.5683 188.246 50.9603C188.163 50.5007 187.924 50.083 187.567 49.7767L185.089 47.6488M178.609 56.2142L177.726 54.397L176.642 52.4062M176.642 52.4062L176.665 52.361C177.617 50.5248 179.322 49.1819 181.347 48.675L185.089 47.6488M176.642 52.4062L176.391 52.1402C174.257 49.8751 171.69 48.0488 168.839 46.7666M185.089 47.6488L183.119 46.5437C181.279 45.5114 179.281 44.7806 177.204 44.38C175.065 43.9673 172.871 43.9105 170.714 44.2117L168.311 44.547M168.839 46.7666L168.311 44.547M168.839 46.7666L164.384 52.1258L161.04 55.6373C160.925 55.7566 160.794 55.8581 160.649 55.9379L160.536 56.0002C159.477 56.5834 158.181 55.7928 158.237 54.5974C158.256 54.1763 158.098 53.766 157.8 53.4638L156.188 51.8252C156.076 51.7122 155.954 51.6103 155.823 51.5208C154.799 50.8228 154.454 49.4638 155.198 48.4789C155.818 47.6589 156.552 46.8907 157.214 46.6754C157.301 46.6467 157.399 46.6159 157.506 46.5832C161.014 45.5063 164.659 44.9391 168.311 44.547" stroke="#282828" stroke-width="4"/>
<path d="M156.649 32.1118L158.528 33.1477C159.437 33.5541 161.322 34.3101 161.598 34.083C161.657 34.0337 161.788 33.9802 161.964 33.9256C163.334 33.5023 164.677 34.569 164.889 35.9925C165.131 36.757 165.602 38.4119 165.554 38.9151C165.539 39.0693 165.334 39.3477 165.027 39.6845C163.449 41.4169 161.198 42.3304 158.902 42.7716C157.592 43.0234 156.252 43.0853 154.925 42.9554L154.709 42.9343C152.458 42.7141 150.275 42.0133 148.352 40.8171C147.412 40.2323 146.637 39.728 146.528 39.5938C146.383 39.418 145.741 39.0133 145.112 38.6427C144.485 38.2727 143.953 37.7557 143.589 37.1223L143.417 36.8235C143.017 36.1253 142.899 35.2989 143.089 34.5159L143.199 34.0628C143.277 33.7385 143.255 33.3978 143.136 33.0863C142.936 32.5626 143.017 31.9724 143.348 31.5216L143.607 31.1715C143.804 30.9032 144.055 30.6785 144.343 30.5117L147.31 28.7922C148.165 28.2969 149.057 27.8697 149.978 27.5143L151.35 26.985C153.013 26.3437 154.718 25.822 156.453 25.4233L162.045 24.1394C162.395 24.0588 162.755 24.0193 163.115 24.0216L164.412 24.0299C165.412 24.0364 166.319 24.6169 166.748 25.524C167.261 26.6086 166.972 27.9046 166.05 28.6673L164.653 29.8219C164.342 30.0787 164.001 30.2962 163.638 30.4697L162.881 30.8309C161.554 31.4635 160.117 31.8235 158.65 31.8896L156.396 32.0326C156.484 32.0415 156.57 32.0681 156.649 32.1118Z" fill="white"/>
<path d="M143.662 33.2809C144.164 33.3298 148.274 33.5204 150.267 33.6094M150.267 33.6094L153.52 32.6576L156.182 32.0462M150.267 33.6094L147.953 34.6203C147.573 34.7862 147.365 35.2006 147.457 35.6064C147.497 35.7847 147.593 35.9454 147.73 36.0656L149.558 37.6677C150.238 38.2634 151.653 39.5238 151.879 39.7999C151.892 39.8158 151.91 39.833 151.933 39.8512C153.422 41.0729 155.597 40.9187 157.51 40.7252L158.951 40.5796C159.243 40.55 159.53 40.4779 159.803 40.3656L160.806 39.9518C161.604 39.6229 162.048 38.7634 161.857 37.9185M156.182 32.0462C156.34 32.0098 156.507 32.0331 156.649 32.1118L158.528 33.1477C159.437 33.5541 161.322 34.3101 161.598 34.083C161.657 34.0337 161.788 33.9802 161.964 33.9256C163.334 33.5023 164.677 34.569 164.889 35.9925M156.182 32.0462L158.65 31.8896C160.117 31.8235 161.554 31.4635 162.881 30.8309L163.638 30.4697C164.001 30.2962 164.342 30.0787 164.653 29.8219L166.05 28.6673C166.972 27.9046 167.261 26.6086 166.748 25.524C166.319 24.6169 165.412 24.0364 164.412 24.0299L163.115 24.0216C162.755 24.0193 162.395 24.0588 162.045 24.1394L156.453 25.4233C154.718 25.822 153.013 26.3437 151.35 26.985L149.978 27.5143C149.057 27.8697 148.165 28.2969 147.31 28.7922L144.343 30.5117C144.055 30.6785 143.804 30.9032 143.607 31.1715L143.348 31.5216C143.017 31.9724 142.936 32.5626 143.136 33.0863C143.255 33.3978 143.277 33.7384 143.199 34.0628L143.089 34.5159C142.899 35.2989 143.017 36.1253 143.417 36.8235L143.589 37.1223C143.953 37.7557 144.485 38.2727 145.112 38.6427C145.741 39.0133 146.383 39.418 146.528 39.5938C146.637 39.728 147.412 40.2323 148.352 40.8171C150.275 42.0133 152.458 42.7142 154.709 42.9343L154.925 42.9554C156.252 43.0853 157.592 43.0234 158.902 42.7716C161.198 42.3304 163.449 41.4169 165.027 39.6845C165.334 39.3477 165.539 39.0693 165.554 38.9151C165.602 38.4119 165.131 36.757 164.889 35.9925M161.857 37.9185L164.889 35.9925M161.857 37.9185C161.023 37.8369 159.297 37.6045 159.071 37.3284C158.845 37.0522 156.783 35.9404 155.78 35.4189C154.601 34.8912 153.282 34.7623 152.024 35.0514L151.054 35.274" stroke="#282828" stroke-width="2"/>
<path d="M103.998 71.2274L102.255 72.477C101.4 72.9883 99.6153 73.9634 99.3137 73.7737C99.2482 73.7324 99.1115 73.696 98.9288 73.6638C97.5135 73.4153 96.3067 74.6296 96.2715 76.0561C96.1246 76.8379 95.8585 78.5239 95.9689 79.0131C96.0027 79.1629 96.2409 79.4118 96.5876 79.7055C98.3716 81.2164 100.726 81.8391 103.066 81.9916C104.402 82.0786 105.743 81.9753 107.049 81.6846L107.262 81.6374C109.475 81.1448 111.563 80.1875 113.33 78.7749C114.194 78.0842 114.905 77.4928 114.997 77.3473C115.12 77.1567 115.709 76.6797 116.29 76.238C116.869 75.797 117.335 75.2232 117.62 74.5554L117.754 74.2403C118.067 73.5043 118.082 72.6768 117.796 71.9296L117.631 71.4973C117.513 71.1878 117.493 70.85 117.574 70.5289C117.708 69.9891 117.556 69.4183 117.17 69.0155L116.87 68.7027C116.639 68.4629 116.363 68.2726 116.055 68.1438L112.89 66.816C111.977 66.4334 111.037 66.1225 110.076 65.8858L108.644 65.5333C106.911 65.1063 105.148 64.8021 103.371 64.6228L97.6461 64.0454C97.2866 64.009 96.924 64.0142 96.5656 64.0607L95.2749 64.2279C94.2806 64.3569 93.4482 65.0394 93.1329 65.9844C92.7557 67.1144 93.2016 68.3542 94.2145 68.9914L95.7474 69.956C96.0884 70.1706 96.4546 70.3428 96.8378 70.4688L97.6361 70.7314C99.0342 71.1912 100.51 71.3689 101.979 71.2541L104.242 71.1184C104.154 71.1379 104.072 71.1747 103.998 71.2274Z" fill="white"/>
<path d="M117.074 70.7849C116.581 70.8945 112.511 71.5861 110.537 71.9182M110.537 71.9182L107.182 71.3806L104.456 71.1056M110.537 71.9182L112.966 72.6288C113.365 72.7456 113.624 73.1277 113.582 73.5383C113.563 73.7186 113.487 73.8885 113.366 74.0235L111.743 75.8241C111.139 76.4934 109.885 77.9071 109.693 78.2065C109.682 78.2238 109.666 78.2428 109.646 78.2636C108.313 79.6482 106.129 79.7634 104.199 79.8076L102.748 79.8409C102.453 79.8477 102.158 79.8119 101.873 79.7349L100.823 79.4508C99.9889 79.2251 99.4405 78.4339 99.5261 77.5794M104.456 71.1056C104.294 71.0892 104.131 71.1326 103.998 71.2274L102.255 72.477C101.4 72.9883 99.6153 73.9634 99.3137 73.7737C99.2482 73.7324 99.1115 73.696 98.9288 73.6638C97.5135 73.4153 96.3067 74.6296 96.2715 76.0561M104.456 71.1056L101.979 71.2541C100.51 71.3689 99.0342 71.1912 97.6361 70.7314L96.8378 70.4688C96.4546 70.3428 96.0884 70.1706 95.7474 69.956L94.2145 68.9914C93.2016 68.3542 92.7557 67.1144 93.1329 65.9844C93.4482 65.0394 94.2806 64.3569 95.2749 64.2279L96.5656 64.0607C96.924 64.0142 97.2866 64.009 97.6461 64.0454L103.371 64.6228C105.148 64.8021 106.911 65.1063 108.644 65.5333L110.076 65.8858C111.037 66.1225 111.977 66.4334 112.89 66.816L116.055 68.1438C116.363 68.2726 116.639 68.4629 116.87 68.7027L117.17 69.0155C117.556 69.4183 117.708 69.9891 117.574 70.5289C117.493 70.85 117.513 71.1878 117.631 71.4973L117.796 71.9296C118.082 72.6768 118.067 73.5043 117.754 74.2403L117.62 74.5554C117.335 75.2232 116.869 75.797 116.29 76.238C115.709 76.6797 115.12 77.1567 114.997 77.3473C114.905 77.4928 114.194 78.0842 113.33 78.7749C111.563 80.1875 109.475 81.1448 107.262 81.6374L107.049 81.6846C105.743 81.9753 104.402 82.0786 103.066 81.9916C100.726 81.8391 98.3716 81.2164 96.5876 79.7055C96.2409 79.4118 96.0027 79.1629 95.9689 79.0131C95.8585 78.5239 96.1246 76.8379 96.2715 76.0561M99.5261 77.5794L96.2715 76.0561M99.5261 77.5794C100.347 77.3966 102.037 76.9563 102.229 76.6569C102.42 76.3575 104.336 75.0106 105.271 74.3746C106.38 73.7108 107.677 73.4222 108.967 73.5522L109.959 73.6524" stroke="#282828" stroke-width="2"/>
<path d="M49.7544 135.328L49.5167 135.054C47.187 132.356 48.3447 128.099 51.7018 127.02L38.7383 125.119C36.7609 124.829 35.1474 123.353 34.6461 121.376L32.6923 113.668C32.1276 111.44 29.6624 110.352 27.6893 111.459C25.9328 112.445 25.3634 114.748 26.4505 116.469L29.6857 121.592C31.3528 124.231 30.2922 127.77 27.465 129.001L16 133.993L28.2474 133.124C31.5384 132.89 34.1291 135.95 33.4324 139.246L31.5789 148.021L37.6775 135.952C38.9589 133.416 42.0353 132.462 44.4775 133.845L53 138.669L49.7544 135.328Z" fill="#02C69E"/>
<path d="M21.8607 134.243L19.0115 136.831C16.6378 138.988 15.0013 141.839 14.3343 144.981C13.7307 147.825 13.9477 150.783 14.9597 153.507L15.6755 155.433C17.9506 161.558 22.8098 166.383 29.2334 167.479C35.262 168.507 41.0369 169.021 41.3624 169.021C41.7197 169.021 48.6476 167.781 55.2671 165.941C60.6253 164.451 64.5764 160.197 66.5615 154.986L66.6314 154.803C68.7514 149.239 68.3956 143.031 65.6538 137.746C63.8005 134.175 60.9551 131.218 57.4619 129.234L52.4132 126.368L53.0633 126.737M53.0633 126.737C49.7015 127.797 48.542 131.978 50.875 134.629L51.1132 134.898L54.3635 138.18L45.8287 133.441C43.3829 132.083 40.3022 133.019 39.019 135.51L32.9117 147.367L34.7679 138.747C35.4654 135.508 32.871 132.503 29.5753 132.733L17.3104 133.587L28.7919 128.683C31.6231 127.474 32.6853 123.997 31.0156 121.405L27.776 116.373C26.6872 114.682 27.2574 112.42 29.0165 111.451C30.9923 110.364 33.4611 111.432 34.0266 113.621L35.9832 121.193C36.4853 123.135 38.101 124.585 40.0812 124.869L53.0633 126.737Z" stroke="#282828" stroke-width="4"/>
<path d="M84 167.021C96.7025 167.021 107 158.739 107 148.521C107 138.304 96.7025 130.021 84 130.021C71.2975 130.021 61 138.304 61 148.521C61 158.739 71.2975 167.021 84 167.021Z" fill="#EE693F"/>
<path d="M78.5002 136.652L78.7621 136.455C81.3275 134.517 81.0417 130.588 78.2227 129.039L89.844 129.695C91.8724 129.808 93.7713 128.697 94.6596 126.876L97.6258 120.794C98.526 118.948 100.928 118.441 102.501 119.764C103.902 120.942 104.006 123.058 102.727 124.367L99.3419 127.83C97.1608 130.062 97.5228 133.714 100.1 135.477L109 141.566L98.8241 138.778C95.5887 137.892 92.4045 140.346 92.4509 143.691L92.5526 151.021L89.3613 139.873C88.5822 137.152 85.7023 135.609 82.9955 136.464L75 138.987L78.5002 136.652Z" fill="#02C69E"/>
<path d="M104.277 141.082L106.326 143.867C108.033 146.187 108.968 148.987 108.999 151.87C109.028 154.479 108.314 157.042 106.942 159.26L105.971 160.828C102.887 165.812 97.7597 169.194 91.9151 169.015C86.4299 168.847 81.2588 168.272 80.9725 168.213C80.6581 168.149 74.7827 165.827 69.285 163.03C64.8346 160.766 62.111 156.318 61.2858 151.381L61.2568 151.207C60.3754 145.934 61.786 140.535 65.1322 136.374C67.394 133.561 70.4198 131.466 73.8434 130.342L78.7916 128.718L78.1544 128.928M78.1544 128.928C80.9244 130.458 81.2052 134.343 78.6844 136.26L78.4271 136.455L74.9878 138.764L82.8442 136.269C85.5038 135.423 88.3336 136.949 89.0992 139.64L92.2349 150.664L92.135 143.415C92.0895 140.108 95.2183 137.681 98.3974 138.557L108.396 141.314L99.6507 135.293C97.1187 133.55 96.763 129.939 98.9061 127.731L102.232 124.307C103.489 123.013 103.387 120.921 102.011 119.756C100.465 118.447 98.1044 118.949 97.2199 120.774L94.3053 126.788C93.4324 128.589 91.5666 129.687 89.5735 129.575L78.1544 128.928Z" stroke="#282828" stroke-width="4"/>
<path d="M206.104 113.855L204 105.508L204.373 103.658C204.534 102.858 205.008 102.156 205.69 101.704L208.423 99.8971C212.117 97.4544 216.181 95.6193 220.46 94.4617C225.28 93.1579 230.298 92.7343 235.269 93.2115L235.928 93.2747C243.28 93.9804 250.344 96.4778 256.496 100.547L257.43 101.163C258.03 101.561 258.427 102.198 258.516 102.91L259 106.748L257.458 113.887C257.241 114.889 256.72 115.801 255.964 116.496L240.15 131.062C239.802 131.382 239.409 131.652 238.984 131.863L237.396 132.65C235.698 133.493 234.625 135.219 234.625 137.109V160.062V162.221C234.625 163.767 233.366 165.021 231.812 165.021C230.259 165.021 229 163.767 229 162.221V160.062V135.497C229 133.859 227.998 132.387 226.471 131.782C226.076 131.625 225.709 131.407 225.383 131.136L207.748 116.466C206.937 115.791 206.361 114.877 206.104 113.855Z" fill="white"/>
<path d="M204 105.508L206.104 113.855C206.361 114.877 206.937 115.791 207.748 116.466L225.383 131.136C225.709 131.407 226.076 131.625 226.471 131.782C227.998 132.387 229 133.859 229 135.497V160.062V162.221C229 163.767 230.259 165.021 231.812 165.021C233.366 165.021 234.625 163.767 234.625 162.221V160.062V137.109C234.625 135.219 235.698 133.493 237.396 132.65L238.984 131.863C239.409 131.652 239.802 131.382 240.15 131.062L255.964 116.496C256.72 115.801 257.241 114.889 257.458 113.887L259 106.748M204 105.508L207.194 107.663C215.268 113.108 224.883 115.83 234.625 115.427L238.105 114.996C245.66 114.059 252.851 111.221 259 106.748M204 105.508L204.373 103.658C204.534 102.858 205.008 102.156 205.69 101.704L208.423 99.8971C212.117 97.4544 216.181 95.6193 220.46 94.4617C225.28 93.1579 230.298 92.7343 235.269 93.2115L235.928 93.2747C243.28 93.9804 250.344 96.4778 256.496 100.547L257.43 101.163C258.03 101.561 258.427 102.198 258.516 102.91L259 106.748" stroke="#282828" stroke-width="4"/>
<path d="M212.741 103.41L211.712 103.771C207.815 105.142 206 109.045 206 113.164C206 113.666 219.098 124.711 219.602 125.213C219.852 125.462 222.695 127.524 225.66 129.653C228.827 131.928 232.873 132.604 236.618 131.507C238.353 130.999 239.958 130.128 241.326 128.951C246.502 124.497 254.163 117.881 254.867 117.18C255.374 116.674 256.175 113.484 256.867 110.273C257.504 107.313 255.801 104.374 252.946 103.34C252.548 103.195 252.137 103.092 251.718 103.031L243.371 101.813C235.632 100.685 227.765 100.763 220.05 102.044L214.41 102.981C213.842 103.076 213.284 103.219 212.741 103.41Z" fill="#EE693F"/>
<path d="M204 105.508L206.104 113.855C206.361 114.877 206.937 115.791 207.748 116.466L225.383 131.136C225.709 131.407 226.076 131.625 226.471 131.782C227.998 132.387 229 133.859 229 135.497V160.062V162.221C229 163.767 230.259 165.021 231.812 165.021C233.366 165.021 234.625 163.767 234.625 162.221V160.062V137.109C234.625 135.219 235.698 133.493 237.396 132.65L238.984 131.863C239.409 131.652 239.802 131.382 240.15 131.062L255.964 116.496C256.72 115.801 257.241 114.889 257.458 113.887L259 106.748M204 105.508L207.194 107.663C215.268 113.108 224.883 115.83 234.625 115.427L238.105 114.996C245.66 114.059 252.851 111.221 259 106.748M204 105.508L204.373 103.658C204.534 102.858 205.008 102.156 205.69 101.704L208.423 99.8971C212.117 97.4544 216.181 95.6193 220.46 94.4617C225.28 93.1579 230.298 92.7343 235.269 93.2115L235.928 93.2747C243.28 93.9804 250.344 96.4778 256.496 100.547L257.43 101.163C258.03 101.561 258.427 102.198 258.516 102.91L259 106.748" stroke="#282828" stroke-width="4"/>
<path d="M110 48.0215L117 51.0215" stroke="#02C69E" stroke-width="4"/>
<path d="M75 72.0215L82 75.0215" stroke="#02C69E" stroke-width="4"/>
<path d="M63 61.0215L70 64.0215" stroke="#02C69E" stroke-width="4"/>
<path d="M198 47.0215L205 50.0215" stroke="#02C69E" stroke-width="4"/>
<path d="M197 60.0215L204 63.0215" stroke="#02C69E" stroke-width="4"/>
</g>
<defs>
<clipPath id="clip0_346_257">
<rect width="265" height="177" fill="white" transform="translate(0 0.0214844)"/>
</clipPath>
</defs>
</svg>
