<svg width="280" height="157" viewBox="0 0 280 157" fill="none" xmlns="http://www.w3.org/2000/svg">
<path d="M2.15699 152.995C1.33312 152.909 0.594943 153.506 0.508238 154.33C0.421534 155.154 1.01913 155.892 1.84301 155.979L2.15699 152.995ZM100.35 109.95L99.0187 109.259L100.35 109.95ZM278.553 15.764C279.323 15.4588 279.7 14.5871 279.395 13.8169L274.422 1.26615C274.117 0.495971 273.245 0.118997 272.475 0.424153C271.704 0.729308 271.328 1.60104 271.633 2.37121L276.053 13.5274L264.897 17.9477C264.127 18.2529 263.75 19.1246 264.055 19.8948C264.36 20.6649 265.232 21.0419 266.002 20.7368L278.553 15.764ZM1.84301 155.979C2.76366 156.076 3.72579 156.161 4.72603 156.233L4.94091 153.24C3.97232 153.171 3.04326 153.089 2.15699 152.995L1.84301 155.979ZM10.5139 156.484C12.3603 156.514 14.2943 156.503 16.3014 156.441L16.2095 153.442C14.2494 153.503 12.3628 153.514 10.5641 153.484L10.5139 156.484ZM22.0783 156.135C23.9552 155.995 25.8788 155.811 27.8392 155.579L27.4864 152.599C25.5696 152.826 23.689 153.006 21.8542 153.144L22.0783 156.135ZM33.5551 154.777C35.4293 154.472 37.3272 154.122 39.2409 153.723L38.6287 150.786C36.7599 151.176 34.9056 151.518 33.0739 151.815L33.5551 154.777ZM44.8777 152.413C46.7279 151.937 48.5857 151.413 50.444 150.837L49.5563 147.971C47.7461 148.532 45.9352 149.043 44.1304 149.507L44.8777 152.413ZM55.9346 148.981C57.7366 148.32 59.5329 147.606 61.317 146.837L60.1297 144.082C58.3979 144.828 56.6527 145.522 54.9003 146.165L55.9346 148.981ZM66.5791 144.386C68.3004 143.521 70.004 142.6 71.6836 141.62L70.1718 139.029C68.5481 139.976 66.8997 140.867 65.2323 141.705L66.5791 144.386ZM76.6076 138.525C78.2057 137.444 79.7747 136.303 81.3089 135.099L79.4571 132.739C77.9801 133.898 76.4681 134.997 74.9266 136.04L76.6076 138.525ZM85.7571 131.337C87.1823 130.038 88.5685 128.676 89.9101 127.25L87.7247 125.194C86.4369 126.564 85.1056 127.872 83.7358 129.121L85.7571 131.337ZM93.734 122.85C94.9392 121.347 96.0975 119.782 97.2041 118.153L94.7223 116.468C93.6609 118.031 92.5499 119.531 91.3939 120.973L93.734 122.85ZM100.282 113.212C100.762 112.37 101.228 111.513 101.681 110.641L99.0187 109.259C98.5837 110.096 98.1358 110.919 97.6756 111.727L100.282 113.212ZM101.681 110.641C102.131 109.775 102.589 108.891 103.054 107.992L100.39 106.613C99.9244 107.512 99.4675 108.394 99.0187 109.259L101.681 110.641ZM105.836 102.624C106.741 100.883 107.674 99.0983 108.636 97.2755L105.984 95.8742C105.017 97.7045 104.081 99.4957 103.174 101.24L105.836 102.624ZM111.477 91.9591C112.416 90.2238 113.381 88.463 114.374 86.6825L111.754 85.2213C110.754 87.0142 109.783 88.7863 108.838 90.5315L111.477 91.9591ZM117.343 81.4523C118.334 79.7372 119.351 78.0098 120.394 76.2751L117.824 74.7286C116.77 76.4795 115.744 78.2221 114.745 79.9512L117.343 81.4523ZM123.541 71.1583C124.598 69.4764 125.682 67.7923 126.792 66.1105L124.288 64.4579C123.165 66.1591 122.07 67.8618 121.001 69.5612L123.541 71.1583ZM130.158 61.1413C131.295 59.5068 132.458 57.8789 133.648 56.2616L131.232 54.4836C130.025 56.1234 128.846 57.7731 127.695 59.4283L130.158 61.1413ZM137.27 51.4837C138.498 49.9137 139.752 48.3583 141.034 46.8213L138.73 44.8996C137.427 46.462 136.153 48.0422 134.907 49.6361L137.27 51.4837ZM144.947 42.2894C146.275 40.8043 147.631 39.3415 149.016 37.9047L146.857 35.8226C145.445 37.2873 144.063 38.7777 142.711 40.2895L144.947 42.2894ZM153.249 33.6861C154.688 32.3103 156.155 30.9644 157.653 29.6522L155.675 27.3959C154.144 28.738 152.644 30.1134 151.176 31.5182L153.249 33.6861ZM162.23 25.8251C163.784 24.5875 165.368 23.3872 166.983 22.228L165.235 19.7906C163.577 20.98 161.952 22.2107 160.361 23.4785L162.23 25.8251ZM171.913 18.8851C173.582 17.818 175.282 16.7951 177.015 15.8202L175.544 13.2056C173.76 14.209 172.012 15.261 170.297 16.3577L171.913 18.8851ZM182.284 13.0566C184.059 12.1919 185.867 11.3773 187.708 10.6167L186.562 7.844C184.663 8.62864 182.799 9.46843 180.97 10.3596L182.284 13.0566ZM193.263 8.52306C195.121 7.88882 197.012 7.30892 198.937 6.7867L198.151 3.89143C196.164 4.43057 194.212 5.0292 192.294 5.68382L193.263 8.52306ZM204.711 5.41631C206.632 5.02493 208.584 4.69023 210.569 4.41526L210.157 1.44364C208.11 1.72733 206.095 2.07272 204.112 2.47673L204.711 5.41631ZM216.495 3.78213C218.441 3.63485 220.417 3.54411 222.424 3.51256L222.377 0.512932C220.311 0.545416 218.275 0.638864 216.268 0.790681L216.495 3.78213ZM228.355 3.59035C230.307 3.67142 232.288 3.80761 234.298 4.00118L234.585 1.015C232.522 0.816262 230.487 0.676288 228.479 0.592929L228.355 3.59035ZM240.253 4.73252C242.171 5.01803 244.113 5.35492 246.082 5.74501L246.665 2.80225C244.65 2.40301 242.661 2.0579 240.695 1.76523L240.253 4.73252ZM251.906 7.038C253.82 7.50793 255.757 8.02732 257.719 8.59774L258.556 5.71712C256.555 5.1351 254.577 4.60472 252.621 4.12451L251.906 7.038ZM263.37 10.3623C265.239 10.9853 267.129 11.6539 269.039 12.3693L270.091 9.55982C268.147 8.83184 266.223 8.15104 264.319 7.51624L263.37 10.3623ZM274.587 14.5548C275.521 14.9409 276.461 15.338 277.405 15.7462L278.595 12.9926C277.637 12.578 276.682 12.1745 275.733 11.7822L274.587 14.5548Z" fill="#EE693F"/>
</svg>
