<svg viewBox="0 0 90 256" fill="none" xmlns="http://www.w3.org/2000/svg">
    <path d="M89.1224 1.48478C89.3902 1.41716 89.5524 1.14531 89.4848 0.877571C89.4172 0.609835 89.1453 0.447605 88.8776 0.515221L89.1224 1.48478ZM1.31562 115.599L1.81432 115.563L1.31562 115.599ZM43.0701 158.354L42.6758 158.661L43.0701 158.354ZM67.0602 254.483C67.3268 254.411 67.4846 254.136 67.4126 253.87L66.2393 249.525C66.1673 249.259 65.8928 249.101 65.6262 249.173C65.3596 249.245 65.2019 249.519 65.2739 249.786L66.3168 253.648L62.4551 254.691C62.1885 254.763 62.0308 255.037 62.1028 255.304C62.1748 255.57 62.4493 255.728 62.7158 255.656L67.0602 254.483ZM66.2841 253.041C66.0473 252.899 65.7402 252.976 65.5981 253.213C65.4561 253.449 65.5329 253.757 65.7697 253.899L66.2841 253.041ZM64.0413 252.816C64.2723 252.967 64.5822 252.903 64.7335 252.672C64.8848 252.44 64.8201 252.131 64.5891 251.979L64.0413 252.816ZM62.9399 250.848C62.7158 250.686 62.4034 250.737 62.242 250.961C62.0806 251.185 62.1315 251.498 62.3556 251.659L62.9399 250.848ZM60.7351 250.431C60.951 250.604 61.2656 250.568 61.4378 250.352C61.6101 250.137 61.5748 249.822 61.359 249.65L60.7351 250.431ZM59.8255 248.355C59.6198 248.17 59.3037 248.188 59.1195 248.394C58.9353 248.599 58.9528 248.915 59.1585 249.1L59.8255 248.355ZM57.6915 247.704C57.8855 247.9 58.2021 247.902 58.3986 247.709C58.5952 247.515 58.5972 247.198 58.4033 247.001L57.6915 247.704ZM57.0458 245.528C56.8661 245.318 56.5505 245.294 56.3408 245.474C56.1312 245.653 56.1069 245.969 56.2867 246.179L57.0458 245.528ZM55.0069 244.568C55.1702 244.79 55.4831 244.838 55.7058 244.675C55.9285 244.512 55.9766 244.199 55.8132 243.976L55.0069 244.568ZM54.7142 242.345C54.5694 242.11 54.2614 242.037 54.0262 242.181C53.7911 242.326 53.7179 242.634 53.8628 242.869L54.7142 242.345ZM52.8538 241.065C52.9781 241.311 53.2788 241.41 53.5254 241.286C53.7719 241.162 53.871 240.861 53.7467 240.614L52.8538 241.065ZM52.9326 238.811C52.8299 238.555 52.5389 238.43 52.2826 238.533C52.0262 238.635 51.9017 238.926 52.0043 239.183L52.9326 238.811ZM51.3201 237.241C51.4009 237.505 51.6805 237.653 51.9446 237.573C52.2086 237.492 52.3572 237.212 52.2764 236.948L51.3201 237.241ZM51.7739 235.034C51.7144 234.764 51.4476 234.594 51.1779 234.653C50.9083 234.713 50.7379 234.98 50.7974 235.249L51.7739 235.034ZM50.4289 233.225C50.4685 233.498 50.7222 233.687 50.9955 233.648C51.2688 233.608 51.4582 233.354 51.4185 233.081L50.4289 233.225ZM51.1989 231.107C51.1772 230.832 50.9364 230.627 50.6611 230.648C50.3858 230.67 50.1803 230.911 50.2021 231.186L51.1989 231.107ZM50.1 229.14C50.1062 229.416 50.3349 229.635 50.611 229.629C50.8871 229.623 51.1059 229.394 51.0998 229.118L50.1 229.14ZM51.1054 227.118C51.1126 226.842 50.8947 226.612 50.6187 226.605C50.3426 226.597 50.113 226.815 50.1057 227.091L51.1054 227.118ZM50.2018 225.053C50.1834 225.328 50.3919 225.566 50.6674 225.585C50.9429 225.603 51.1812 225.395 51.1996 225.119L50.2018 225.053ZM51.3666 223.125C51.394 222.85 51.1935 222.605 50.9187 222.578C50.6439 222.55 50.3989 222.751 50.3715 223.026L51.3666 223.125ZM50.6011 221.002C50.5665 221.276 50.7606 221.527 51.0346 221.561C51.3085 221.596 51.5587 221.402 51.5932 221.128L50.6011 221.002ZM51.8666 219.129C51.9066 218.856 51.7176 218.602 51.4444 218.562C51.1711 218.522 50.9172 218.711 50.8772 218.984L51.8666 219.129ZM51.1854 216.985C51.1415 217.258 51.3269 217.514 51.5995 217.558C51.8722 217.602 52.1288 217.417 52.1727 217.144L51.1854 216.985ZM52.5036 215.154C52.5501 214.882 52.3671 214.623 52.0949 214.577C51.8227 214.53 51.5643 214.713 51.5179 214.986L52.5036 215.154ZM51.8648 212.985C51.817 213.257 51.9989 213.516 52.2709 213.564C52.5428 213.612 52.802 213.43 52.8497 213.158L51.8648 212.985ZM53.199 211.173C53.2468 210.901 53.065 210.642 52.7931 210.594C52.5211 210.546 52.2619 210.728 52.2141 211L53.199 211.173ZM52.5609 209.009C52.5141 209.281 52.6967 209.54 52.9689 209.587C53.241 209.633 53.4996 209.451 53.5464 209.179L52.5609 209.009ZM53.8835 207.178C53.9283 206.905 53.7437 206.648 53.4712 206.603C53.1988 206.558 52.9416 206.743 52.8968 207.015L53.8835 207.178ZM53.2128 205.028C53.171 205.301 53.3584 205.556 53.6314 205.598C53.9043 205.64 54.1595 205.453 54.2013 205.18L53.2128 205.028ZM54.4948 203.17C54.5327 202.897 54.3417 202.644 54.0681 202.606C53.7946 202.569 53.5422 202.76 53.5043 203.033L54.4948 203.17ZM53.7634 201.036C53.7304 201.311 53.9258 201.56 54.2 201.593C54.4741 201.626 54.7232 201.43 54.7562 201.156L53.7634 201.036ZM54.9788 199.139C55.0062 198.864 54.8056 198.619 54.5308 198.592C54.256 198.564 54.0111 198.765 53.9837 199.039L54.9788 199.139ZM54.1599 197.034C54.1391 197.309 54.3454 197.549 54.6208 197.57C54.8961 197.591 55.1362 197.385 55.1571 197.109L54.1599 197.034ZM55.284 195.081C55.2975 194.806 55.0849 194.571 54.809 194.558C54.5332 194.544 54.2987 194.757 54.2852 195.033L55.284 195.081ZM54.3546 193.027C54.3491 193.303 54.5685 193.531 54.8446 193.537C55.1207 193.542 55.3489 193.323 55.3544 193.047L54.3546 193.027ZM55.3627 191.006C55.3594 190.73 55.1329 190.509 54.8567 190.512C54.5806 190.516 54.3595 190.742 54.3628 191.018L55.3627 191.006ZM54.3052 189.02C54.3179 189.295 54.5518 189.509 54.8277 189.496C55.1035 189.483 55.3169 189.25 55.3042 188.974L54.3052 189.02ZM55.1738 186.934C55.1512 186.658 54.9098 186.454 54.6346 186.476C54.3594 186.499 54.1546 186.74 54.1772 187.016L55.1738 186.934ZM53.9764 185.028C54.0094 185.302 54.2583 185.498 54.5325 185.465C54.8067 185.432 55.0022 185.183 54.9693 184.909L53.9764 185.028ZM54.6863 182.887C54.6426 182.615 54.3862 182.429 54.1135 182.473C53.8409 182.516 53.6552 182.773 53.6989 183.045L54.6863 182.887ZM53.3427 181.074C53.3972 181.345 53.6609 181.52 53.9316 181.465C54.2023 181.411 54.3775 181.147 54.3229 180.876L53.3427 181.074ZM53.8802 178.89C53.8147 178.621 53.5441 178.457 53.2758 178.522C53.0076 178.588 52.8433 178.859 52.9088 179.127L53.8802 178.89ZM52.3913 177.184C52.4679 177.449 52.745 177.602 53.0103 177.525C53.2756 177.449 53.4286 177.172 53.3521 176.906L52.3913 177.184ZM52.7501 174.97C52.6628 174.708 52.3796 174.566 52.1177 174.653C51.8557 174.741 51.7141 175.024 51.8014 175.286L52.7501 174.97ZM51.1236 173.384C51.2216 173.642 51.5103 173.772 51.7685 173.674C52.0266 173.576 52.1565 173.287 52.0585 173.029L51.1236 173.384ZM51.3046 171.155C51.1964 170.901 50.9028 170.783 50.6487 170.891C50.3946 170.999 50.2763 171.293 50.3844 171.547L51.3046 171.155ZM49.5556 169.701C49.6736 169.951 49.9717 170.058 50.2213 169.94C50.471 169.822 50.5776 169.524 50.4596 169.274L49.5556 169.701ZM49.5639 167.469C49.4365 167.223 49.1347 167.128 48.8896 167.255C48.6446 167.383 48.5492 167.685 48.6765 167.93L49.5639 167.469ZM47.7073 166.146C47.8436 166.386 48.1488 166.471 48.389 166.334C48.6291 166.198 48.7133 165.893 48.577 165.653L47.7073 166.146ZM47.5553 163.923C47.4108 163.688 47.1029 163.614 46.8676 163.759C46.6323 163.904 46.5587 164.211 46.7032 164.447L47.5553 163.923ZM45.6134 162.739C45.7658 162.969 46.0761 163.032 46.3063 162.88C46.5366 162.727 46.5997 162.417 46.4472 162.187L45.6134 162.739ZM45.3083 160.525C45.1487 160.299 44.8366 160.246 44.6113 160.406C44.386 160.565 44.3328 160.877 44.4924 161.103L45.3083 160.525ZM43.3023 159.477C43.4688 159.698 43.7824 159.741 44.0027 159.575C44.223 159.408 44.2666 159.095 44.1002 158.874L43.3023 159.477ZM42.8105 157.274C42.6243 157.07 42.308 157.056 42.1041 157.242C41.9003 157.428 41.886 157.744 42.0723 157.948L42.8105 157.274ZM40.708 156.632C40.9171 156.813 41.2328 156.79 41.4132 156.581C41.5937 156.371 41.5705 156.056 41.3615 155.875L40.708 156.632ZM39.7967 154.637C39.5739 154.474 39.261 154.523 39.098 154.745C38.9349 154.968 38.9833 155.281 39.2062 155.444L39.7967 154.637ZM37.6116 154.347C37.843 154.498 38.1528 154.432 38.3034 154.201C38.454 153.97 38.3885 153.66 38.1571 153.509L37.6116 154.347ZM36.4817 152.465C36.2449 152.323 35.9378 152.4 35.7958 152.637C35.6538 152.874 35.7307 153.181 35.9675 153.323L36.4817 152.465ZM34.2887 152.346C34.5289 152.482 34.8341 152.398 34.9703 152.158C35.1065 151.917 35.0222 151.612 34.782 151.476L34.2887 152.346ZM33.0658 150.521C32.8236 150.389 32.5197 150.477 32.3871 150.72C32.2544 150.962 32.3432 151.266 32.5854 151.398L33.0658 150.521ZM30.8679 150.467C31.1111 150.598 31.4143 150.507 31.5451 150.264C31.676 150.021 31.5849 149.717 31.3418 149.587L30.8679 150.467ZM29.6164 148.66C29.373 148.53 29.0699 148.621 28.9394 148.865C28.8088 149.108 28.9002 149.411 29.1436 149.542L29.6164 148.66ZM27.4183 148.612C27.6611 148.744 27.9645 148.654 28.0961 148.411C28.2276 148.168 28.1374 147.865 27.8946 147.733L27.4183 148.612ZM26.1809 146.796C25.9392 146.662 25.635 146.75 25.5014 146.991C25.3677 147.233 25.4553 147.537 25.6969 147.671L26.1809 146.796ZM23.9841 146.71C24.224 146.847 24.5293 146.763 24.6661 146.523C24.8028 146.283 24.7192 145.978 24.4793 145.841L23.9841 146.71ZM22.7941 144.862C22.5566 144.721 22.2499 144.8 22.109 145.037C21.9682 145.275 22.0466 145.581 22.2841 145.722L22.7941 144.862ZM20.6016 144.702C20.8362 144.847 21.1445 144.775 21.2902 144.541C21.436 144.306 21.3641 143.998 21.1295 143.852L20.6016 144.702ZM19.4903 142.806C19.2595 142.654 18.9495 142.718 18.7979 142.949C18.6464 143.18 18.7106 143.49 18.9414 143.641L19.4903 142.806ZM17.3087 142.536C17.5351 142.694 17.8468 142.639 18.005 142.412C18.1632 142.186 18.108 141.874 17.8816 141.716L17.3087 142.536ZM16.3091 140.579C16.0881 140.413 15.7747 140.458 15.6091 140.679C15.4436 140.9 15.4885 141.214 15.7095 141.379L16.3091 140.579ZM14.1502 140.166C14.3649 140.34 14.6798 140.306 14.8534 140.092C15.0271 139.877 14.9938 139.562 14.779 139.389L14.1502 140.166ZM13.2984 138.141C13.091 137.958 12.7751 137.979 12.5928 138.186C12.4104 138.393 12.4307 138.709 12.6381 138.892L13.2984 138.141ZM11.181 137.552C11.3799 137.743 11.6965 137.737 11.888 137.538C12.0796 137.339 12.0736 137.023 11.8748 136.831L11.181 137.552ZM10.5162 135.457C10.327 135.256 10.0105 135.247 9.80938 135.436C9.60822 135.625 9.59851 135.941 9.78769 136.143L10.5162 135.457ZM8.46716 134.662C8.64535 134.873 8.96082 134.9 9.17177 134.721C9.38272 134.543 9.40928 134.228 9.23108 134.017L8.46716 134.662ZM8.0286 132.509C7.86267 132.289 7.54922 132.244 7.32849 132.41C7.10777 132.576 7.06335 132.889 7.22928 133.11L8.0286 132.509ZM6.08358 131.488C6.23604 131.718 6.54628 131.781 6.77652 131.629C7.00676 131.477 7.0698 131.166 6.91734 130.936L6.08358 131.488ZM5.90474 129.3C5.76683 129.06 5.46108 128.978 5.22185 129.116C4.98261 129.254 4.90048 129.56 5.0384 129.799L5.90474 129.3ZM4.10105 128.047C4.22354 128.295 4.52347 128.396 4.77096 128.274C5.01845 128.151 5.11977 127.851 4.99728 127.604L4.10105 128.047ZM4.19972 125.854C4.09327 125.599 3.80041 125.479 3.54561 125.585C3.29082 125.692 3.17056 125.985 3.27701 126.24L4.19972 125.854ZM2.5696 124.383C2.65969 124.644 2.94433 124.782 3.20536 124.692C3.4664 124.602 3.60497 124.317 3.51488 124.056L2.5696 124.383ZM2.94353 122.217C2.86982 121.95 2.59434 121.794 2.32821 121.868C2.06209 121.942 1.9061 122.217 1.97981 122.483L2.94353 122.217ZM1.50658 120.549C1.56414 120.819 1.82974 120.991 2.09982 120.934C2.3699 120.876 2.54218 120.61 2.48462 120.34L1.50658 120.549ZM2.1379 118.446C2.09591 118.173 1.84062 117.986 1.56769 118.028C1.29476 118.07 1.10754 118.325 1.14952 118.598L2.1379 118.446ZM0.90255 116.638C0.929699 116.912 1.17448 117.113 1.44929 117.086C1.72409 117.059 1.92485 116.814 1.8977 116.539L0.90255 116.638ZM1.74514 114.548C1.7275 114.272 1.4898 114.063 1.21423 114.081C0.938648 114.098 0.729543 114.336 0.747177 114.612L1.74514 114.548ZM0.633989 112.58C0.647056 112.856 0.881255 113.069 1.15709 113.056C1.43292 113.042 1.64594 112.808 1.63287 112.532L0.633989 112.58ZM1.555 110.537C1.54654 110.261 1.31593 110.044 1.03991 110.053C0.7639 110.061 0.547005 110.292 0.555465 110.568L1.555 110.537ZM0.510964 108.565C0.514755 108.841 0.741664 109.061 1.01778 109.058C1.2939 109.054 1.51466 108.827 1.51087 108.551L0.510964 108.565ZM1.50077 106.527C1.50182 106.251 1.27882 106.026 1.00268 106.025C0.726538 106.024 0.501831 106.247 0.500782 106.523L1.50077 106.527ZM0.526218 104.504C0.520299 104.78 0.739307 105.008 1.01539 105.014C1.29146 105.02 1.52007 104.801 1.52599 104.525L0.526218 104.504ZM1.58597 102.545C1.59679 102.269 1.38187 102.036 1.10594 102.026C0.830008 102.015 0.597555 102.23 0.586741 102.506L1.58597 102.545ZM0.68537 100.467C0.669484 100.743 0.880093 100.979 1.15578 100.995C1.43146 101.011 1.66783 100.8 1.68371 100.525L0.68537 100.467ZM1.81753 98.5239C1.83851 98.2485 1.63231 98.0083 1.35697 97.9873C1.08163 97.9663 0.841405 98.1725 0.820422 98.4479L1.81753 98.5239ZM0.991185 96.4515C0.965091 96.7264 1.16679 96.9704 1.4417 96.9965C1.71661 97.0226 1.96062 96.8209 1.98671 96.546L0.991185 96.4515ZM2.19632 94.5411C2.22767 94.2667 2.03067 94.0189 1.75631 93.9875C1.48195 93.9562 1.23413 94.1532 1.20279 94.4276L2.19632 94.5411ZM1.45198 92.4177C1.41536 92.6914 1.60756 92.943 1.88126 92.9796C2.15496 93.0163 2.40653 92.8241 2.44315 92.5504L1.45198 92.4177ZM2.72562 90.5835C2.76752 90.3106 2.58022 90.0553 2.30727 90.0135C2.03433 89.9715 1.7791 90.1589 1.7372 90.4318L2.72562 90.5835ZM2.06548 88.4254C2.0182 88.6974 2.20042 88.9563 2.47248 89.0036C2.74455 89.0509 3.00343 88.8687 3.05071 88.5966L2.06548 88.4254ZM3.41363 86.6246C3.46632 86.3535 3.28928 86.0911 3.01821 86.0384C2.74714 85.9857 2.48468 86.1628 2.432 86.4338L3.41363 86.6246ZM2.8345 84.4673C2.77644 84.7373 2.94822 85.0032 3.21819 85.0613C3.48816 85.1193 3.75408 84.9475 3.81214 84.6776L2.8345 84.4673ZM4.25552 82.7131C4.31905 82.4444 4.1527 82.175 3.88396 82.1115C3.61523 82.048 3.34587 82.2143 3.28234 82.4831L4.25552 82.7131ZM3.76783 80.5188C3.69885 80.7861 3.85969 81.0588 4.12708 81.1278C4.39446 81.1968 4.66714 81.036 4.73613 80.7686L3.76783 80.5188ZM5.25202 78.8495C5.32641 78.5836 5.17114 78.3077 4.90521 78.2333C4.63927 78.1589 4.36338 78.3142 4.28899 78.5801L5.25202 78.8495ZM4.85789 76.6247C4.77801 76.889 4.92754 77.168 5.19188 77.2479C5.45622 77.3278 5.73526 77.1783 5.81514 76.9139L4.85789 76.6247ZM6.41348 75.0052C6.49879 74.7425 6.35504 74.4605 6.09241 74.3751C5.82978 74.2898 5.54771 74.4336 5.4624 74.6962L6.41348 75.0052ZM6.10442 72.7869C6.01371 73.0477 6.15162 73.3327 6.41244 73.4234C6.67326 73.5141 6.95823 73.3762 7.04893 73.1153L6.10442 72.7869ZM7.72933 71.2226C7.82545 70.9637 7.6935 70.6759 7.43463 70.5798C7.17575 70.4837 6.88797 70.6156 6.79186 70.8745L7.72933 71.2226ZM7.51381 68.99C7.41236 69.2468 7.53832 69.5373 7.79516 69.6387C8.05199 69.7402 8.34243 69.6142 8.44388 69.3574L7.51381 68.99ZM9.19805 67.5045C9.3048 67.2499 9.18488 66.9569 8.93021 66.8501C8.67553 66.7434 8.38254 66.8633 8.27579 67.118L9.19805 67.5045ZM9.07903 65.2561C8.96702 65.5085 9.08083 65.8039 9.33323 65.916C9.58563 66.028 9.88105 65.9142 9.99307 65.6618L9.07903 65.2561ZM10.8208 63.8472C10.938 63.5971 10.8303 63.2994 10.5803 63.1823C10.3302 63.0651 10.0325 63.1728 9.91534 63.4228L10.8208 63.8472ZM10.7946 61.596C10.6723 61.8436 10.7738 62.1434 11.0214 62.2658C11.269 62.3881 11.5688 62.2866 11.6912 62.039L10.7946 61.596ZM12.5968 60.2526C12.7242 60.0075 12.6288 59.7057 12.3838 59.5783C12.1388 59.4509 11.8369 59.5463 11.7095 59.7913L12.5968 60.2526ZM12.6571 58.0131C12.5248 58.2554 12.614 58.5592 12.8564 58.6915C13.0987 58.8239 13.4025 58.7347 13.5348 58.4923L12.6571 58.0131ZM14.5159 56.7383C14.6532 56.4987 14.5702 56.1931 14.3305 56.0559C14.0909 55.9187 13.7854 56.0016 13.6482 56.2413L14.5159 56.7383ZM14.6694 54.4992C14.5274 54.736 14.6042 55.0431 14.841 55.1852C15.0778 55.3272 15.3849 55.2504 15.527 55.0136L14.6694 54.4992ZM16.5738 53.3073C16.7205 53.0734 16.6499 52.7648 16.4159 52.6181C16.182 52.4713 15.8734 52.542 15.7267 52.7759L16.5738 53.3073ZM16.82 51.071C16.6686 51.302 16.7332 51.6119 16.9641 51.7633C17.1951 51.9147 17.505 51.8501 17.6564 51.6192L16.82 51.071ZM18.7668 49.9607C18.9226 49.7328 18.8642 49.4216 18.6362 49.2658C18.4083 49.1099 18.0972 49.1683 17.9413 49.3963L18.7668 49.9607ZM19.1022 47.7336C18.942 47.9585 18.9943 48.2707 19.2192 48.431C19.444 48.5913 19.7562 48.5389 19.9165 48.3141L19.1022 47.7336ZM21.0941 46.6955C21.2587 46.4738 21.2123 46.1606 20.9906 45.996C20.7689 45.8314 20.4557 45.8777 20.2911 46.0994L21.0941 46.6955ZM21.5103 44.4894C21.3415 44.7079 21.3819 45.0219 21.6004 45.1907C21.819 45.3595 22.133 45.3192 22.3018 45.1006L21.5103 44.4894ZM23.5433 43.5241C23.7162 43.3088 23.6818 42.9941 23.4665 42.8212C23.2511 42.6483 22.9364 42.6827 22.7635 42.898L23.5433 43.5241ZM24.0406 41.3375C23.8637 41.5496 23.8923 41.8649 24.1043 42.0418C24.3164 42.2186 24.6317 42.1901 24.8086 41.978L24.0406 41.3375ZM26.1085 40.4482C26.2893 40.2395 26.2665 39.9237 26.0578 39.7429C25.849 39.5622 25.5332 39.5849 25.3525 39.7937L26.1085 40.4482ZM26.689 38.278C26.5045 38.4835 26.5215 38.7996 26.727 38.9841C26.9324 39.1686 27.2485 39.1517 27.433 38.9462L26.689 38.278ZM28.7835 37.4695C28.9716 37.2673 28.9603 36.951 28.7582 36.7628C28.5561 36.5746 28.2397 36.5859 28.0516 36.788L28.7835 37.4695ZM29.4446 35.3182C29.2529 35.517 29.2586 35.8335 29.4573 36.0252C29.656 36.217 29.9726 36.2113 30.1643 36.0126L29.4446 35.3182ZM31.5641 34.5868C31.7593 34.3914 31.7591 34.0748 31.5638 33.8797C31.3684 33.6845 31.0518 33.6846 30.8567 33.88L31.5641 34.5868ZM32.3011 32.459C32.1026 32.651 32.0973 32.9675 32.2892 33.1661C32.4812 33.3646 32.7977 33.3699 32.9962 33.178L32.3011 32.459ZM34.4476 31.7984C34.6494 31.6098 34.6601 31.2934 34.4716 31.0917C34.2831 30.8899 33.9666 30.8792 33.7649 31.0677L34.4476 31.7984ZM35.2523 29.7011C35.0474 29.8862 35.0313 30.2024 35.2164 30.4073C35.4016 30.6122 35.7177 30.6283 35.9226 30.4431L35.2523 29.7011ZM37.4231 29.1101C37.6311 28.9284 37.6524 28.6125 37.4707 28.4046C37.289 28.1966 36.9732 28.1753 36.7652 28.357L37.4231 29.1101ZM38.292 27.0449C38.0811 27.2232 38.0547 27.5387 38.233 27.7496C38.4112 27.9605 38.7267 27.9869 38.9376 27.8086L38.292 27.0449ZM40.4849 26.5222C40.6986 26.3474 40.7302 26.0324 40.5554 25.8186C40.3806 25.6049 40.0656 25.5733 39.8518 25.7481L40.4849 26.5222ZM41.423 24.4841C41.2065 24.6555 41.1698 24.9699 41.3412 25.1865C41.5126 25.403 41.8271 25.4396 42.0436 25.2682L41.423 24.4841ZM43.6273 24.035C43.8465 23.8671 43.8881 23.5532 43.7202 23.334C43.5522 23.1148 43.2384 23.0732 43.0192 23.2412L43.6273 24.035ZM44.6329 22.0249C44.411 22.1894 44.3646 22.5026 44.5291 22.7244C44.6935 22.9462 45.0067 22.9927 45.2285 22.8282L44.6329 22.0249ZM46.8452 21.6485C47.0695 21.4875 47.1208 21.1751 46.9598 20.9508C46.7988 20.7265 46.4864 20.6752 46.262 20.8362L46.8452 21.6485ZM47.9164 19.6677C47.6896 19.8253 47.6335 20.1368 47.7911 20.3636C47.9487 20.5904 48.2603 20.6465 48.487 20.4889L47.9164 19.6677ZM50.1339 19.3628C50.363 19.2086 50.4238 18.8979 50.2697 18.6688C50.1155 18.4397 49.8048 18.3789 49.5757 18.5331L50.1339 19.3628ZM51.269 17.4124C51.0376 17.5631 50.9721 17.8728 51.1228 18.1042C51.2734 18.3356 51.5832 18.4011 51.8146 18.2504L51.269 17.4124ZM53.4977 17.1724C53.7313 17.0252 53.8013 16.7164 53.6541 16.4828C53.5069 16.2492 53.1982 16.1791 52.9646 16.3263L53.4977 17.1724ZM54.6864 15.2592C54.4506 15.4029 54.376 15.7106 54.5197 15.9464C54.6634 16.1821 54.9711 16.2568 55.2069 16.1131L54.6864 15.2592ZM56.9245 15.0833C57.1624 14.9431 57.2416 14.6366 57.1013 14.3987C56.9611 14.1608 56.6545 14.0816 56.4167 14.2219L56.9245 15.0833ZM58.165 13.2084C57.9251 13.3451 57.8415 13.6504 57.9782 13.8904C58.1149 14.1303 58.4203 14.2139 58.6602 14.0772L58.165 13.2084ZM60.4108 13.0963C60.6527 12.9631 60.7408 12.659 60.6076 12.4171C60.4743 12.1753 60.1703 12.0872 59.9284 12.2204L60.4108 13.0963ZM61.7016 11.2606C61.4578 11.3902 61.3653 11.693 61.495 11.9368C61.6247 12.1806 61.9274 12.2731 62.1712 12.1435L61.7016 11.2606ZM63.9531 11.2124C64.1988 11.0863 64.2958 10.785 64.1697 10.5393C64.0436 10.2936 63.7422 10.1967 63.4965 10.3228L63.9531 11.2124ZM65.2938 9.41691C65.0463 9.53939 64.945 9.83931 65.0674 10.0868C65.1899 10.3343 65.4898 10.4356 65.7373 10.3132L65.2938 9.41691ZM67.5486 9.43341C67.7979 9.3146 67.9037 9.01621 67.7849 8.76693C67.6661 8.51765 67.3677 8.41188 67.1184 8.53068L67.5486 9.43341ZM68.9396 7.67919C68.6886 7.7943 68.5784 8.09109 68.6935 8.3421C68.8086 8.59311 69.1054 8.70328 69.3564 8.58818L68.9396 7.67919ZM71.1947 7.76189C71.4474 7.65059 71.5621 7.35549 71.4508 7.10277C71.3395 6.85005 71.0444 6.73541 70.7917 6.84671L71.1947 7.76189ZM72.6376 6.05033C72.3832 6.15779 72.2641 6.45111 72.3716 6.70549C72.4791 6.95987 72.7724 7.07897 73.0268 6.97151L72.6376 6.05033ZM74.8888 6.2019C75.1448 6.09842 75.2685 5.80698 75.165 5.55096C75.0615 5.29494 74.7701 5.17128 74.5141 5.27476L74.8888 6.2019ZM76.3869 4.53492C76.1292 4.63434 76.001 4.92378 76.1004 5.18141C76.1998 5.43903 76.4893 5.56728 76.7469 5.46786L76.3869 4.53492ZM78.628 4.75948C78.8872 4.66429 79.0201 4.37698 78.925 4.11777C78.8298 3.85855 78.5425 3.72558 78.2832 3.82077L78.628 4.75948ZM80.186 3.14008C79.9252 3.23088 79.7874 3.5159 79.8782 3.77669C79.969 4.03747 80.2541 4.17527 80.5149 4.08447L80.186 3.14008ZM82.4078 3.44377C82.6701 3.35755 82.8129 3.07499 82.7267 2.81265C82.6405 2.55031 82.3579 2.40754 82.0956 2.49376L82.4078 3.44377ZM84.0324 1.87689C83.7685 1.95822 83.6205 2.23808 83.7019 2.50198C83.7832 2.76587 84.0631 2.91386 84.327 2.83253L84.0324 1.87689ZM86.2277 2.26665C86.4931 2.19045 86.6465 1.91351 86.5703 1.64809C86.4941 1.38267 86.2171 1.22927 85.9517 1.30547L86.2277 2.26665ZM87.9195 0.762799C87.6526 0.833343 87.4933 1.10696 87.5639 1.37394C87.6344 1.64092 87.908 1.80016 88.175 1.72962L87.9195 0.762799ZM67.179 253.566C66.8753 253.392 66.5771 253.217 66.2841 253.041L65.7697 253.899C66.0681 254.078 66.3717 254.256 66.6807 254.434L67.179 253.566ZM64.5891 251.979C64.0169 251.605 63.4675 251.227 62.9399 250.848L62.3556 251.659C62.8956 252.048 63.4572 252.434 64.0413 252.816L64.5891 251.979ZM61.359 249.65C60.8222 249.221 60.3113 248.789 59.8255 248.355L59.1585 249.1C59.6589 249.548 60.1841 249.991 60.7351 250.431L61.359 249.65ZM58.4033 247.001C57.9223 246.514 57.4703 246.023 57.0458 245.528L56.2867 246.179C56.7267 246.692 57.1945 247.2 57.6915 247.704L58.4033 247.001ZM55.8132 243.976C55.4177 243.437 55.0519 242.893 54.7142 242.345L53.8628 242.869C54.2148 243.441 54.5956 244.007 55.0069 244.568L55.8132 243.976ZM53.7467 240.614C53.4463 240.019 53.1756 239.418 52.9326 238.811L52.0043 239.183C52.2579 239.816 52.5403 240.443 52.8538 241.065L53.7467 240.614ZM52.2764 236.948C52.0829 236.316 51.9162 235.678 51.7739 235.034L50.7974 235.249C50.9452 235.918 51.1186 236.582 51.3201 237.241L52.2764 236.948ZM51.4185 233.081C51.3239 232.429 51.2514 231.771 51.1989 231.107L50.2021 231.186C50.2562 231.871 50.331 232.55 50.4289 233.225L51.4185 233.081ZM51.0998 229.118C51.0852 228.457 51.0877 227.79 51.1054 227.118L50.1057 227.091C50.0876 227.779 50.085 228.462 50.1 229.14L51.0998 229.118ZM51.1996 225.119C51.2435 224.46 51.2998 223.795 51.3666 223.125L50.3715 223.026C50.3038 223.706 50.2465 224.381 50.2018 225.053L51.1996 225.119ZM51.5932 221.128C51.6766 220.466 51.7683 219.8 51.8666 219.129L50.8772 218.984C50.778 219.661 50.6854 220.334 50.6011 221.002L51.5932 221.128ZM52.1727 217.144C52.2789 216.485 52.3897 215.822 52.5036 215.154L51.5179 214.986C51.4035 215.656 51.2922 216.322 51.1854 216.985L52.1727 217.144ZM52.8497 213.158C52.9651 212.5 53.0818 211.839 53.199 211.173L52.2141 211C52.0972 211.665 51.9801 212.327 51.8648 212.985L52.8497 213.158ZM53.5464 209.179C53.6604 208.516 53.7733 207.849 53.8835 207.178L52.8968 207.015C52.787 207.683 52.6746 208.348 52.5609 209.009L53.5464 209.179ZM54.2013 205.18C54.3033 204.514 54.4016 203.844 54.4948 203.17L53.5043 203.033C53.4118 203.701 53.3142 204.366 53.2128 205.028L54.2013 205.18ZM54.7562 201.156C54.8369 200.487 54.9115 199.815 54.9788 199.139L53.9837 199.039C53.9171 199.708 53.8433 200.374 53.7634 201.036L54.7562 201.156ZM55.1571 197.109C55.208 196.437 55.2506 195.761 55.284 195.081L54.2852 195.033C54.2523 195.703 54.2102 196.37 54.1599 197.034L55.1571 197.109ZM55.3544 193.047C55.3678 192.37 55.3709 191.69 55.3627 191.006L54.3628 191.018C54.3709 191.691 54.3678 192.36 54.3546 193.027L55.3544 193.047ZM55.3042 188.974C55.2731 188.297 55.23 187.617 55.1738 186.934L54.1772 187.016C54.2323 187.686 54.2747 188.354 54.3052 189.02L55.3042 188.974ZM54.9693 184.909C54.8886 184.238 54.7946 183.564 54.6863 182.887L53.6989 183.045C53.8051 183.709 53.8973 184.37 53.9764 185.028L54.9693 184.909ZM54.3229 180.876C54.1899 180.217 54.0427 179.554 53.8802 178.89L52.9088 179.127C53.068 179.778 53.2123 180.427 53.3427 181.074L54.3229 180.876ZM53.3521 176.906C53.1664 176.263 52.966 175.618 52.7501 174.97L51.8014 175.286C52.013 175.921 52.2094 176.553 52.3913 177.184L53.3521 176.906ZM52.0585 173.029C51.8222 172.406 51.5711 171.782 51.3046 171.155L50.3844 171.547C50.6458 172.161 50.892 172.773 51.1236 173.384L52.0585 173.029ZM50.4596 169.274C50.1758 168.674 49.8774 168.072 49.5639 167.469L48.6765 167.93C48.9843 168.522 49.2772 169.113 49.5556 169.701L50.4596 169.274ZM48.577 165.653C48.2507 165.078 47.9103 164.501 47.5553 163.923L46.7032 164.447C47.0522 165.015 47.3868 165.581 47.7073 166.146L48.577 165.653ZM46.4472 162.187C46.0814 161.634 45.7019 161.08 45.3083 160.525L44.4924 161.103C44.8799 161.65 45.2534 162.195 45.6134 162.739L46.4472 162.187ZM44.1002 158.874C43.8918 158.599 43.6799 158.323 43.4645 158.046L42.6758 158.661C42.8882 158.934 43.097 159.206 43.3023 159.477L44.1002 158.874ZM43.4645 158.046C43.2602 157.784 43.0419 157.527 42.8105 157.274L42.0723 157.948C42.2874 158.184 42.4887 158.421 42.6758 158.661L43.4645 158.046ZM41.3615 155.875C40.8739 155.455 40.3507 155.043 39.7967 154.637L39.2062 155.444C39.7421 155.836 40.2439 156.232 40.708 156.632L41.3615 155.875ZM38.1571 153.509C37.6191 153.159 37.0596 152.812 36.4817 152.465L35.9675 153.323C36.5368 153.664 37.0856 154.005 37.6116 154.347L38.1571 153.509ZM34.782 151.476C34.2225 151.159 33.6496 150.841 33.0658 150.521L32.5854 151.398C33.1662 151.716 33.7346 152.032 34.2887 152.346L34.782 151.476ZM31.3418 149.587C30.7743 149.281 30.198 148.973 29.6164 148.66L29.1436 149.542C29.7262 149.854 30.3011 150.162 30.8679 150.467L31.3418 149.587ZM27.8946 147.733C27.3268 147.425 26.7551 147.113 26.1809 146.796L25.6969 147.671C26.2743 147.99 26.8487 148.304 27.4183 148.612L27.8946 147.733ZM24.4793 145.841C23.9178 145.521 23.3556 145.195 22.7941 144.862L22.2841 145.722C22.8511 146.058 23.4183 146.387 23.9841 146.71L24.4793 145.841ZM21.1295 143.852C20.5805 143.511 20.0336 143.162 19.4903 142.806L18.9414 143.641C19.4922 144.003 20.0461 144.356 20.6016 144.702L21.1295 143.852ZM17.8816 141.716C17.3521 141.346 16.8275 140.967 16.3091 140.579L15.7095 141.379C16.2372 141.775 16.7708 142.16 17.3087 142.536L17.8816 141.716ZM14.779 139.389C14.2775 138.983 13.7835 138.567 13.2984 138.141L12.6381 138.892C13.1341 139.328 13.6386 139.752 14.1502 140.166L14.779 139.389ZM11.8748 136.831C11.4114 136.385 10.9581 135.927 10.5162 135.457L9.78769 136.143C10.2414 136.625 10.7063 137.094 11.181 137.552L11.8748 136.831ZM9.23108 134.017C8.81749 133.527 8.41625 133.025 8.0286 132.509L7.22928 133.11C7.62867 133.641 8.04174 134.158 8.46716 134.662L9.23108 134.017ZM6.91734 130.936C6.56522 130.404 6.2273 129.859 5.90474 129.3L5.0384 129.799C5.37149 130.377 5.7203 130.94 6.08358 131.488L6.91734 130.936ZM4.99728 127.604C4.71565 127.035 4.44944 126.452 4.19972 125.854L3.27701 126.24C3.53502 126.857 3.81008 127.459 4.10105 128.047L4.99728 127.604ZM3.51488 124.056C3.30813 123.457 3.11736 122.844 2.94353 122.217L1.97981 122.483C2.15917 123.131 2.35609 123.764 2.5696 124.383L3.51488 124.056ZM2.48462 120.34C2.35298 119.723 2.23714 119.091 2.1379 118.446L1.14952 118.598C1.25164 119.262 1.37093 119.912 1.50658 120.549L2.48462 120.34ZM1.8977 116.539C1.86589 116.217 1.83807 115.892 1.81432 115.563L0.816919 115.635C0.841298 115.973 0.86987 116.307 0.90255 116.638L1.8977 116.539ZM1.81432 115.563C1.7898 115.224 1.76674 114.885 1.74514 114.548L0.747177 114.612C0.768957 114.952 0.792201 115.293 0.816919 115.635L1.81432 115.563ZM1.63287 112.532C1.60121 111.864 1.57528 111.199 1.555 110.537L0.555465 110.568C0.575916 111.235 0.602064 111.906 0.633989 112.58L1.63287 112.532ZM1.51087 108.551C1.50156 107.873 1.49823 107.198 1.50077 106.527L0.500782 106.523C0.49821 107.2 0.501575 107.881 0.510964 108.565L1.51087 108.551ZM1.52599 104.525C1.54022 103.862 1.56024 103.201 1.58597 102.545L0.586741 102.506C0.560778 103.168 0.540574 103.834 0.526218 104.504L1.52599 104.525ZM1.68371 100.525C1.72236 99.8538 1.767 99.187 1.81753 98.5239L0.820422 98.4479C0.76942 99.1171 0.72437 99.7902 0.68537 100.467L1.68371 100.525ZM1.98671 96.546C2.05052 95.8737 2.12043 95.2054 2.19632 94.5411L1.20279 94.4276C1.12617 95.0982 1.0556 95.7729 0.991185 96.4515L1.98671 96.546ZM2.44315 92.5504C2.5314 91.8908 2.6256 91.2352 2.72562 90.5835L1.7372 90.4318C1.6362 91.0898 1.54109 91.7518 1.45198 92.4177L2.44315 92.5504ZM3.05071 88.5966C3.16568 87.9351 3.28669 87.2778 3.41363 86.6246L2.432 86.4338C2.30379 87.0935 2.18158 87.7573 2.06548 88.4254L3.05071 88.5966ZM3.81214 84.6776C3.9539 84.0184 4.10173 83.3636 4.25552 82.7131L3.28234 82.4831C3.127 83.1401 2.97768 83.8016 2.8345 84.4673L3.81214 84.6776ZM4.73613 80.7686C4.90227 80.1246 5.07427 79.4849 5.25202 78.8495L4.28899 78.5801C4.10942 79.222 3.93566 79.8682 3.76783 80.5188L4.73613 80.7686ZM5.81514 76.9139C6.00876 76.2732 6.20825 75.637 6.41348 75.0052L5.4624 74.6962C5.25505 75.3345 5.05351 75.9773 4.85789 76.6247L5.81514 76.9139ZM7.04893 73.1153C7.26995 72.4798 7.49679 71.8489 7.72933 71.2226L6.79186 70.8745C6.55691 71.5073 6.32772 72.1448 6.10442 72.7869L7.04893 73.1153ZM8.44388 69.3574C8.68968 68.7351 8.94111 68.1175 9.19805 67.5045L8.27579 67.118C8.0162 67.7373 7.76215 68.3613 7.51381 68.99L8.44388 69.3574ZM9.99307 65.6618C10.2636 65.0522 10.5396 64.4474 10.8208 63.8472L9.91534 63.4228C9.63116 64.0292 9.35234 64.6403 9.07903 65.2561L9.99307 65.6618ZM11.6912 62.039C11.9878 61.4387 12.2897 60.8432 12.5968 60.2526L11.7095 59.7913C11.3993 60.388 11.0943 60.9896 10.7946 61.596L11.6912 62.039ZM13.5348 58.4923C13.8568 57.9027 14.1838 57.3181 14.5159 56.7383L13.6482 56.2413C13.3127 56.8269 12.9823 57.4175 12.6571 58.0131L13.5348 58.4923ZM15.527 55.0136C15.8711 54.4399 16.22 53.8712 16.5738 53.3073L15.7267 52.7759C15.3694 53.3454 15.0169 53.9198 14.6694 54.4992L15.527 55.0136ZM17.6564 51.6192C18.0219 51.0614 18.3921 50.5086 18.7668 49.9607L17.9413 49.3963C17.563 49.9495 17.1892 50.5078 16.82 51.071L17.6564 51.6192ZM19.9165 48.3141C20.3047 47.7695 20.6973 47.23 21.0941 46.6955L20.2911 46.0994C19.8905 46.6391 19.4942 47.1838 19.1022 47.7336L19.9165 48.3141ZM22.3018 45.1006C22.7115 44.57 23.1254 44.0445 23.5433 43.5241L22.7635 42.898C22.3418 43.4233 21.924 43.9537 21.5103 44.4894L22.3018 45.1006ZM24.8086 41.978C25.2381 41.4629 25.6715 40.953 26.1085 40.4482L25.3525 39.7937C24.9115 40.3031 24.4741 40.8177 24.0406 41.3375L24.8086 41.978ZM27.433 38.9462C27.8798 38.4488 28.33 37.9566 28.7835 37.4695L28.0516 36.788C27.594 37.2795 27.1398 37.7761 26.689 38.278L27.433 38.9462ZM30.1643 36.0126C30.6278 35.5321 31.0945 35.0569 31.5641 34.5868L30.8567 33.88C30.383 34.3542 29.9122 34.8336 29.4446 35.3182L30.1643 36.0126ZM32.9962 33.178C33.4773 32.7128 33.9611 32.253 34.4476 31.7984L33.7649 31.0677C33.2743 31.5262 32.7863 31.99 32.3011 32.459L32.9962 33.178ZM35.9226 30.4431C36.4204 29.9935 36.9206 29.5491 37.4231 29.1101L36.7652 28.357C36.2585 28.7997 35.7542 29.2477 35.2523 29.7011L35.9226 30.4431ZM38.9376 27.8086C39.4513 27.3744 39.9671 26.9456 40.4849 26.5222L39.8518 25.7481C39.3299 26.1749 38.8099 26.6072 38.292 27.0449L38.9376 27.8086ZM42.0436 25.2682C42.5699 24.8517 43.0978 24.4406 43.6273 24.035L43.0192 23.2412C42.4856 23.65 41.9534 24.0642 41.423 24.4841L42.0436 25.2682ZM45.2285 22.8282C45.7662 22.4294 46.3052 22.0362 46.8452 21.6485L46.262 20.8362C45.7179 21.2269 45.1747 21.6231 44.6329 22.0249L45.2285 22.8282ZM48.487 20.4889C49.0352 20.1079 49.5843 19.7326 50.1339 19.3628L49.5757 18.5331C49.0219 18.9057 48.4688 19.2838 47.9164 19.6677L48.487 20.4889ZM51.8146 18.2504C52.3753 17.8853 52.9364 17.526 53.4977 17.1724L52.9646 16.3263C52.3992 16.6826 51.8339 17.0446 51.269 17.4124L51.8146 18.2504ZM55.2069 16.1131C55.7797 15.7639 56.3523 15.4207 56.9245 15.0833L56.4167 14.2219C55.8403 14.5617 55.2634 14.9075 54.6864 15.2592L55.2069 16.1131ZM58.6602 14.0772C59.2445 13.7441 59.8282 13.4172 60.4108 13.0963L59.9284 12.2204C59.3415 12.5436 58.7536 12.8729 58.165 13.2084L58.6602 14.0772ZM62.1712 12.1435C62.7667 11.8268 63.3608 11.5164 63.9531 11.2124L63.4965 10.3228C62.8999 10.629 62.3015 10.9416 61.7016 11.2606L62.1712 12.1435ZM65.7373 10.3132C66.3434 10.0133 66.9473 9.72002 67.5486 9.43341L67.1184 8.53068C66.5126 8.81941 65.9043 9.1148 65.2938 9.41691L65.7373 10.3132ZM69.3564 8.58818C69.9723 8.30573 70.5853 8.03031 71.1947 7.76189L70.7917 6.84671C70.1776 7.11716 69.5601 7.39464 68.9396 7.67919L69.3564 8.58818ZM73.0268 6.97151C73.6517 6.70752 74.2725 6.451 74.8888 6.2019L74.5141 5.27476C73.893 5.52581 73.2673 5.78432 72.6376 6.05033L73.0268 6.97151ZM76.7469 5.46786C77.3795 5.22375 78.0067 4.98764 78.628 4.75948L78.2832 3.82077C77.6568 4.05082 77.0245 4.28885 76.3869 4.53492L76.7469 5.46786ZM80.5149 4.08447C81.153 3.86226 81.7842 3.64872 82.4078 3.44377L82.0956 2.49376C81.4664 2.70055 80.8297 2.91596 80.186 3.14008L80.5149 4.08447ZM84.327 2.83253C84.9699 2.63438 85.6037 2.44578 86.2277 2.26665L85.9517 1.30547C85.3214 1.48642 84.6814 1.67686 84.0324 1.87689L84.327 2.83253ZM88.175 1.72962C88.4938 1.64538 88.8096 1.56378 89.1224 1.48478L88.8776 0.515221C88.5612 0.595121 88.2418 0.677643 87.9195 0.762799L88.175 1.72962Z" fill="#EE693F" />
</svg>
