<svg width="324" height="146" viewBox="0 0 324 146" fill="none" xmlns="http://www.w3.org/2000/svg">
<path d="M1.43592 15.287C0.6683 15.5985 0.29857 16.4733 0.610103 17.2409C0.921637 18.0086 1.79646 18.3783 2.56408 18.0668L1.43592 15.287ZM176.897 59.2594L178.229 58.5699L176.897 59.2594ZM323.092 134.939C323.66 134.336 323.631 133.386 323.028 132.818L313.2 123.564C312.596 122.996 311.647 123.024 311.079 123.628C310.511 124.231 310.54 125.18 311.143 125.748L319.88 133.974L311.653 142.711C311.086 143.314 311.114 144.263 311.717 144.831C312.32 145.399 313.27 145.371 313.838 144.767L323.092 134.939ZM2.56408 18.0668C3.42521 17.7173 4.31274 17.366 5.22553 17.014L4.14605 14.2149C3.21725 14.5731 2.31349 14.9308 1.43592 15.287L2.56408 18.0668ZM10.6863 15.0095C12.4447 14.3952 14.2736 13.7849 16.1667 13.1845L15.2597 10.3248C13.339 10.934 11.4827 11.5535 9.69686 12.1774L10.6863 15.0095ZM21.7126 11.5098C23.5315 10.9877 25.3982 10.4781 27.3081 9.98526L26.5585 7.08042C24.6221 7.58012 22.7294 8.09682 20.8849 8.62628L21.7126 11.5098ZM32.944 8.61122C34.8016 8.18467 36.6929 7.77629 38.6143 7.38951L38.0222 4.44851C36.0738 4.84074 34.156 5.25484 32.2726 5.68732L32.944 8.61122ZM44.3144 6.32332C46.2002 5.99754 48.1099 5.69449 50.0404 5.41713L49.6138 2.44763C47.6545 2.72912 45.7167 3.03662 43.8037 3.3671L44.3144 6.32332ZM55.7885 4.67672C57.695 4.45973 59.6179 4.26959 61.5543 4.109L61.3063 1.11926C59.3386 1.28246 57.3853 1.47561 55.4492 1.69597L55.7885 4.67672ZM67.333 3.72195C69.2524 3.62443 71.182 3.5578 73.1188 3.52454L73.0673 0.524985C71.0959 0.558832 69.1328 0.626644 67.1808 0.72581L67.333 3.72195ZM78.9053 3.52665C80.8282 3.56167 82.7556 3.63162 84.6848 3.7389L84.8513 0.743525C82.8838 0.63411 80.9191 0.562823 78.9599 0.527143L78.9053 3.52665ZM90.4484 4.17258C92.3627 4.35505 94.276 4.57656 96.186 4.83946L96.5951 1.86749C94.6425 1.59872 92.6876 1.37242 90.733 1.18612L90.4484 4.17258ZM101.886 5.75153C103.776 6.09727 105.659 6.4862 107.535 6.9206L108.212 3.99799C106.29 3.55276 104.36 3.15442 102.426 2.80052L101.886 5.75153ZM113.116 8.35773C114.96 8.88171 116.794 9.45282 118.614 10.0733L119.582 7.23372C117.712 6.59615 115.829 6.00969 113.936 5.47194L113.116 8.35773ZM124.01 12.0757C125.784 12.7896 127.542 13.5541 129.283 14.3713L130.558 11.6555C128.765 10.8139 126.955 10.0271 125.13 9.29264L124.01 12.0757ZM134.414 16.9633C136.09 17.8722 137.747 18.8344 139.383 19.8519L140.967 17.3046C139.281 16.2552 137.572 15.2631 135.845 14.3262L134.414 16.9633ZM144.169 23.0338C145.72 24.1348 147.25 25.2904 148.755 26.5027L150.637 24.1662C149.084 22.9154 147.506 21.723 145.905 20.5871L144.169 23.0338ZM153.123 30.2447C154.522 31.5191 155.897 32.8478 157.246 34.2325L159.395 32.1391C158.004 30.7115 156.586 29.3413 155.143 28.0267L153.123 30.2447ZM161.129 38.4596C162.368 39.8897 163.582 41.3728 164.768 42.9105L167.143 41.0775C165.922 39.4953 164.673 37.9684 163.396 36.4952L161.129 38.4596ZM168.165 47.571C169.239 49.1321 170.288 50.7437 171.31 52.4073L173.866 50.8375C172.818 49.13 171.741 47.4747 170.637 45.8703L168.165 47.571ZM174.19 57.3691C174.655 58.2167 175.113 59.0766 175.564 59.949L178.229 58.5699C177.766 57.6764 177.297 56.7953 176.82 55.9266L174.19 57.3691ZM175.564 59.949C176.022 60.8337 176.519 61.7462 177.055 62.6835L179.66 61.1947C179.143 60.2917 178.667 59.4158 178.229 58.5699L175.564 59.949ZM180.331 67.9768C181.418 69.6132 182.607 71.3015 183.897 73.029L186.301 71.2342C185.043 69.5494 183.886 67.906 182.83 66.3167L180.331 67.9768ZM187.722 77.8963C188.996 79.4398 190.345 81.0044 191.771 82.582L193.997 80.5706C192.601 79.0262 191.281 77.4955 190.036 75.9867L187.722 77.8963ZM196.012 87.0786C197.423 88.5135 198.897 89.9531 200.431 91.3913L202.483 89.2021C200.978 87.7919 199.534 86.3809 198.151 84.9748L196.012 87.0786ZM205.03 95.531C206.562 96.8553 208.146 98.1738 209.784 99.4817L211.656 97.1375C210.049 95.8543 208.495 94.5609 206.993 93.2619L205.03 95.531ZM214.677 103.237C216.31 104.441 217.99 105.632 219.716 106.805L221.402 104.324C219.708 103.172 218.06 102.004 216.458 100.823L214.677 103.237ZM224.89 110.179C226.614 111.257 228.381 112.316 230.19 113.353L231.682 110.751C229.907 109.733 228.173 108.693 226.48 107.635L224.89 110.179ZM235.607 116.324C237.411 117.268 239.252 118.19 241.133 119.086L242.423 116.378C240.577 115.498 238.769 114.593 236.999 113.666L235.607 116.324ZM246.758 121.637C248.628 122.443 250.533 123.222 252.474 123.974L253.557 121.176C251.652 120.438 249.781 119.673 247.945 118.882L246.758 121.637ZM258.273 126.094C260.198 126.757 262.155 127.392 264.145 127.996L265.016 125.126C263.062 124.532 261.14 123.909 259.25 123.258L258.273 126.094ZM270.082 129.681C272.05 130.2 274.048 130.69 276.075 131.147L276.735 128.22C274.743 127.771 272.781 127.29 270.847 126.78L270.082 129.681ZM282.117 132.396C284.118 132.773 286.146 133.118 288.201 133.43L288.652 130.465C286.631 130.157 284.638 129.818 282.672 129.448L282.117 132.396ZM294.318 134.252C296.342 134.488 298.39 134.693 300.464 134.864L300.711 131.874C298.671 131.706 296.656 131.505 294.666 131.272L294.318 134.252ZM306.633 135.27C308.659 135.369 310.709 135.437 312.781 135.472L312.832 132.473C310.792 132.438 308.774 132.371 306.78 132.273L306.633 135.27ZM318.937 135.479C319.968 135.464 321.004 135.441 322.045 135.41L321.955 132.411C320.929 132.442 319.909 132.465 318.894 132.479L318.937 135.479Z" fill="#EE693F"/>
</svg>
