<svg width="47" height="289" viewBox="0 0 6 35" fill="none" xmlns="http://www.w3.org/2000/svg"><path d="M11.302.564c-.198-.135-.448-.05-.56.191-.11.24-.04.546.158.68zm21.81 73.04-.34-.28zm-13.859 82.032.37-.217-.003-.008-.003-.008zM.504 289.93c-.032.273.125.526.35.565l3.66.632c.225.039.433-.151.465-.425.032-.273-.124-.526-.349-.565l-3.255-.562.462-3.96c.032-.274-.124-.527-.35-.565-.224-.039-.432.151-.464.424zm1.319-.145c.18-.168.214-.482.076-.701-.139-.219-.397-.261-.577-.092zm.79-2.025a.577.577 0 0 0-.064.703c.141.216.4.25.577.078zm1.78-.482a.578.578 0 0 0 .052-.705c-.146-.211-.405-.239-.579-.062zm.713-2.057a.58.58 0 0 0-.04.706c.15.208.41.229.58.047zm1.775-.588a.578.578 0 0 0 .026-.706c-.153-.204-.413-.219-.58-.033zm.63-2.083a.58.58 0 0 0-.014.707c.157.2.417.207.581.016zm1.75-.681a.58.58 0 0 0 0-.707.361.361 0 0 0-.58-.001zm.562-2.128a.58.58 0 0 0 .013.707c.164.191.424.184.581-.015zm1.712-.762a.578.578 0 0 0-.026-.706c-.167-.186-.427-.172-.58.031zm.486-2.162a.58.58 0 0 0 .04.706c.17.181.43.16.579-.048zm1.688-.868a.577.577 0 0 0-.052-.704c-.175-.177-.434-.148-.58.064zm.392-2.171c-.141.216-.112.531.066.703.178.171.436.135.577-.081zm1.658-.972c.137-.221.101-.534-.08-.701-.18-.166-.439-.123-.575.098zm.309-2.195c-.132.225-.09.537.094.698.184.161.44.11.573-.114zm1.614-1.058c.128-.228.08-.539-.107-.695-.188-.156-.443-.097-.572.131zm.227-2.217c-.124.231-.07.541.12.691.19.151.445.085.569-.147zm1.566-1.143c.12-.235.06-.543-.134-.688-.193-.145-.446-.072-.565.163zm.142-2.231c-.115.238-.048.544.148.684.196.139.447.058.562-.18zm1.523-1.239c.11-.242.038-.546-.16-.68-.2-.133-.45-.046-.56.196zm.05-2.228c-.104.245-.026.547.175.675.201.128.45.033.554-.212zm1.477-1.33c.1-.248.016-.547-.188-.669-.203-.122-.45-.021-.55.227zm-.037-2.226c-.095.251-.006.548.2.664.206.117.45.008.546-.243zm1.424-1.412c.09-.253-.005-.547-.213-.658-.208-.11-.45.005-.54.259zm-.12-2.225c-.086.255.015.547.225.652.21.104.45-.018.536-.274zm1.367-1.484c.081-.258-.025-.547-.236-.646-.212-.099-.45.03-.531.288zm-.2-2.221c-.077.26.035.547.248.64.214.093.45-.043.525-.303zm1.31-1.555c.072-.262-.045-.545-.26-.632-.215-.087-.448.054-.52.316zm-.28-2.207c-.068.264.054.544.27.625.217.082.447-.066.514-.33zm1.254-1.627c.062-.265-.064-.542-.283-.618-.218-.076-.445.078-.508.344zm-.36-2.186c-.057.267.074.54.293.61.22.071.444-.089.502-.356zm1.198-1.692c.053-.269-.083-.539-.304-.603-.22-.065-.442.1-.495.369zm-.435-2.165c-.048.27.092.537.314.596.222.059.44-.112.49-.381zm1.14-1.751c.044-.271-.1-.534-.323-.588-.223-.053-.439.123-.483.394zm-.505-2.144c-.04.272.11.532.333.58.223.049.437-.133.476-.405zm1.082-1.801c.035-.273-.118-.529-.342-.572-.224-.043-.434.143-.47.416zm-.573-2.121c-.03.274.126.526.351.564.225.038.432-.153.463-.427zm1.025-1.847c.026-.274-.134-.523-.36-.556-.225-.033-.43.163-.456.437zm-.638-2.095c-.022.274.142.52.368.547.226.028.427-.172.45-.447zm.968-1.893c.02-.275-.149-.517-.375-.539-.226-.023-.425.181-.444.457zm-.698-2.064c-.015.275.157.513.383.531.227.018.422-.191.437-.467zm.912-1.935c.011-.276-.164-.51-.39-.524-.227-.013-.42.2-.43.476zm-.757-2.031c-.007.276.172.506.398.515.227.008.417-.209.424-.485zm.858-1.974c.004-.276-.178-.503-.405-.507-.227-.004-.413.217-.416.493zm-.812-1.996c0 .276.185.499.412.499.227-.001.41-.225.41-.501zm.805-2.01c-.004-.276-.192-.496-.418-.491-.227.005-.408.233-.404.509zm-.865-1.965c.008.276.198.492.425.483.227-.01.404-.241.397-.517zm.753-2.037c-.012-.275-.204-.488-.431-.474-.227.013-.401.248-.39.524zm-.915-1.934c.015.276.21.485.437.467.226-.018.398-.256.383-.532zm.701-2.06c-.018-.275-.216-.48-.442-.458-.226.022-.395.263-.377.538zm-.961-1.903c.021.275.222.477.448.451.226-.027.391-.271.37-.545zm.651-2.079c-.025-.275-.228-.473-.453-.443-.226.03-.389.277-.364.552zm-1.007-1.873c.028.274.233.469.458.435.225-.034.385-.284.357-.558zm.602-2.102c-.031-.274-.239-.465-.464-.427-.224.038-.381.29-.35.564zm-1.05-1.835c.034.273.244.46.468.419.224-.042.378-.297.344-.57zm.553-2.125c-.038-.273-.25-.456-.473-.411-.224.045-.375.303-.338.576zm-1.091-1.795c.04.271.254.452.478.402.223-.049.371-.309.33-.581zm.505-2.146c-.044-.271-.26-.448-.482-.395-.223.053-.368.315-.325.586zm-1.13-1.755c.046.27.264.444.486.387.222-.056.365-.321.318-.592zm.456-2.165c-.05-.269-.269-.439-.49-.379-.222.06-.361.327-.312.597zm-1.167-1.714c.052.269.274.435.495.372.22-.064.357-.334.305-.602zm.408-2.182c-.055-.268-.278-.43-.499-.363-.22.067-.353.339-.298.607zm-1.204-1.672c.059.267.284.426.503.355.22-.071.35-.344.292-.611zm.36-2.198c-.061-.265-.288-.421-.506-.346-.219.074-.347.35-.285.616zm-1.24-1.63c.064.265.293.416.51.339.218-.078.343-.356.279-.621zm.31-2.21c-.066-.264-.296-.412-.513-.33-.217.081-.338.361-.271.625zm-1.275-1.589c.07.262.302.406.518.321.216-.085.334-.367.264-.63zm.26-2.22c-.072-.261-.305-.401-.52-.312-.215.089-.33.372-.257.634zm-1.311-1.548c.076.26.31.396.525.304.213-.093.325-.379.249-.639zm.21-2.223c-.08-.259-.316-.39-.53-.294-.212.096-.32.384-.24.643zm-1.352-1.507c.083.257.321.385.532.285.212-.101.316-.391.234-.648zm.158-2.219c-.086-.256-.325-.379-.536-.275-.21.105-.31.396-.225.652zm-1.393-1.465c.09.254.33.372.54.263.208-.108.305-.402.216-.656zm.103-2.21c-.093-.252-.336-.365-.543-.252-.208.113-.3.408-.207.66zm-1.438-1.412c.097.249.342.357.547.239.206-.118.294-.416.197-.665zm.026-2.199c-.1-.248-.346-.35-.55-.229-.203.122-.287.422-.187.67zm-1.424-1.386c.088.254.33.373.539.264.208-.108.306-.401.217-.655zm.166-2.211c-.078-.26-.314-.393-.527-.299-.213.095-.323.382-.245.641zm-1.298-1.56c.067.264.297.412.514.33.217-.081.338-.361.272-.625zm.349-2.18c-.056-.267-.28-.428-.5-.36-.22.069-.352.341-.296.609zm-1.169-1.707c.047.27.264.444.486.388.223-.056.365-.321.319-.592zm.512-2.13c-.036-.272-.247-.457-.471-.413-.224.044-.376.301-.34.574zm-1.042-1.822c.028.274.232.47.458.437.225-.033.385-.283.358-.557zM16 139.46c-.019-.275-.217-.48-.443-.457-.226.022-.395.264-.376.539zm-.923-1.916c.01.276.202.49.43.477.226-.012.401-.246.391-.522zm.777-2.007c-.003-.277-.189-.498-.416-.495-.227.003-.409.229-.406.505zm-.813-1.99c-.005.277.175.505.402.511.227.006.415-.213.42-.489zm.882-1.946c.012-.276-.162-.511-.389-.526-.226-.014-.42.198-.432.473zm-.711-2.043c-.018.276.15.517.376.539.226.022.425-.183.443-.458zm.972-1.88c.025-.274-.139-.521-.364-.551-.226-.029-.428.169-.453.444zm-.619-2.091c-.03.274.128.525.353.562.225.037.431-.155.462-.429zm1.05-1.814c.036-.273-.117-.529-.341-.573-.224-.043-.435.143-.47.415zm-.535-2.124c-.041.272.107.533.33.582.223.05.437-.13.478-.402zm1.117-1.757c.046-.271-.097-.535-.32-.59-.222-.056-.439.118-.485.389zm-.459-2.148c-.05.269.089.537.31.598.221.061.442-.108.492-.377zm1.176-1.699c.055-.268-.08-.539-.3-.606-.22-.066-.443.097-.497.365zm-.388-2.17c-.06.267.071.541.29.612.22.072.445-.087.503-.354zm1.227-1.644c.063-.265-.063-.542-.281-.618-.219-.076-.446.077-.509.342zm-.324-2.185c-.067.264.055.543.272.624.217.081.447-.068.513-.332zm1.273-1.591c.07-.262-.049-.544-.265-.629-.215-.086-.447.058-.517.321zm-.265-2.198c-.073.261.041.546.256.635.215.089.448-.05.521-.312zm1.314-1.542c.077-.26-.034-.546-.248-.639-.213-.093-.449.042-.525.302zm-.21-2.204c-.08.259.028.547.24.644.213.097.45-.034.53-.292zm1.352-1.494c.083-.258-.021-.548-.232-.649-.212-.1-.45.026-.533.283zm-.157-2.214c-.086.255.015.547.225.652.21.104.45-.018.536-.274zm1.385-1.444c.088-.254-.01-.548-.218-.655-.209-.108-.45.01-.539.264zm-.107-2.218c-.092.253.002.548.21.66.208.11.45-.004.542-.257zm1.417-1.403c.094-.251.003-.548-.203-.662-.207-.115-.45-.004-.545.247zm-.06-2.218c-.097.25-.009.548.196.665.206.118.45.011.547-.238zm1.445-1.351c.1-.248.015-.548-.19-.669-.203-.12-.45-.018-.549.23zm-.01-2.226c-.102.246-.02.547.182.671.202.124.45.025.552-.221zm1.475-1.311c.105-.245.026-.547-.175-.675-.201-.127-.45-.032-.554.213zm.034-2.219c-.107.244-.032.547.168.677.2.131.449.04.556-.204zm1.499-1.255c.11-.242.038-.546-.16-.68-.199-.134-.449-.047-.559.195zm.086-2.224c-.113.24-.045.546.152.683s.448.054.561-.186zm1.531-1.215c.116-.237.051-.544-.144-.685-.196-.14-.448-.061-.563.176zm.137-2.217c-.118.236-.057.544.136.688.194.144.447.07.565-.166zm1.56-1.155c.122-.233.065-.542-.127-.69-.191-.148-.445-.079-.567.155zm.196-2.208c-.125.23-.073.54.117.692.189.153.444.09.569-.141zm1.594-1.112c.124-.232.07-.542-.12-.692-.19-.15-.445-.084-.569.147zm.17-2.221c-.117.237-.053.544.142.686.195.141.447.064.563-.173zm1.529-1.239c.109-.242.035-.546-.164-.678s-.449-.043-.557.2zm.024-2.223c-.1.247-.017.547.187.67.203.122.45.02.55-.227zm1.443-1.393c.091-.253-.003-.548-.21-.66-.208-.111-.45.003-.542.256zm-.137-2.21c-.082.258.023.547.235.647.211.1.45-.027.531-.285zm1.335-1.552c.072-.262-.044-.545-.26-.633-.215-.087-.447.054-.52.316zm-.305-2.196c-.061.266.066.542.285.617.218.074.445-.08.506-.347zm1.199-1.688c.05-.269-.09-.537-.31-.597-.222-.061-.442.108-.492.377zm-.485-2.156c-.039.272.111.53.335.577.224.047.436-.136.475-.408zm1.046-1.826c.027-.274-.135-.523-.36-.555-.225-.032-.43.164-.456.439zm-.67-2.08c-.015.276.157.514.384.53.226.018.421-.191.435-.467zm.878-1.96c.002-.276-.18-.502-.407-.504-.227-.002-.413.22-.414.496zm-.852-1.973c.01.276.203.49.43.477.226-.013.402-.247.391-.522zm.701-2.063c-.022-.275-.223-.476-.45-.449-.225.028-.39.273-.367.547zm-1.02-1.857c.035.273.244.46.468.42.225-.043.379-.298.345-.57zm.52-2.139c-.045-.27-.262-.445-.484-.39-.223.056-.366.32-.32.591zm-1.169-1.719c.057.267.28.429.5.36.22-.069.353-.341.296-.609zm.344-2.193c-.067-.264-.297-.412-.513-.33-.217.08-.339.36-.272.624zm-1.298-1.577c.076.26.312.395.525.302.214-.094.325-.38.248-.64zm.179-2.22c-.086-.256-.326-.379-.536-.274-.21.104-.31.396-.225.652zm-1.407-1.435c.094.251.338.362.545.246.206-.115.296-.411.202-.662zm.026-2.232c-.103-.246-.35-.344-.552-.22-.203.126-.283.426-.18.673zm-1.495-1.293c.11.241.36.328.558.194.199-.134.27-.438.16-.68zm-.112-2.228c-.117-.237-.37-.313-.564-.17-.194.143-.257.45-.14.686zm-1.568-1.161c.124.231.379.297.569.146.19-.15.244-.46.12-.692zm-.235-2.214c-.13-.227-.386-.282-.572-.124-.186.158-.232.47-.102.696zm-1.625-1.034c.135.222.393.268.575.103.182-.165.22-.478.084-.7zm-.348-2.194c-.14-.216-.399-.253-.577-.082-.178.171-.208.486-.067.703zm-1.673-.918c.145.212.405.24.579.063a.577.577 0 0 0 .05-.705zm-.446-2.164c-.15-.207-.41-.227-.58-.044a.579.579 0 0 0-.036.706zm-1.71-.806c.154.202.414.213.58.025a.58.58 0 0 0 .021-.707zm-.54-2.137c-.159-.198-.42-.201-.581-.008a.58.58 0 0 0-.007.707zm-1.743-.704c.163.193.423.189.581-.01a.58.58 0 0 0-.007-.706zm-.62-2.1c-.166-.187-.426-.176-.58.026a.58.58 0 0 0 .02.707zm-1.764-.6c.17.183.43.165.58-.042a.579.579 0 0 0-.034-.705zm-.702-2.068c-.173-.179-.433-.153-.58.057a.578.578 0 0 0 .047.705zm-1.79-.508c.176.174.435.141.578-.073a.577.577 0 0 0-.06-.704zm-.775-2.025c-.18-.17-.437-.13-.576.089-.14.218-.107.532.073.701zm-1.803-.408c.182.164.44.117.574-.105.135-.222.097-.535-.086-.7zm-.849-1.979c-.185-.159-.442-.105-.572.121-.13.226-.086.538.1.697zm-1.817-.304c.189.153.444.091.57-.138.126-.23.075-.54-.114-.694zm-.931-1.927c-.192-.147-.446-.077-.567.157-.12.234-.063.543.13.69zm-1.832-.185c.196.14.447.06.562-.178.115-.239.049-.545-.147-.684zM1.158 290.4c.223-.204.445-.409.665-.615l-.5-.793a96.12 96.12 0 0 1-.659.608zm1.968-1.859a84.4 84.4 0 0 0 1.268-1.263l-.528-.767c-.412.419-.83.836-1.254 1.249zm2.52-2.567c.418-.444.83-.891 1.235-1.341l-.554-.739c-.401.446-.808.888-1.221 1.327zm2.432-2.701c.4-.465.795-.933 1.183-1.404l-.58-.708a81.61 81.61 0 0 1-1.17 1.389zm2.339-2.84a82.7 82.7 0 0 0 1.118-1.454l-.606-.675c-.363.482-.73.961-1.106 1.437zm2.223-2.958c.363-.506.72-1.015 1.07-1.526l-.632-.64a84.566 84.566 0 0 1-1.057 1.508zm2.104-3.075c.345-.529.683-1.06 1.015-1.594l-.655-.603a81.995 81.995 0 0 1-1.003 1.575zm1.991-3.205c.322-.544.638-1.092.947-1.642l-.679-.564a85.911 85.911 0 0 1-.935 1.622zm1.863-3.315c.299-.56.591-1.122.877-1.687l-.7-.525a89.597 89.597 0 0 1-.866 1.668zm1.729-3.414c.277-.579.548-1.16.813-1.743l-.72-.484c-.26.576-.529 1.151-.803 1.723zm1.592-3.508c.256-.596.505-1.193.748-1.793l-.738-.442c-.24.593-.486 1.184-.738 1.772zm1.457-3.598c.232-.609.458-1.22.678-1.833l-.754-.399a97.43 97.43 0 0 1-.67 1.811zm1.319-3.68c.208-.619.41-1.24.606-1.862l-.767-.358c-.194.615-.394 1.229-.6 1.842zm1.18-3.746c.184-.629.363-1.26.536-1.892l-.78-.316c-.17.625-.347 1.249-.53 1.871zm1.04-3.804c.163-.64.32-1.28.47-1.922l-.79-.274c-.15.634-.304 1.268-.465 1.901zm.905-3.854c.14-.648.274-1.297.403-1.946l-.8-.234c-.126.643-.26 1.285-.398 1.926zm.771-3.896c.118-.655.23-1.31.337-1.966l-.806-.194c-.106.649-.217 1.297-.334 1.945zm.641-3.935c.097-.658.187-1.317.273-1.976l-.812-.156c-.085.653-.174 1.305-.27 1.957zm.514-3.96c.076-.661.146-1.323.21-1.984l-.815-.119a126.27 126.27 0 0 1-.209 1.966zm.391-3.979c.055-.665.105-1.329.15-1.993l-.819-.082c-.044.658-.094 1.316-.149 1.975zm.272-3.993c.036-.667.066-1.334.092-1.999l-.82-.048c-.026.66-.057 1.321-.092 1.983zm.157-4c.017-.669.029-1.337.036-2.004l-.821-.014c-.008.661-.02 1.324-.037 1.988zm.046-4.002c-.001-.671-.007-1.34-.017-2.008l-.822.018c.01.663.016 1.327.017 1.992zm-.06-4.007c-.02-.669-.042-1.337-.07-2.003l-.82.05c.027.661.05 1.323.068 1.987zm-.164-4.002c-.035-.667-.075-1.332-.119-1.995l-.819.08c.044.658.083 1.318.118 1.98zm-.262-3.992a166.25 166.25 0 0 0-.167-1.985l-.817.109c.059.654.114 1.311.166 1.97zm-.359-3.981c-.067-.663-.138-1.322-.213-1.979l-.814.137c.074.652.145 1.307.212 1.965zm-.45-3.965c-.084-.661-.17-1.319-.26-1.974l-.81.165c.088.65.174 1.303.257 1.96zm-.542-3.948c-.098-.659-.2-1.315-.304-1.967l-.807.191c.104.648.205 1.299.302 1.955zm-.63-3.927c-.113-.657-.229-1.311-.348-1.96l-.802.218c.118.645.234 1.294.346 1.947zm-.715-3.904c-.128-.656-.259-1.306-.392-1.952l-.797.244c.132.641.262 1.287.389 1.938zm-.801-3.88c-.143-.653-.288-1.3-.435-1.942l-.791.27c.146.637.29 1.28.431 1.928zm-.886-3.854c-.157-.65-.317-1.292-.478-1.928l-.785.295c.16.632.318 1.27.474 1.915zm-.972-3.826c-.172-.644-.345-1.282-.521-1.911l-.778.322c.174.625.347 1.257.517 1.898zm-1.059-3.794c-.187-.638-.375-1.268-.565-1.888l-.77.349c.189.616.375 1.24.56 1.874zm-1.15-3.758c-.201-.629-.404-1.248-.608-1.856l-.76.377c.201.603.402 1.217.602 1.842zm-1.245-3.714c-.217-.619-.435-1.225-.653-1.817l-.75.408c.216.588.432 1.188.647 1.802zm-1.347-3.655c-.116-.299-.231-.594-.347-.885l-.74.435c.115.288.229.58.343.876zm-.353-.901a38 38 0 0 1-.365-.872l-.737.441c.121.301.246.6.375.897zm-1.033-2.649c-.21-.6-.407-1.207-.59-1.82l-.772.342c.188.63.39 1.253.606 1.869zm-1.102-3.675a47.41 47.41 0 0 1-.437-1.885l-.796.249c.137.649.286 1.293.447 1.931zm-.801-3.796a53.789 53.789 0 0 1-.293-1.926l-.811.161c.088.661.188 1.317.3 1.969zm-.519-3.868A60.921 60.921 0 0 1 16 139.46l-.82.082c.046.668.1 1.332.166 1.993zm-.264-3.916a69.543 69.543 0 0 1-.044-1.962l-.822.01c.006.668.02 1.334.045 1.997zm-.035-3.93c.012-.654.032-1.31.06-1.968l-.82-.053c-.03.668-.05 1.335-.062 1.999zm.168-3.93c.044-.652.095-1.306.153-1.961l-.817-.107a89.24 89.24 0 0 0-.155 1.987zm.349-3.919c.071-.648.15-1.298.235-1.947l-.812-.158c-.086.658-.165 1.315-.238 1.972zm.508-3.891c.097-.646.2-1.292.31-1.937l-.806-.201c-.11.652-.214 1.305-.312 1.958zm.652-3.864c.12-.641.244-1.281.374-1.92l-.797-.241c-.132.646-.258 1.292-.379 1.94zm.78-3.832c.14-.635.284-1.269.433-1.902l-.79-.276c-.15.638-.296 1.278-.437 1.92zm.894-3.795c.159-.63.321-1.257.488-1.883l-.782-.308c-.168.63-.332 1.263-.491 1.899zm1-3.758c.176-.624.355-1.246.537-1.865l-.773-.337c-.184.623-.364 1.249-.541 1.879zm1.096-3.717c.192-.619.386-1.235.583-1.846l-.765-.366c-.199.616-.394 1.236-.587 1.86zm1.187-3.682c.205-.612.413-1.22.624-1.822l-.757-.39c-.211.606-.42 1.218-.628 1.834zm1.269-3.637c.22-.608.442-1.21.665-1.806l-.748-.415c-.225.6-.448 1.206-.67 1.818zm1.348-3.597c.233-.6.467-1.193.702-1.778l-.739-.439c-.236.59-.472 1.186-.706 1.79zm1.426-3.554c.246-.596.493-1.183.74-1.761l-.728-.462c-.25.582-.498 1.173-.746 1.773zm1.499-3.507c.259-.586.517-1.163.775-1.728l-.719-.485c-.26.57-.52 1.15-.78 1.74zm1.574-3.455c.274-.584.547-1.154.818-1.712l-.707-.509c-.273.562-.548 1.137-.824 1.724zm1.656-3.406c.29-.577.577-1.136.859-1.678l-.694-.535c-.285.546-.573 1.11-.866 1.69zm1.74-3.335.443-.807-.68-.56c-.148.267-.297.538-.448.816zm.443-.807c.159-.286.314-.571.467-.856l-.69-.545c-.15.28-.302.56-.458.842zm1.341-2.564c.288-.585.562-1.17.824-1.751l-.721-.48c-.257.571-.526 1.144-.808 1.718zm1.585-3.532c.25-.614.485-1.226.706-1.836l-.752-.404a50.649 50.649 0 0 1-.69 1.797zm1.335-3.683c.205-.641.394-1.28.569-1.915l-.78-.317c-.17.62-.355 1.244-.555 1.87zm1.055-3.84a46.96 46.96 0 0 0 .408-1.958l-.802-.221c-.117.633-.25 1.27-.397 1.908zm.733-3.946a45.75 45.75 0 0 0 .236-1.995l-.816-.116a44.502 44.502 0 0 1-.23 1.942zm.385-4.012c.035-.678.055-1.353.06-2.023l-.822-.008a44.02 44.02 0 0 1-.058 1.969zm.028-4.041a46.056 46.056 0 0 0-.12-2.018l-.817.099c.053.65.092 1.305.116 1.964zm-.327-4.025a47.578 47.578 0 0 0-.292-1.989l-.805.201c.108.641.203 1.288.284 1.938zm-.666-3.957a49.814 49.814 0 0 0-.452-1.944l-.785.295c.16.627.306 1.26.441 1.898zm-.977-3.859a52.935 52.935 0 0 0-.594-1.883l-.761.379c.205.609.399 1.223.582 1.842zm-1.254-3.733c-.23-.612-.471-1.217-.72-1.816l-.734.453c.245.587.48 1.18.707 1.78zm-1.498-3.595a60.492 60.492 0 0 0-.83-1.742l-.703.516c.28.565.551 1.135.815 1.712zm-1.709-3.448a64.47 64.47 0 0 0-.924-1.67l-.674.573c.31.54.613 1.088.91 1.642zm-1.89-3.3c-.33-.54-.666-1.072-1.007-1.597l-.644.62c.336.518.667 1.043.992 1.574zm-2.05-3.157a73.608 73.608 0 0 0-1.076-1.522l-.616.662c.358.493.712.994 1.062 1.502zm-2.185-3.01c-.378-.494-.758-.979-1.141-1.455l-.588.699c.378.47.754.95 1.127 1.438zm-2.31-2.875c-.397-.47-.795-.932-1.194-1.383l-.56.732c.395.446.788.902 1.18 1.367zm-2.412-2.731a80.003 80.003 0 0 0-1.248-1.32l-.533.761c.41.424.823.86 1.235 1.306zm-2.52-2.606c-.434-.429-.866-.845-1.293-1.248l-.503.79c.422.399.849.81 1.278 1.235zm-2.608-2.46a72.75 72.75 0 0 0-1.337-1.175l-.473.818c.433.37.874.758 1.322 1.16zm-2.698-2.31a60.943 60.943 0 0 0-1.387-1.096l-.438.847c.442.338.9.698 1.369 1.08zm-2.804-2.143c-.24-.172-.475-.336-.704-.492l-.402.872c.224.153.454.314.69.483z" fill="#ee693f" style="stroke-width:.906532"/></svg>