<svg width="320" height="250" viewBox="0 0 320 250" fill="none" xmlns="http://www.w3.org/2000/svg">
<ellipse cx="2.03533" cy="2.02496" rx="2.03533" ry="2.02496" transform="matrix(-0.603564 -0.797315 0.785346 -0.619057 2.45703 37.7642)" fill="#EE693F"/>
<ellipse cx="2.03533" cy="2.02496" rx="2.03533" ry="2.02496" transform="matrix(-0.603564 -0.797315 0.785346 -0.619057 23.5566 250)" fill="#EE693F"/>
<ellipse cx="6.106" cy="6.07488" rx="6.106" ry="6.07488" transform="matrix(-0.603564 -0.797315 0.785346 -0.619057 13.5093 17.2583)" fill="#F9C8A8"/>
<ellipse cx="2.02696" cy="2.03334" rx="2.02696" ry="2.03334" transform="matrix(0.753496 0.657452 -0.642261 0.766486 266.708 96.2059)" fill="#B1E275"/>
<ellipse cx="2.02696" cy="2.03334" rx="2.02696" ry="2.03334" transform="matrix(0.753496 0.657452 -0.642261 0.766486 316.945 158.749)" fill="#B1E275"/>
<ellipse cx="4.01917" cy="4.10103" rx="4.01917" ry="4.10103" transform="matrix(0.999087 -0.0427333 -0.0410413 -0.999157 121.018 204.887)" fill="#B1E275"/>
<path d="M0.447266 162.389C28.3014 167.183 94.6816 163.108 137.369 108.459C150.625 75.7583 191.836 14.5689 250.631 31.4156" stroke="#EE693F" stroke-width="3" stroke-dasharray="6 6"/>
</svg>
