<svg width="220" height="75" viewBox="0 0 220 75" fill="none" xmlns="http://www.w3.org/2000/svg">
<path d="M215.991 26.9563C216.292 29.7856 214.363 32.9886 209.468 36.442C204.654 39.8382 197.397 43.1594 188.135 46.2669C169.636 52.4734 143.508 57.7071 113.93 61.0865C84.3532 64.4658 57.0452 65.3376 36.9765 63.5353C26.9287 62.6329 18.7895 61.0678 13.1078 58.8627C7.30577 56.611 4.63364 53.9272 4.33728 51.1388C4.03504 48.2953 6.04704 44.8893 11.0658 41.1178C15.9901 37.4172 23.3894 33.6937 32.7808 30.1835C51.5413 23.1715 77.9259 17.1297 107.476 13.7535C137.026 10.3773 164.046 10.3173 183.829 12.9255C193.733 14.2311 201.736 16.1948 207.32 18.6948C213.01 21.2428 215.689 24.1127 215.991 26.9563Z" stroke="#BDD4E2" stroke-width="3"/>
<path d="M3.41406 50.4305C8.57127 35.078 52.4075 5.89448 186.495 11.9807C235.885 18.5603 248.381 50.4305 55.1845 69.9639" stroke="#BDD4E2" stroke-width="3" stroke-linecap="round"/>
</svg>
