<svg width="16" height="16" viewBox="0 0 16 16" fill="none" xmlns="http://www.w3.org/2000/svg">
<path d="M4.66602 11.9999C3.93268 11.9999 3.33935 12.5999 3.33935 13.3333C3.33935 14.0666 3.93268 14.6666 4.66602 14.6666C5.39935 14.6666 5.99935 14.0666 5.99935 13.3333C5.99935 12.5999 5.39935 11.9999 4.66602 11.9999ZM0.666016 1.33325V2.66659H1.99935L4.39935 7.72658L3.49935 9.35992C3.39268 9.54659 3.33268 9.76658 3.33268 9.99992C3.33268 10.7333 3.93268 11.3333 4.66602 11.3333H12.666V9.99992H4.94602C4.85268 9.99992 4.77935 9.92659 4.77935 9.83325L4.79935 9.75325L5.39935 8.66658H10.366C10.866 8.66658 11.306 8.39325 11.5327 7.97992L13.9193 3.65325C13.9744 3.55151 14.002 3.43724 13.9997 3.3216C13.9973 3.20597 13.965 3.09292 13.9059 2.99351C13.8468 2.8941 13.7629 2.81172 13.6624 2.75442C13.562 2.69711 13.4483 2.66685 13.3327 2.66659H3.47268L2.84602 1.33325H0.666016ZM11.3327 11.9999C10.5993 11.9999 10.006 12.5999 10.006 13.3333C10.006 14.0666 10.5993 14.6666 11.3327 14.6666C12.066 14.6666 12.666 14.0666 12.666 13.3333C12.666 12.5999 12.066 11.9999 11.3327 11.9999Z" fill="white"/>
</svg>
