<svg width="336" height="335" viewBox="0 0 336 335" fill="none" xmlns="http://www.w3.org/2000/svg">
<circle cx="292.374" cy="201.561" r="4" transform="rotate(34.4162 292.374 201.561)" fill="#B1E275"/>
<circle cx="2" cy="2" r="2" transform="matrix(-0.487382 0.873189 0.873189 0.487382 332.335 161)" fill="#EE693F"/>
<circle cx="2" cy="2" r="2" transform="matrix(-0.487382 0.873189 0.873189 0.487382 285.335 111)" fill="#EE693F"/>
<circle cx="34.6952" cy="142.195" r="2" transform="rotate(-127.685 34.6952 142.195)" fill="#EE693F"/>
<circle cx="10.6952" cy="210.195" r="2" transform="rotate(-127.685 10.6952 210.195)" fill="#EE693F"/>
<circle cx="14.4155" cy="102.584" r="6" transform="rotate(-127.685 14.4155 102.584)" fill="#F9C8A8"/>
<circle cx="34.5554" cy="313.82" r="2" transform="rotate(40.5323 34.5554 313.82)" fill="#B1E275"/>
<circle cx="153.555" cy="319.82" r="2" transform="rotate(40.5323 153.555 319.82)" fill="#B1E275"/>
<circle cx="4" cy="4" r="4" transform="matrix(0.999123 -0.0418788 -0.0418788 -0.999123 0.335083 293)" fill="#B1E275"/>
<g clip-path="url(#clip0_1051_2140)">
<path d="M46.335 90L37.335 79L56.335 78L46.335 90Z" fill="#FAB361"/>
<path d="M43.335 94.5L39.0273 93L36.335 96L37.9503 99H41.1811L43.335 94.5Z" fill="#FAB361"/>
<path d="M62.335 149.973L41.335 152L69.335 116.533L91.335 114L62.335 149.973Z" fill="#FAB361"/>
<path d="M150.38 302.391L169.591 174.42C169.886 172.454 171.581 171 173.576 171H189.306C191.75 171 193.632 173.152 193.296 175.564L175.781 301.835C175.526 303.675 174.038 305.1 172.184 305.28L154.756 306.98C152.147 307.234 149.993 304.975 150.38 302.391Z" fill="#02C69E"/>
<path d="M75.6987 13.8837L75.1232 11.8752C74.5415 9.84492 75.6361 7.71146 77.6226 7.00406L82.5996 5.23165C84.5415 4.54013 86.6894 5.4438 87.5565 7.31702L88.4483 9.24367C88.536 9.43293 88.6918 9.58189 88.8847 9.66056L94.3885 11.9056C96.7398 12.8648 98.8334 14.3638 100.501 16.282C102.467 18.5441 103.769 21.3076 104.264 24.2661L104.766 27.2728C104.78 27.3527 104.811 27.4285 104.857 27.4946L107.045 30.6105C107.517 31.284 107.771 32.0875 107.771 32.911V35.9355C107.771 36.9994 108.194 38.0193 108.947 38.7698L110.007 39.8263C110.759 40.5768 111.182 41.5967 111.182 42.6605V44.8635C111.182 45.9273 111.605 46.9474 112.358 47.6978L113.029 48.3668C113.496 48.8325 113.841 49.4069 114.032 50.0387L118.162 63.6576C118.787 65.7207 117.667 67.9092 115.631 68.6047L91.6738 76.7854C89.6927 77.4619 87.5266 76.49 86.7111 74.5587L81.5847 62.4186C81.4201 62.029 81.3184 61.6157 81.2832 61.1942L81.0062 57.8796C80.9433 57.1278 80.6695 56.4091 80.2163 55.8066L78.9692 54.1486C78.5642 53.6101 78.3016 52.9777 78.2059 52.3102L77.6403 48.3622C77.5476 47.7145 77.2975 47.0994 76.9121 46.5711L74.8568 43.7532C74.3573 43.0683 74.0881 42.242 74.0881 41.3938V36.446C74.0881 36.3646 74.0683 36.2844 74.0305 36.2125L71.8744 32.1081C70.284 29.0806 69.9094 25.5584 70.8274 22.2631C71.2914 20.5978 72.0725 19.0382 73.1278 17.6702L75.5834 14.4871C75.7155 14.3159 75.7584 14.0918 75.6987 13.8837Z" fill="#02C69E"/>
<path d="M111.783 263.555L118.78 261.673L111.647 249.895C110.754 248.419 111.277 246.489 112.794 245.676L122.717 240.354C124.114 239.604 125.85 240.082 126.674 241.442L133.898 253.37C134.482 254.333 134.481 255.542 133.896 256.504L124.759 271.543L121.62 276.708C121.14 277.498 120.404 278.096 119.535 278.402L116.981 279.3C116.602 279.433 116.2 279.488 115.799 279.462L109.025 279.012C107.184 278.89 105.673 280.461 105.855 282.309L106.109 284.896C106.21 285.923 104.89 286.414 104.302 285.569L95.8752 273.456C95.0751 272.307 95.1723 270.752 96.1096 269.712L106.49 258.192C107.147 257.463 108.345 258.023 108.215 258.998L108.049 260.251C107.766 262.377 109.723 264.109 111.783 263.555Z" fill="#02C69E"/>
<path d="M94.3363 224.088L89.2619 218.828L82.4721 230.898C81.6211 232.41 79.6795 232.892 78.2261 231.951L68.7138 225.789C67.3742 224.922 66.9405 223.154 67.7249 221.759L74.6014 209.535C75.1562 208.549 76.213 207.957 77.3391 208.002L94.9523 208.712L101.002 208.955C101.927 208.992 102.81 209.35 103.503 209.968L105.539 211.785C105.841 212.055 106.086 212.383 106.26 212.75L109.187 218.955C109.983 220.643 112.095 221.208 113.62 220.142L115.756 218.65C116.602 218.058 117.679 218.984 117.229 219.917L110.78 233.295C110.167 234.565 108.763 235.24 107.395 234.922L92.2457 231.392C91.2874 231.168 91.1891 229.835 92.1044 229.472L93.2805 229.005C95.2764 228.214 95.8298 225.637 94.3363 224.088Z" fill="#02C69E"/>
<path d="M73.1342 254.711L71.4269 261.759L85.184 261.083C86.9083 260.998 88.3493 262.375 88.3349 264.095L88.241 275.349C88.2277 276.935 86.9755 278.234 85.3861 278.311L71.4535 278.996C70.3294 279.052 69.2687 278.477 68.7055 277.506L59.8975 262.326L56.8723 257.112C56.4097 256.314 56.2383 255.383 56.3873 254.474L56.8251 251.802C56.8902 251.405 57.035 251.025 57.2508 250.685L60.8967 244.943C61.8881 243.382 61.2354 241.307 59.5265 240.589L57.1342 239.583C56.1851 239.184 56.3872 237.79 57.4109 237.674L72.0835 236.019C73.4767 235.862 74.7935 236.686 75.2562 238.005L80.3803 252.607C80.7045 253.53 79.6379 254.317 78.8447 253.74L77.8254 252.998C76.0958 251.739 73.6366 252.636 73.1342 254.711Z" fill="#02C69E"/>
<path d="M108.335 108.713L114.951 89.8285C115.286 88.874 116.089 88.1513 117.083 87.9083L133.094 84L151.251 92.5958L162.19 126.166C162.563 127.309 162.201 128.561 161.274 129.341L142.998 144.708L124.783 148.921C123.259 149.273 121.712 148.422 121.219 146.958L108.335 108.713Z" fill="#F26226"/>
<path d="M165.805 157H17.8652C14.2586 157 11.335 159.91 11.335 163.5C11.335 167.09 14.2586 170 17.8652 170H165.805C169.411 170 172.335 167.09 172.335 163.5C172.335 159.91 169.411 157 165.805 157Z" stroke="#282828" stroke-width="4"/>
<path d="M17.335 171L35.2045 306.391C35.4016 307.884 36.6773 309 38.1869 309H146.54M146.54 309L172.698 305.869C174.055 305.707 175.131 304.652 175.319 303.302L193.306 174.416C193.557 172.611 192.153 171 190.327 171H169.626C168.135 171 166.869 172.09 166.651 173.562L146.54 309Z" stroke="#282828" stroke-width="4"/>
<path d="M161.335 157.538C162.132 157.538 181.451 157.108 194.011 157C197.013 156.975 199.773 158.602 201.196 161.208L201.589 161.927C202.405 163.422 202.559 165.182 202.015 166.791C201.165 169.305 198.779 171 196.092 171H186.937" stroke="#282828" stroke-width="4" stroke-linecap="round"/>
<path d="M68.7757 261.942L70.987 254.435C71.589 252.391 74.0861 251.616 75.7466 252.958L77.0638 254.023C77.8246 254.638 78.9268 253.907 78.6501 252.97L73.9722 237.141C73.5772 235.803 72.3057 234.918 70.9097 235.006L55.1827 236.003C54.1582 236.068 53.8877 237.446 54.8123 237.89L57.6029 239.232C59.2662 240.031 59.8131 242.126 58.7521 243.631L54.5193 249.638C54.2884 249.966 54.126 250.337 54.0419 250.728L53.4232 253.611C53.2309 254.507 53.3551 255.442 53.7746 256.257L56.7003 261.942M56.7003 261.942L65.1589 278.379C65.6713 279.374 66.7 280 67.8233 280H82.6421C84.2288 280 85.5401 278.767 85.6312 277.19L86.3299 265.096C86.4288 263.384 85.062 261.942 83.3408 261.942H56.7003Z" stroke="#282828" stroke-width="4" stroke-linecap="round"/>
<path d="M91.0226 217.834L96.671 223.276C98.2169 224.764 97.7675 227.365 95.8136 228.236L94.281 228.919C93.3849 229.318 93.5348 230.648 94.4967 230.833L110.665 233.946C112.038 234.211 113.409 233.479 113.967 232.185L120.246 217.646C120.657 216.693 119.55 215.811 118.731 216.436L116.298 218.295C114.822 219.422 112.7 218.941 111.842 217.284L108.451 210.739C108.265 210.378 108.008 210.06 107.697 209.801L105.43 207.924C104.717 207.334 103.824 207.011 102.903 207.011L96.5305 207.008M96.5305 207.008L78.0845 207C76.9628 207 75.9349 207.634 75.4218 208.642L68.6669 221.919C67.9414 223.345 68.4421 225.096 69.8082 225.91L80.2016 232.107C81.6838 232.991 83.596 232.432 84.3831 230.885L96.5305 207.008Z" stroke="#282828" stroke-width="4" stroke-linecap="round"/>
<path d="M118.984 258.58L111.437 260.592C109.37 261.143 107.407 259.422 107.691 257.309L107.914 255.651C108.044 254.682 106.842 254.127 106.184 254.851L95.1118 267.021C94.1719 268.055 94.0743 269.6 94.8769 270.742L103.888 283.572C104.478 284.412 105.802 283.923 105.701 282.903L105.4 279.874C105.218 278.037 106.733 276.477 108.58 276.598L115.883 277.078C116.284 277.105 116.688 277.051 117.068 276.918L119.839 275.953C120.71 275.649 121.449 275.055 121.93 274.27L125.259 268.843M125.259 268.843L134.894 253.133C135.481 252.178 135.482 250.976 134.897 250.02L127.201 237.433C126.375 236.082 124.634 235.607 123.232 236.352L112.569 242.017C111.048 242.825 110.522 244.742 111.42 246.209L125.259 268.843Z" stroke="#282828" stroke-width="4" stroke-linecap="round"/>
<path d="M104.335 109.226L111.219 89.1116C111.549 88.1447 112.348 87.4114 113.339 87.1637L130 83M104.335 109.226L117.728 149.929C118.217 151.414 119.763 152.279 121.286 151.918L140.266 147.425M104.335 109.226L126.578 105.235M130 83L148.82 92.1222M130 83L126.578 105.235M140.266 147.425L159.287 131.05C160.203 130.262 160.559 129.004 160.193 127.853L148.82 92.1222M140.266 147.425L126.578 105.235M126.578 105.235L148.82 92.1222" stroke="#282828" stroke-width="4" stroke-linecap="round"/>
<path d="M36.9826 78.8359L69.2544 116.268M36.9826 78.8359L11.1568 112.626C10.0333 114.097 10.0647 116.147 11.2325 117.582L39.2473 152M36.9826 78.8359L58.4971 76M69.2544 116.268L39.2473 152M69.2544 116.268L91.335 112.866M39.2473 152L59.8466 148.826C60.8016 148.678 61.6708 148.189 62.2928 147.448L91.335 112.866M58.4971 76L91.335 112.866M58.4971 76L47.7399 90.1791" stroke="#282828" stroke-width="4" stroke-linecap="round"/>
<path d="M42.335 97L40.335 100" stroke="#282828" stroke-width="4" stroke-linecap="round"/>
<path d="M72.0238 109.472L57.518 92.5471C56.3123 91.1404 56.5248 88.9803 57.9925 87.7224C59.4602 86.4645 61.6273 86.5851 62.833 87.9918L77.3389 104.917C78.5445 106.324 78.332 108.484 76.8643 109.742C75.3966 111 73.2295 110.879 72.0238 109.472Z" stroke="#282828" stroke-width="2"/>
<path d="M51.0238 115.472L36.518 98.5471C35.3123 97.1404 35.5248 94.9803 36.9925 93.7224C38.4602 92.4645 40.6273 92.5851 41.833 93.9918L56.3389 110.917C57.5445 112.324 57.332 114.484 55.8643 115.742C54.3966 117 52.2295 116.879 51.0238 115.472Z" stroke="#282828" stroke-width="2"/>
<path d="M72.2483 11.9365L71.4982 9.30251C70.9206 7.27408 72.019 5.14682 74.013 4.43233L80.136 2.23831C82.1099 1.53098 84.2995 2.44657 85.1726 4.34443L86.2989 6.79274C86.3941 6.99992 86.5649 7.16345 86.7766 7.25035L92.7924 9.71949C95.4162 10.7965 97.7477 12.4737 99.5975 14.6153C101.752 17.1095 103.177 20.1445 103.716 23.3891L104.279 26.7794C104.294 26.8678 104.328 26.9519 104.379 27.0256L106.87 30.5955C107.339 31.2675 107.59 32.066 107.59 32.884V36.5747C107.59 37.6333 108.01 38.649 108.76 39.4006L110.18 40.8248C110.928 41.5766 111.349 42.5923 111.349 43.6508V46.474C111.349 47.5325 111.769 48.5482 112.518 49.2999L113.458 50.2424C113.924 50.7102 114.267 51.2849 114.458 51.9159L119.165 67.5359C119.785 69.5975 118.661 71.7795 116.616 72.4822L89.5587 81.7792C87.5453 82.471 85.3383 81.4869 84.5176 79.5316L78.7052 65.6812C78.5427 65.2939 78.4422 64.8837 78.4074 64.4655L78.085 60.5836C78.023 59.8362 77.7516 59.1209 77.3017 58.5191L75.7841 56.489C75.3817 55.9507 75.1215 55.3209 75.0268 54.6568L74.371 50.0503C74.2793 49.406 74.0314 48.7935 73.6488 48.2656L71.2347 44.9352C70.7392 44.2518 70.4726 43.4305 70.4726 42.5878V36.9501C70.4726 36.86 70.4508 36.7712 70.4091 36.6912L68.0338 32.1419C66.2793 28.7811 65.866 24.885 66.8768 21.234C67.3898 19.3809 68.2558 17.6432 69.4274 16.1149L72.1213 12.6013C72.2665 12.4119 72.3135 12.1656 72.2483 11.9365Z" stroke="#282828" stroke-width="4" stroke-linecap="round"/>
</g>
<defs>
<clipPath id="clip0_1051_2140">
<rect width="196" height="312" fill="white" transform="translate(8.33496)"/>
</clipPath>
</defs>
</svg>
