<svg width="340" height="305" viewBox="0 0 340 305" fill="none" xmlns="http://www.w3.org/2000/svg">
<g clip-path="url(#clip0_1051_2173)">
<path d="M249.093 122.078L240.652 123.159C234.663 123.926 229.068 126.56 224.666 130.687L219.77 135.278C216.605 138.245 214.005 141.757 212.093 145.648L209.526 150.873C207.538 154.92 207.009 159.527 208.028 163.917C208.809 167.281 210.467 170.379 212.834 172.897L215.001 175.202C217.946 178.334 221.761 180.515 225.956 181.465C232.087 182.855 238.519 181.505 243.572 177.77L250.792 172.431C253.488 170.438 256.417 168.782 259.515 167.498L274.522 161.284C279.86 159.074 284.491 155.45 287.917 150.805L292.57 144.495C293.958 142.614 294.642 140.307 294.504 137.974C294.244 133.587 291.148 129.882 286.871 128.843L281.924 127.641L274.402 126.241C272.431 125.875 270.416 125.818 268.428 126.073L264.176 126.619C261.453 126.968 258.71 126.142 256.634 124.348C254.558 122.556 251.816 121.73 249.093 122.078Z" fill="#02C69E"/>
<path d="M174.987 123.737L175.366 124.333C178.762 129.666 184.414 133.176 190.727 133.873C194.785 134.321 198.886 133.58 202.525 131.739L213.71 126.082C221.854 121.964 230.806 119.659 239.94 119.33L250.428 118.95C251.936 118.896 253.433 118.664 254.887 118.257L255.195 118.171C259.928 116.847 263.924 113.682 266.276 109.393C268.075 106.108 270.855 103.458 274.232 101.805L281.752 98.1222C281.931 98.0342 282.117 97.9599 282.308 97.8999C285.418 96.9232 286.07 92.8386 283.417 90.9542L279.406 88.105C278.963 87.791 278.464 87.5635 277.936 87.4348L274.889 86.6924C272.904 86.209 272.25 83.7332 273.74 82.3444L285.447 71.4278L297.766 61.6866C303.152 56.3659 300.206 47.2233 292.709 45.9989L281.15 44.1109C269.165 43.2451 257.271 47.4842 248.51 55.6537L242.285 61.4582C240.423 63.1946 237.366 61.9886 237.211 59.4562C237.111 57.8154 235.698 56.5616 234.045 56.647L229.748 56.869C227.614 56.9792 225.634 58.0059 224.323 59.6819L214.058 72.8004C213.937 72.9548 213.805 73.0995 213.661 73.2332L206.539 79.8744C205.221 81.1035 203.147 79.6776 203.841 78.0193C203.888 77.906 203.923 77.7879 203.945 77.667L204.027 77.2001C204.739 73.1596 201.216 69.633 197.141 70.3103L195.293 70.6177C193.501 70.9156 191.884 71.8654 190.759 73.282L179.909 86.939C176.177 91.6373 173.695 97.1933 172.693 103.095L171.833 108.158C170.916 113.56 172.039 119.107 174.987 123.737Z" fill="#02C69E"/>
<path d="M64.0215 285C70.3728 285 75.5215 279.627 75.5215 273C75.5215 266.373 70.3728 261 64.0215 261C57.6702 261 52.5215 266.373 52.5215 273C52.5215 279.627 57.6702 285 64.0215 285Z" fill="#F26226"/>
<path d="M67.9924 204.405L56.66 174.785C56.0987 173.317 57.3244 171.788 58.8729 172.024L181.915 190.746C183.969 191.059 185.124 193.29 184.198 195.156L175.183 213.319L172.699 218.567C167.854 228.801 157.163 234.917 145.918 233.888L120.737 232.516L109.115 231.878C104.403 231.619 99.7396 230.79 95.2257 229.41L88.7399 227.426C84.9349 226.263 81.4254 224.288 78.4512 221.637C75.5933 219.091 73.2932 215.976 71.6966 212.491L67.9924 204.405Z" fill="#F26226"/>
<path d="M191.521 195C195.025 193.819 274.981 178.508 314.521 171" stroke="#282828" stroke-width="4" stroke-linecap="square"/>
<path d="M156.521 247L154.177 253.937C153.334 256.432 151.79 258.62 149.738 260.224C145.129 263.832 138.75 263.932 134.034 260.473L133.049 259.751C131.265 258.442 129.789 256.744 128.727 254.78L124.521 247" stroke="#282828" stroke-width="4" stroke-linecap="round"/>
<path d="M209.229 163.711L186.146 169.642C183.095 170.427 179.92 170.599 176.802 170.151C170.953 169.31 165 170.668 160.086 173.963L143.844 184.857L113.947 205.284C111.954 206.646 109.227 206.001 108.048 203.89C107.065 202.13 107.491 199.915 109.056 198.65L136.642 176.361C142.873 171.326 147.688 164.745 150.61 157.27L158.275 137.664C161.507 129.394 166.529 121.951 172.978 115.871L193.299 94.7687C193.718 94.3343 194.286 94.077 194.887 94.0497C196.994 93.9539 198.155 96.4731 196.72 98.0254L176.807 119.564C175.862 120.586 175.069 121.743 174.454 122.994L163.034 146.254L161.262 151.211C159.826 155.226 164.409 158.699 167.858 156.209L249.098 79.5999C249.747 78.9881 250.698 78.8282 251.51 79.1944C252.931 79.8355 253.26 81.7147 252.142 82.8039L175.195 157.73C173.975 158.918 173.673 160.768 174.45 162.285C175.13 163.608 176.503 164.424 177.985 164.384L193.041 163.973L209.229 163.711ZM209.229 163.711C215.227 170.128 224.52 172.21 232.665 168.963L260.521 157.855M209.229 163.711L255.557 136.029" stroke="#282828" stroke-width="4" stroke-linecap="round"/>
<path d="M80.8545 215.512L68.6613 183.792C68.0966 182.322 69.3242 180.789 70.8769 181.024L202.907 201.02C204.969 201.332 206.128 203.57 205.195 205.44L195.443 224.996L192.814 230.523C187.617 241.45 176.184 247.977 164.159 246.881L137.24 245.421L124.805 244.742C119.774 244.467 114.795 243.586 109.975 242.118L103.016 240C98.9599 238.766 95.2172 236.669 92.0426 233.854C88.9826 231.139 86.5183 227.817 84.8062 224.098L80.8545 215.512Z" stroke="#282828" stroke-width="4"/>
<path d="M205.521 202.167L169.167 182.831L104.456 175.901L50.8665 168.023C49.3124 167.795 48.0922 169.335 48.6656 170.803L54.6497 186.116L63.0112 205.085L65.6652 210.272C68.4744 215.761 72.3133 220.655 76.971 224.684C79.2926 226.693 81.8014 228.471 84.4628 229.998L93.1857 235" stroke="#282828" stroke-width="4"/>
<path d="M29.5215 264.698C30.3945 265.865 36.1901 269.317 38.9788 270.896C52.8821 272.818 67.035 271.732 80.4845 267.712L80.8094 267.615L122.276 249.021L128.617 247.079C132.947 245.753 137.622 246.178 141.644 248.263C144.442 249.713 146.791 251.9 148.442 254.588L154.65 264.698L160.703 272.221C162.625 274.611 165.524 276 168.586 276C171.517 276 174.305 274.727 176.229 272.511L178.518 269.871C179.813 268.377 180.852 266.677 181.591 264.841L189.569 245.01L198.662 225.323L203.743 216.108C205.401 213.101 208.011 210.734 211.162 209.381C212.997 208.593 214.966 208.169 216.96 208.133L336.521 206" stroke="#282828" stroke-width="4" stroke-linecap="square"/>
<path d="M91.5215 236L70.5215 247" stroke="#282828" stroke-width="4" stroke-linecap="round"/>
<path d="M85.5215 272C85.5215 285.916 74.8942 297 62.0215 297C49.1489 297 38.5215 285.916 38.5215 272C38.5215 258.083 49.1489 247 62.0215 247C74.8942 247 85.5215 258.083 85.5215 272Z" stroke="#282828" stroke-width="4"/>
<path d="M77.5215 271.5C77.5215 279.593 71.1684 286 63.5215 286C55.8745 286 49.5215 279.593 49.5215 271.5C49.5215 263.407 55.8745 257 63.5215 257C71.1684 257 77.5215 263.407 77.5215 271.5Z" stroke="#282828" stroke-width="4"/>
<path d="M69.5215 246.28C69.3842 246.211 68.9899 246.021 68.4334 245.754C63.6494 243.455 58.3058 242.577 53.0344 243.19C48.0112 243.774 43.1945 245.649 39.3055 248.883C37.3723 250.49 35.761 251.94 35.4773 252.508C35.2808 252.901 34.749 253.855 34.0645 255.061C31.2162 260.075 30.0077 265.865 30.7227 271.59C30.9632 273.515 31.416 275.408 32.0728 277.233L32.6132 278.736C33.7743 281.962 35.6755 284.873 38.1641 287.233C40.2571 289.216 42.7206 290.769 45.4136 291.798L53.7806 295" stroke="#282828" stroke-width="4" stroke-linecap="round"/>
<path d="M169.987 121.737L170.366 122.333C173.762 127.665 179.413 131.175 185.727 131.873C189.785 132.321 193.886 131.579 197.525 129.74L208.709 124.083C216.854 119.963 225.806 117.658 234.94 117.329L245.428 116.951C246.936 116.896 248.433 116.663 249.886 116.257L250.194 116.171C254.928 114.848 258.924 111.683 261.276 107.392C263.075 104.109 265.855 101.458 269.232 99.8044L276.751 96.1223C276.93 96.0342 277.117 95.9599 277.308 95.8998C280.418 94.9232 281.07 90.8385 278.417 88.9541L274.405 86.1051C273.963 85.791 273.464 85.5635 272.936 85.4348L269.888 84.6923C267.904 84.2089 267.25 81.7331 268.739 80.3443L280.447 69.4279L292.766 59.6866C298.152 54.3659 295.206 45.2234 287.709 43.999L276.15 42.1109C264.165 41.2451 252.271 45.4841 243.51 53.6538L237.285 59.4581C235.422 61.1946 232.365 59.9886 232.211 57.4563C232.111 55.8154 230.697 54.5616 229.045 54.6471L224.748 54.869C222.613 54.9792 220.634 56.0059 219.322 57.6819L209.057 70.8005C208.937 70.9548 208.805 71.0995 208.661 71.2333L201.538 77.8743C200.22 79.1036 198.146 77.6775 198.841 76.0194C198.888 75.9061 198.923 75.7879 198.944 75.667L199.027 75.2001C199.739 71.1596 196.216 67.633 192.141 68.3103L190.292 68.6177C188.501 68.9157 186.884 69.8654 185.759 71.2819L174.909 84.939C171.176 89.6373 168.695 95.1932 167.692 101.095L166.833 106.158C165.916 111.56 167.039 117.108 169.987 121.737Z" stroke="#282828" stroke-width="4" stroke-linecap="round"/>
<path d="M252.138 118L253.006 120.721C253.909 123.551 257.124 124.9 259.77 123.561C260.26 123.314 260.786 123.152 261.329 123.082L266.942 122.359C270.847 121.857 274.807 121.968 278.677 122.691L284.055 123.695L289.343 124.984C293.915 126.099 297.225 130.072 297.503 134.777C297.65 137.28 296.919 139.754 295.436 141.773L290.461 148.54C286.799 153.523 281.848 157.409 276.144 159.78L260.101 166.447C256.789 167.822 253.657 169.599 250.777 171.737L243.058 177.462C237.657 181.47 230.781 182.917 224.228 181.426C219.743 180.407 215.665 178.067 212.517 174.708L210.2 172.236C207.67 169.536 205.897 166.213 205.063 162.606C203.973 157.896 204.539 152.954 206.663 148.614L209.408 143.009C211.452 138.836 214.232 135.068 217.614 131.886L230.088 120.152" stroke="#282828" stroke-width="4" stroke-linecap="round"/>
<path d="M86.9925 215.406L75.66 185.786C75.0987 184.318 76.3244 182.789 77.8729 183.024L200.916 201.746C202.969 202.059 204.124 204.29 203.198 206.157L194.183 224.319L191.698 229.567C186.854 239.801 176.162 245.917 164.918 244.888L139.737 243.515L128.115 242.877C123.403 242.619 118.74 241.79 114.226 240.41L107.74 238.426C103.935 237.262 100.425 235.288 97.4513 232.637C94.5933 230.09 92.2933 226.976 90.6967 223.491L86.9925 215.406Z" fill="#F26226"/>
<path d="M138.891 177L125.521 187.544L133.933 189L149.521 178.491L138.891 177Z" fill="white"/>
</g>
<circle cx="5.5605" cy="299.561" r="4" transform="rotate(34.4162 5.5605 299.561)" fill="#B1E275"/>
<circle cx="239.561" cy="237.561" r="4" transform="rotate(34.4162 239.561 237.561)" fill="#B1E275"/>
<circle cx="2" cy="2" r="2" transform="matrix(-0.487382 0.873189 0.873189 0.487382 286.521 185)" fill="#EE693F"/>
<circle cx="2" cy="2" r="2" transform="matrix(-0.487382 0.873189 0.873189 0.487382 294.521 156)" fill="#EE693F"/>
<circle cx="23.8816" cy="215.195" r="2" transform="rotate(-127.685 23.8816 215.195)" fill="#EE693F"/>
<circle cx="18.6019" cy="128.584" r="6" transform="rotate(-127.685 18.6019 128.584)" fill="#F9C8A8"/>
<circle cx="85.7418" cy="133.82" r="2" transform="rotate(40.5323 85.7418 133.82)" fill="#B1E275"/>
<defs>
<clipPath id="clip0_1051_2173">
<rect width="311" height="299" fill="white" transform="translate(27.5215)"/>
</clipPath>
</defs>
</svg>
