<svg width="270" height="296" viewBox="0 0 270 296" fill="none" xmlns="http://www.w3.org/2000/svg">
<g clip-path="url(#clip0_1051_2115)">
<path d="M142.071 72.6544L142.094 79.3554C142.094 79.4257 142.145 79.4855 142.214 79.4971L150.007 80.8022C152.218 81.1724 154.483 81.0215 156.626 80.3616C158.767 79.7017 160.727 78.5509 162.348 77.0002L163.689 75.718C165.188 74.2853 166.479 72.6501 167.528 70.8597L169.021 68.3093C170.71 65.4232 172.061 62.351 173.048 59.1539L177.067 46.1269C177.086 46.0627 177.038 45.9981 176.971 46C173.665 46.0961 170.394 46.6961 167.269 47.7797L163.403 49.1201C159.907 50.3322 156.623 52.0865 153.67 54.3189L149.642 57.3634C146.59 59.67 144.302 62.8446 143.076 66.4736C142.404 68.4643 142.064 70.5528 142.071 72.6544Z" fill="#02C69E"/>
<path d="M131.999 46.3926L136.839 50.9609C136.89 51.0088 136.968 51.0132 137.023 50.9714L143.322 46.2543C145.108 44.9163 146.557 43.1818 147.555 41.1881C148.553 39.1945 149.072 36.9965 149.071 34.7681L149.07 32.9256C149.069 30.8667 148.78 28.8179 148.212 26.8386L147.403 24.0188C146.487 20.8278 145.204 17.753 143.581 14.8557L136.967 3.04976C136.934 2.99163 136.854 2.98268 136.809 3.0322C134.605 5.47745 132.788 8.24325 131.419 11.2345L129.726 14.9343C128.195 18.2801 127.199 21.8449 126.775 25.4985L126.197 30.4813C125.759 34.2562 126.471 38.0752 128.241 41.4405C129.212 43.2865 130.482 44.9598 131.999 46.3926Z" fill="#02C69E"/>
<path d="M119.579 82.9485L126.138 82.4578C126.206 82.4527 126.261 82.3981 126.268 82.3286L127.007 74.4884C127.217 72.2646 126.912 70.0218 126.118 67.9377C125.324 65.8538 124.062 63.9857 122.432 62.4814L121.084 61.2377C119.577 59.8479 117.887 58.6775 116.062 57.7604L113.462 56.4539C110.52 54.9754 107.419 53.8463 104.22 53.0888L91.1894 50.0026C91.1252 49.9874 91.0653 50.0406 91.0718 50.1071C91.3942 53.3872 92.2079 56.5985 93.4849 59.6304L95.0643 63.3805C96.4927 66.772 98.4371 69.9155 100.827 72.6965L104.086 76.4893C106.555 79.3626 109.821 81.4158 113.459 82.3811C115.454 82.9107 117.522 83.1024 119.579 82.9485Z" fill="#02C69E"/>
<path d="M176.289 213.662C177.517 220.26 179.493 229.713 179.61 231C185.148 230.687 195.188 228.643 195.59 228.608C195.942 228.577 200.091 227.055 202.819 225.515C203.527 225.116 204.159 224.603 204.756 224.058L207.301 221.737C208.989 220.195 209.986 218.056 210.066 215.791C210.167 212.965 208.837 210.273 206.514 208.608L206.171 208.361C203.659 206.559 200.362 206.205 197.514 207.431L194.805 208.596L194.437 204.497C194.196 201.817 192.442 199.5 189.903 198.505C187.877 197.712 185.596 197.858 183.693 198.904L182.142 199.757C179.51 201.203 177.6 203.65 176.858 206.525L176.507 207.885C176.019 209.775 175.933 211.743 176.289 213.662Z" fill="#F26225"/>
<path d="M124.81 153.657V153.945C124.81 154.735 125.127 155.491 125.682 156.059C126.753 157.155 128.068 158.553 128.281 158.976C128.533 159.479 131.868 158.877 133.949 158.418C134.332 158.333 134.692 158.169 135.011 157.942L135.737 157.427C136.505 156.881 137.488 156.725 138.391 157.005L142.177 158.182C142.399 158.25 142.612 158.345 142.812 158.463L149.437 162.357C149.901 162.63 150.282 163.021 150.542 163.49L153.964 169.678C155.352 172.671 158.267 178.724 158.823 179C159.198 179.187 159.914 180.123 160.517 180.994C161 181.693 161.734 182.188 162.57 182.358C164.698 182.789 167.64 183.507 168.541 184.179C169.929 185.215 168.194 187.286 167.846 187.977C167.499 188.667 162.988 192.809 161.946 193.5C160.906 194.191 157.434 198.333 156.393 200.059C155.352 201.786 158.129 204.893 158.129 205.929C158.129 206.645 157.783 208.788 157.539 210.173C157.471 210.562 157.324 210.932 157.107 211.264C155.524 213.69 152.835 217.842 152.576 218.357C152.314 218.88 150.379 222.523 149.288 224.573C149.166 224.802 149.075 225.045 149.017 225.297L148.217 228.744C148.116 229.179 147.918 229.587 147.637 229.936L144.404 233.955C144.073 234.367 143.64 234.684 143.145 234.873C140.921 235.722 137.452 237 136.958 237C136.263 237 134.181 234.238 133.834 233.548C133.556 232.996 130.942 227.564 129.669 224.916C128.397 221.694 125.99 215.043 126.546 214.214C127.014 213.516 128.009 211.62 128.656 210.354C128.867 209.942 128.975 209.485 128.975 209.024V203.244C128.975 202.324 128.547 201.455 127.816 200.89L126.476 199.852C126.067 199.536 125.747 199.119 125.547 198.644L124.116 195.226C123.306 193.73 121.617 190.601 121.34 190.048C121.077 189.527 118.526 189.784 117.074 190.008C116.909 190.034 116.744 190.048 116.578 190.048H106.422C105.538 190.048 104.698 189.662 104.125 188.992L99.3785 183.437C99.2117 183.242 99.0709 183.026 98.9596 182.795L95.3663 175.349C95.1032 174.804 95.0131 174.192 95.108 173.596L95.8957 168.632C95.9667 168.185 96.1395 167.759 96.4009 167.388L100.863 161.047C102.598 158.862 106.207 154.419 106.763 154.143C107.457 153.797 115.439 150 116.134 150C116.539 150 119.555 150.367 122.19 150.701C123.69 150.89 124.81 152.157 124.81 153.657Z" fill="#02C69E"/>
<path d="M55.2398 171.759L53.6589 169.551C53.3251 169.085 53.1299 168.531 53.0966 167.956L52.0764 150.342C52.0459 149.815 52.1521 149.29 52.3845 148.818L59.3596 134.649C59.4409 134.485 59.537 134.327 59.6467 134.179L70.4302 119.695C70.8209 119.17 71.3699 118.79 71.9935 118.612L80.7414 116.113C82.0446 115.74 83.4307 116.312 84.1105 117.501L88.6701 125.476C89.271 126.527 89.1913 127.842 88.4681 128.81L81.4651 138.185L72.1528 154.555C71.9066 154.988 71.558 155.351 71.1388 155.614L64.6713 159.655C63.2547 160.541 62.8314 162.436 63.7331 163.855L66.5901 168.353C67.8639 170.357 66.4465 173 64.097 173H57.6392C56.69 173 55.7982 172.538 55.2398 171.759Z" fill="#02C69E"/>
<path d="M110.786 114.656L133.211 107.045C133.211 107.045 133.214 107.044 133.215 107.042C140.166 98.2378 151.633 94.2212 162.622 96.7421L163.977 97.0531C166.694 97.6764 169.315 98.6578 171.769 99.9715L178.983 103.832C185.273 107.198 191.104 111.343 196.338 116.167L197.26 117.018C201.704 121.114 205.622 125.735 208.928 130.778C213.599 137.902 216.986 145.775 218.94 154.047L219.071 154.599C219.072 154.605 219.072 154.61 219.069 154.615C217.809 156.83 213.329 161.353 212.486 161.66C212.013 161.833 211.177 163.55 210.376 165.478C210.028 166.316 208.68 166.091 208.663 165.186C208.661 165.072 208.636 164.965 208.588 164.862C206.468 160.349 202.152 151.194 201.279 149.481C200.175 147.316 195.612 149.226 192.081 149.658C190.718 149.825 190.413 150.713 190.599 151.776C190.928 153.659 190.503 155.834 188.728 156.581L173.855 162.849C172.385 163.469 170.684 162.841 170.071 161.378C168.116 156.717 166.382 151.233 164.426 150.453C162.456 149.668 160.904 145.555 159.809 143.198C159.617 142.787 159.32 142.437 158.956 142.162L148.814 134.52C148.443 134.24 148.013 134.05 147.555 133.964L130.327 130.711C129.866 130.624 129.391 130.645 128.94 130.773L117.79 133.913C117.364 134.033 116.97 134.244 116.636 134.533L111.311 139.126C109.547 140.648 106.783 139.684 106.369 137.402L105.119 130.513C105.036 130.058 105.061 129.591 105.192 129.147L108.87 116.645C109.145 115.712 109.859 114.971 110.786 114.656Z" fill="#02C69E"/>
<path d="M104.169 113.609L128.373 106.11L128.377 106.107C136.02 97.0436 148.107 93.0869 159.607 95.884L161.426 96.3265C164.322 97.0308 167.114 98.1109 169.731 99.5391L177.502 103.78C184.027 107.341 190.08 111.71 195.518 116.786L196.708 117.896C201.271 122.155 205.291 126.964 208.676 132.214C213.552 139.775 217.046 148.148 218.994 156.941L219.07 157.288C219.072 157.294 219.071 157.3 219.068 157.305C217.676 159.583 212.798 164.198 211.892 164.501C211.381 164.673 210.443 166.463 209.543 168.466C209.146 169.349 207.736 169.073 207.736 168.105C207.736 167.979 207.71 167.858 207.657 167.744C205.487 163.004 201.073 153.408 200.178 151.61C199.044 149.334 194.131 151.23 190.352 151.61C188.736 151.772 188.488 152.88 188.799 154.146C189.241 155.947 188.856 158.048 187.202 158.877L174.174 165.413C172.678 166.164 170.858 165.546 170.122 164.038C167.441 158.548 163.654 150.862 163.142 150.093C162.61 149.29 160.665 145.478 159.435 143.029C159.142 142.445 158.671 141.972 158.089 141.68L144.373 134.799C144.04 134.632 143.68 134.528 143.31 134.493L124.537 132.717C124.079 132.674 123.617 132.736 123.187 132.9L114.008 136.392C113.285 136.668 112.695 137.213 112.361 137.913L110.993 140.782C109.989 142.889 107.085 143.103 105.784 141.168L98.5857 130.459C98.0677 129.688 97.9324 128.721 98.2186 127.838L102.195 115.561C102.498 114.627 103.234 113.899 104.169 113.609Z" stroke="#282828" stroke-width="4"/>
<path d="M55.2398 171.759L53.6589 169.551C53.3251 169.085 53.1299 168.531 53.0966 167.956L52.0764 150.342C52.0459 149.815 52.1521 149.29 52.3845 148.818L59.3596 134.649C59.4409 134.484 59.537 134.327 59.6467 134.18L70.4302 119.695C70.8208 119.17 71.3699 118.789 71.9936 118.612L80.7414 116.113C82.0447 115.741 83.4307 116.311 84.1105 117.501L88.6701 125.476C89.2711 126.526 89.1913 127.842 88.4681 128.81L81.4651 138.186L72.1528 154.555C71.9065 154.988 71.558 155.351 71.1388 155.613L64.6713 159.655C63.2547 160.541 62.8314 162.435 63.7331 163.856L66.5901 168.353C67.8639 170.358 66.4465 173 64.097 173H57.6392C56.69 173 55.7981 172.538 55.2398 171.759Z" stroke="#282828" stroke-width="4"/>
<path d="M172.303 210.611C173.602 217.61 175.695 227.634 175.817 229C181.682 228.668 192.312 226.5 192.737 226.463C193.111 226.431 197.504 224.816 200.392 223.182C201.142 222.759 201.81 222.216 202.443 221.638L205.137 219.175C206.926 217.54 207.979 215.271 208.066 212.869C208.172 209.871 206.763 207.017 204.304 205.25L203.941 204.989C201.281 203.078 197.791 202.702 194.775 204.001L191.906 205.237L191.517 200.89C191.262 198.049 189.405 195.59 186.716 194.535C184.571 193.695 182.157 193.85 180.142 194.96L178.5 195.862C175.713 197.396 173.69 199.992 172.904 203.041L172.533 204.484C172.016 206.489 171.925 208.576 172.303 210.611Z" stroke="#282828" stroke-width="4"/>
<path d="M135.071 269C183.672 269 223.071 229.601 223.071 181C223.071 132.399 183.672 93 135.071 93C86.4702 93 47.0713 132.399 47.0713 181C47.0713 229.601 86.4702 269 135.071 269Z" stroke="#282828" stroke-width="4"/>
<path d="M122.227 147.766V148.411C122.227 149.207 122.543 149.97 123.096 150.54C124.266 151.747 125.744 153.329 125.979 153.801C126.254 154.354 129.914 153.682 132.159 153.179C132.538 153.094 132.894 152.931 133.211 152.703L134.149 152.03C134.91 151.484 135.883 151.328 136.776 151.608L141.03 152.944C141.25 153.013 141.461 153.107 141.659 153.225L148.911 157.53C149.371 157.804 149.75 158.197 150.008 158.668L153.741 165.487C155.242 168.755 158.394 175.364 158.993 175.667C159.414 175.878 160.227 176.964 160.891 177.942C161.369 178.645 162.095 179.14 162.924 179.308C165.234 179.776 168.507 180.575 169.498 181.321C170.998 182.452 169.123 184.714 168.748 185.468C168.372 186.222 163.495 190.746 162.37 191.5C161.244 192.254 157.492 196.778 156.367 198.662C155.242 200.547 158.243 203.94 158.243 205.071C158.243 205.861 157.861 208.244 157.598 209.756C157.529 210.147 157.382 210.52 157.166 210.855C155.459 213.497 152.521 218.078 152.241 218.642C151.956 219.215 149.848 223.226 148.671 225.46C148.549 225.69 148.459 225.934 148.401 226.188L147.516 230.039C147.416 230.479 147.218 230.889 146.938 231.24L143.363 235.731C143.034 236.143 142.604 236.461 142.113 236.652C139.713 237.578 135.898 239 135.358 239C134.607 239 132.356 235.984 131.981 235.23C131.681 234.627 128.855 228.696 127.479 225.806C126.104 222.287 123.503 215.023 124.103 214.119C124.616 213.346 125.713 211.233 126.412 209.85C126.622 209.435 126.729 208.975 126.729 208.509V202.015C126.729 201.089 126.303 200.215 125.576 199.646L123.973 198.394C123.566 198.076 123.248 197.657 123.05 197.179L121.477 193.385C120.601 191.751 118.775 188.334 118.475 187.73C118.191 187.158 115.408 187.445 113.841 187.69C113.679 187.716 113.516 187.73 113.351 187.73H102.224C101.348 187.73 100.515 187.343 99.9478 186.673L94.7146 180.486C94.5487 180.29 94.4085 180.072 94.2976 179.84L90.3654 171.609C90.1031 171.06 90.0133 170.443 90.1078 169.842L90.9805 164.288C91.0513 163.837 91.2235 163.408 91.4839 163.035L96.3405 156.063C98.2163 153.676 102.118 148.825 102.718 148.524C103.469 148.147 112.097 144 112.848 144C113.298 144 116.725 144.423 119.626 144.793C121.114 144.985 122.227 146.258 122.227 147.766Z" stroke="#282828" stroke-width="4"/>
<path d="M128.992 45.39L133.83 49.9608C133.88 50.0087 133.958 50.0132 134.014 49.9714L140.315 45.2577C142.102 43.9208 143.553 42.187 144.552 40.1939C145.551 38.2008 146.071 36.0031 146.071 33.7748V31.9323C146.071 29.8733 145.784 27.8244 145.216 25.8447L144.409 23.0245C143.495 19.8331 142.214 16.7575 140.592 13.8593L133.984 2.0498C133.951 1.99165 133.871 1.98266 133.826 2.03217C131.621 4.47621 129.802 7.24101 128.431 10.2315L126.736 13.9304C125.203 17.2754 124.205 20.8395 123.779 24.493L123.198 29.4754C122.758 33.2501 123.468 37.0695 125.236 40.4357C126.206 42.2823 127.475 43.9563 128.992 45.39Z" stroke="#282828" stroke-width="4"/>
<path d="M139.071 72.6544L139.094 79.3554C139.094 79.4256 139.145 79.4854 139.214 79.4971L147.007 80.8022C149.217 81.1724 151.483 81.0216 153.625 80.3617C155.767 79.7018 157.727 78.5508 159.348 77.0002L160.689 75.718C162.188 74.2853 163.479 72.6501 164.528 70.8597L166.02 68.3094C167.71 65.4232 169.061 62.351 170.048 59.1539L174.067 46.1269C174.087 46.0627 174.037 45.9981 173.971 46C170.665 46.096 167.394 46.6961 164.269 47.7797L160.403 49.1201C156.907 50.3322 153.623 52.0865 150.67 54.3188L146.642 57.3634C143.59 59.67 141.302 62.8446 140.076 66.4736C139.404 68.4643 139.064 70.5528 139.071 72.6544Z" stroke="#282828" stroke-width="4"/>
<path d="M121.244 78.9758L127.908 78.6424C127.978 78.6389 128.035 78.5866 128.043 78.5185L128.971 70.8411C129.234 68.6635 128.977 66.4557 128.219 64.3926C127.46 62.3296 126.222 60.4678 124.603 58.9549L123.264 57.7038C121.767 56.3059 120.079 55.1192 118.249 54.1779L115.641 52.8371C112.69 51.3198 109.569 50.1416 106.342 49.326L93.1931 46.0031C93.1284 45.9867 93.0664 46.0376 93.0716 46.103C93.3241 49.3292 94.0765 52.499 95.3029 55.5032L96.8198 59.2191C98.1917 62.5795 100.093 65.7083 102.454 68.4915L105.674 72.2871C108.113 75.1626 111.379 77.2513 115.048 78.2808C117.06 78.8455 119.153 79.0803 121.244 78.9758Z" stroke="#282828" stroke-width="4"/>
<path d="M133.821 50C133.821 50.6074 133.821 70.2469 133.821 79.9907M133.821 79.9907L139.071 79.2315M133.821 79.9907L127.071 78.8518M133.821 79.9907V91" stroke="#282828" stroke-width="4"/>
<path d="M79.3674 208.382L74.8987 205.763C70.622 203.256 64.0142 203.574 59.569 205.765C56.1069 207.472 55.8386 210.086 56.1845 213.944L56.4035 216.388C56.7567 220.328 58.1773 224.096 60.5113 227.282L70.1824 240.485C71.1009 241.738 72.1828 242.863 73.399 243.828L90.0136 257.006C91.7854 258.412 95.9461 258.452 96.6879 256.31C97.5146 253.923 93.6048 241.364 93.4604 240.243C93.3158 239.122 99.6372 238.3 103.487 235.9C107.336 233.501 103.04 229.502 102.427 227.682C101.993 226.395 100.035 222.626 98.7887 220.301C98.4942 219.752 98.2361 219.184 98.0197 218.6L97.9791 218.49C96.1079 213.428 91.2813 210.086 85.9067 210.131C83.6102 210.149 81.351 209.545 79.3674 208.382Z" fill="#02C69E" stroke="#282828" stroke-width="4"/>
</g>
<circle cx="2" cy="2" r="2" transform="matrix(-0.487382 0.873189 0.873189 0.487382 108.072 290)" fill="#EE693F"/>
<circle cx="5.03578" cy="139.423" r="4" transform="rotate(162.101 5.03578 139.423)" fill="#F9C8A8"/>
<circle cx="2" cy="2" r="2" transform="matrix(-0.487382 0.873189 0.873189 0.487382 246.072 226)" fill="#EE693F"/>
<circle cx="4" cy="4" r="4" transform="matrix(0.732156 -0.681136 -0.681136 -0.732156 265.072 157)" fill="#F69453"/>
<circle cx="27.0715" cy="290" r="6" fill="#F69453"/>
<defs>
<clipPath id="clip0_1051_2115">
<rect width="181" height="271" fill="white" transform="translate(45.0713)"/>
</clipPath>
</defs>
</svg>
