<svg width="305" height="245" viewBox="0 0 305 245" fill="none" xmlns="http://www.w3.org/2000/svg">
<ellipse cx="45.393" cy="15" rx="3.99505" ry="4" fill="#F9C8A8"/>
<ellipse cx="3.99735" cy="3.99771" rx="3.99735" ry="3.99771" transform="matrix(0.731736 -0.681588 -0.680685 -0.732577 293.086 38)" fill="#B1E275"/>
<ellipse cx="3.99735" cy="3.99771" rx="3.99735" ry="3.99771" transform="matrix(0.731736 -0.681588 -0.680685 -0.732577 5.44238 215)" fill="#F69453"/>
<ellipse cx="128.29" cy="30" rx="1.99753" ry="2" fill="#B1E275"/>
<ellipse cx="1.99867" cy="1.99885" rx="1.99867" ry="1.99885" transform="matrix(0.731736 -0.681588 -0.680685 -0.732577 302.075 56)" fill="#EE693F"/>
<g clip-path="url(#clip0_1051_1875)">
<path d="M185.268 78.8037L185.361 78.8194C187.756 79.2262 190.221 78.9423 192.454 78.0024C195.467 76.7341 197.847 74.3605 199.079 71.3947L199.22 71.057C199.868 69.497 200.201 67.8295 200.201 66.1462V59.9889C200.201 57.0445 199.458 54.1454 198.038 51.5476L196.638 48.9881C195.656 47.1935 194.099 45.7616 192.205 44.9109L191.991 44.8151C189.195 43.5593 185.937 43.7648 183.33 45.3613C182.401 45.9305 181.585 46.6587 180.921 47.5108L179.494 49.3411C178.107 51.1209 177.356 53.2951 177.356 55.5307V57.1183C177.356 58.5965 176.8 60.0234 175.795 61.1293C174.536 62.5135 173.997 64.3835 174.331 66.2046L174.81 68.8186C175.148 70.6625 175.942 72.3983 177.123 73.8756L177.365 74.178C179.319 76.6231 182.136 78.2718 185.268 78.8037Z" fill="#FAB361"/>
<path d="M216.599 39.1443L217.334 38.6502C217.767 38.3596 218.234 38.1206 218.741 38.0003C220.103 37.6766 222.259 37.4434 223.786 38.2125C226.106 39.3803 225.526 40.5481 226.106 44.6353C226.686 48.7226 227.266 47.5549 230.166 48.7227C233.065 49.8905 233.646 46.387 234.805 46.387C236.312 46.387 237.287 48.5565 238.782 48.3683L241.968 47.9673C243.976 47.7146 245.98 48.6106 246.983 50.3783C247.786 51.7911 248.414 53.123 248.145 53.394C247.706 53.8353 251.719 55.7009 254.12 56.7264C254.366 56.831 254.524 57.0717 254.524 57.3392C254.524 57.7291 254.856 58.0349 255.242 57.9968C257.552 57.7684 261.393 57.3172 262.644 56.8974C263.762 56.5223 264.954 54.8673 265.681 53.6251C265.991 53.0945 266.344 52.588 266.777 52.1524L267.465 51.4588C268.091 50.8285 268.444 49.9716 268.444 49.0806C268.444 47.5096 269.528 46.1444 271.054 45.8032C272.578 45.4619 273.663 44.1016 273.663 42.5304V41.6948C273.663 40.9538 273.921 40.2363 274.392 39.6667C275.564 38.2507 275.221 36.2055 273.924 34.904C273.473 34.4516 273.283 34.1251 273.663 34.1251C273.897 34.1251 274.161 33.9266 274.434 33.6046C275.898 31.8785 273.215 29.8543 272.503 27.702C271.923 25.9502 271.343 24.7826 270.184 23.0307C269.681 22.2728 268.528 22.28 267.24 22.3431C263.97 22.5029 260.318 22.4405 258.004 20.1113C257.424 19.5275 258.004 17.7755 258.004 16.0238V14.7576C258.004 14.1464 257.552 13.6313 256.949 13.5554L256.595 13.5108C255.559 13.3805 255.284 11.9996 256.191 11.4783C256.812 11.1208 256.926 10.2672 256.42 9.75772L255.425 8.7557C254.869 8.19622 254.048 7.98607 253.292 8.20355C251.883 8.60875 250.465 7.54984 250.465 6.07642V5.87692C250.465 5.2703 250.225 4.68848 249.799 4.25929L249.456 3.9138C248.526 2.97763 246.957 3.23355 246.369 4.41733C245.803 5.55856 244.313 5.847 243.365 4.99898L242.074 3.84414C240.891 2.78495 239.126 2.75404 237.768 3.57493C236.811 4.1535 235.74 4.69442 234.805 4.92956C232.358 5.54579 230.134 7.8491 227.611 7.8491H225.526C223.786 7.8491 222.626 6.68129 221.467 6.68129C221.207 6.68129 220.698 6.74232 220.058 6.83874C216.42 7.3871 213.157 12.4248 209.867 10.7687C209.132 10.3982 207.617 12.2077 206.54 13.7489C206.052 14.4464 205.911 15.3224 206.094 16.1547L206.582 18.3611C206.78 19.2593 206.1 20.1113 205.185 20.1113C204.528 20.1113 203.956 20.5607 203.797 21.2012L203.316 23.1377C203.055 24.1889 203.23 25.3016 203.801 26.2207L205.138 28.3756C205.56 29.0553 205.644 29.8938 205.364 30.6442L205.269 30.8995C204.687 32.4604 205.835 34.1251 207.492 34.1251C208.804 34.1251 209.867 35.1942 209.867 36.5131V36.6518C209.867 37.6083 210.405 38.4829 211.255 38.9111L212.258 39.4161C213.648 40.116 215.306 40.0123 216.599 39.1443Z" fill="#00CAA1"/>
<path d="M78.5564 230.969C74.3845 215.705 135.232 213.553 162.687 215.705L185.632 222.163L202.105 223.925L220.343 226.273C226.814 230.97 223.873 234.257 220.343 237.427C214.46 242.711 191.515 242.711 178.572 242.711C162.687 242.711 139.742 244.472 127.976 244.472C94.4411 247.408 80.3214 237.427 78.5564 230.969Z" fill="#F9C8A8"/>
<path d="M116.595 90.8948L115.223 94.7735M116.595 90.8948C123.406 97.5397 131.224 103.122 139.601 107.634C143.377 109.667 146.882 111.5 148.864 112.242C154.351 114.295 193.602 126.71 194.745 126.71C195.888 126.71 240.563 134.246 242.621 134.246C244.049 134.246 259.525 134.793 269.772 134.939C272.279 134.974 274.456 133.259 275.05 130.823M116.595 90.8948L118.443 84.8014M115.223 94.7735L115.402 94.9108C120.441 98.7902 123.879 104.388 125.061 110.638L125.311 111.961C125.445 112.67 125.513 113.389 125.513 114.11V121.044C125.513 122.106 124.809 123.038 123.789 123.328C122.89 123.585 121.924 123.289 121.322 122.574L111.565 110.973M115.223 94.7735L107.678 88.1569L104.342 84.3943C103.231 83.1411 103.185 81.2692 104.233 79.9624C105.294 78.6387 107.162 78.2877 108.631 79.1359L118.443 84.8014M275.05 130.823L275.384 128.943C276.248 124.09 280.467 120.555 285.394 120.555C289.395 120.555 293.025 122.903 294.667 126.554L296.136 129.822C298.334 134.711 296.589 140.472 292.049 143.317C290.79 144.105 289.381 144.624 287.912 144.839L285.463 145.199C283.408 145.5 281.408 146.088 279.506 146.922C274.659 149.049 268.097 151.814 267.046 151.814M275.05 130.823C276.126 126.659 279.882 123.75 284.181 123.75H284.702C285.124 123.75 285.546 123.799 285.958 123.897L287.498 124.263C289.047 124.632 290.14 126.015 290.14 127.607C290.14 129 289.299 130.256 288.01 130.785L283.31 132.717C282.682 132.974 282.031 133.174 281.366 133.313L276.879 134.246L273.22 135.184M275.05 130.823L273.22 135.184M118.443 84.8014C120.001 84.8014 120.867 82.9974 119.893 81.7805L117.153 78.3585C116.786 77.8995 116.321 77.5281 115.792 77.2711L111.684 75.274C109.091 74.0135 106.146 73.6758 103.335 74.3169L101.895 74.6454C100.446 74.9758 99.1245 75.7195 98.09 76.7863C95.1653 79.8019 94.478 85.1601 96.4523 88.8687C99.2055 94.0407 102.574 100.423 102.983 100.934C104.045 102.263 108.974 107.627 111.565 110.973M111.565 110.973L100.519 160.573C99.9582 163.092 99.6752 165.665 99.6752 168.245V168.89C99.6752 170.735 99.8534 172.575 100.207 174.386L100.509 175.927C101.163 179.275 102.589 182.424 104.671 185.127C105.606 186.339 106.665 187.451 107.831 188.443L110.712 190.895C112.802 192.674 115.016 194.303 117.337 195.768L120.925 198.034C128.229 202.647 136.019 206.443 144.153 209.352L159.353 214.786L182.85 219.965C192.005 221.982 201.351 223 210.725 223H218.052C220.985 223 223.911 222.735 226.796 222.208L231.827 221.289C236.336 220.465 240.576 218.549 244.176 215.709L244.499 215.453C247.158 213.356 249.381 210.759 251.045 207.808C252.105 205.927 252.927 203.921 253.492 201.837L267.046 151.814M267.046 151.814L254.77 156.883C254.142 157.143 253.434 157.128 252.817 156.844C251.678 156.319 251.122 155.018 251.529 153.833L253.307 148.643C253.623 147.721 254.095 146.861 254.702 146.1L256.196 144.223C259.232 140.413 263.425 137.698 268.14 136.488L273.22 135.184" stroke="#282828" stroke-width="4"/>
<path d="M276.029 126.226C275.658 127.802 273.791 129.57 269.213 130.929C264.806 132.238 258.569 132.951 250.88 132.998C235.535 133.09 214.863 130.527 192.529 125.255C170.195 119.983 150.556 113.028 136.867 106.081C130.008 102.601 124.745 99.1732 121.384 96.0298C117.895 92.7661 117.012 90.3496 117.382 88.7735C117.753 87.1973 119.62 85.4302 124.197 84.0708C128.605 82.7614 134.842 82.0486 142.531 82.0024C157.876 81.9101 178.549 84.4721 200.882 89.7446C223.215 95.017 242.855 101.971 256.545 108.918C263.404 112.399 268.667 115.826 272.028 118.97C275.516 122.234 276.399 124.65 276.029 126.226Z" fill="#ECE5E2" stroke="#282828" stroke-width="4"/>
<path d="M239.365 130.735C238.924 131.795 238.654 132.615 238.654 133L225.67 131.991L196.206 126.441V118.221C197.006 110.527 200.392 103.342 205.799 97.8642L207.226 96.4197C208.938 94.6853 210.806 93.1152 212.805 91.7294L213.214 91.446C218.694 87.6476 224.948 85.1367 231.514 84.0975L234.327 83.6522C238.963 82.9184 243.675 82.8033 248.341 83.3096L255.742 84.1128C257.637 84.3187 259.478 84.8886 261.162 85.792L262.306 86.4057C266.496 88.6526 269.116 93.0533 269.116 97.8458C269.116 101.275 267.77 104.565 265.373 106.992L263.579 108.81C262.333 110.071 260.92 111.151 259.379 112.018L255.468 114.219C248.595 118.087 242.41 123.406 239.365 130.735Z" stroke="#282828" stroke-width="4"/>
<path d="M237.664 129.526C237.404 130.204 237.253 130.724 237.253 131L225.308 130.072L198.204 124.966V117.404C198.94 110.324 202.057 103.712 207.038 98.6659L208.338 97.3497C209.916 95.7516 211.636 94.3046 213.479 93.0273L213.847 92.7722C218.89 89.2765 224.648 86.9651 230.694 86.008L233.271 85.6001C237.537 84.925 241.873 84.8189 246.166 85.2849L252.637 85.9872C254.603 86.2006 256.511 86.7915 258.257 87.7278L260.336 88.8433C263.438 90.5064 265.554 93.5734 266.022 97.0826C266.496 100.633 265.224 104.193 262.614 106.623L260.004 109.053C258.976 110.01 257.837 110.842 256.615 111.53L253.303 113.395C246.597 117.168 240.422 122.303 237.664 129.526Z" fill="#F15919"/>
<path d="M198.204 124.012L198.667 118.946C199.418 110.727 203.001 103.028 208.797 97.1774C210.339 95.6219 212.02 94.2134 213.821 92.9701L214.229 92.6875C219.236 89.2299 224.951 86.9437 230.953 85.997L233.511 85.5936C237.747 84.9258 242.051 84.8209 246.312 85.2818L252.735 85.9765C254.687 86.1875 256.581 86.772 258.314 87.6981L260.378 88.8014C263.457 90.4464 265.558 93.48 266.023 96.951C266.493 100.463 265.231 103.984 262.639 106.387L260.049 108.791C259.028 109.738 257.898 110.56 256.685 111.241L249.063 115.515C245.275 117.639 242.125 120.746 239.942 124.511L237.457 130" stroke="#F9E8E8" stroke-width="2"/>
<path d="M214.683 124C218.269 124 221.175 121.09 221.175 117.5C221.175 113.91 218.269 111 214.683 111C211.098 111 208.191 113.91 208.191 117.5C208.191 121.09 211.098 124 214.683 124Z" fill="#F5F8FA"/>
<path d="M214.184 122C216.39 122 218.179 120.209 218.179 118C218.179 115.791 216.39 114 214.184 114C211.978 114 210.189 115.791 210.189 118C210.189 120.209 211.978 122 214.184 122Z" fill="#ECE5E2"/>
<path d="M211.771 39.1567L212.533 38.6525C212.973 38.3608 213.448 38.1211 213.962 38.0007C215.343 37.6771 217.529 37.4443 219.077 38.213C221.429 39.3808 220.841 40.5485 221.429 44.6354C222.018 48.7224 222.605 47.5547 225.546 48.7225C228.486 49.8901 229.074 46.387 230.25 46.387C231.763 46.387 232.752 48.5579 234.254 48.3715L237.528 47.9652C239.557 47.7134 241.583 48.6123 242.606 50.3918C243.415 51.7993 244.047 53.1233 243.775 53.3933C243.33 53.8348 247.403 55.7017 249.838 56.7268C250.084 56.8305 250.244 57.0716 250.244 57.34C250.244 57.729 250.576 58.0344 250.961 57.9969C253.301 57.7688 257.206 57.3169 258.477 56.8965C259.61 56.5214 260.819 54.8664 261.556 53.6243C261.871 53.094 262.228 52.5883 262.665 52.1544L263.368 51.4559C264.002 50.8277 264.357 49.9708 264.357 49.0768C264.357 47.5061 265.461 46.1435 266.987 45.8067C268.532 45.4658 269.65 44.0863 269.65 42.496V41.6991C269.65 40.956 269.912 40.237 270.389 39.669C271.572 38.258 271.229 36.2034 269.919 34.9094C269.459 34.4546 269.263 34.1259 269.65 34.1259C269.881 34.1259 270.14 33.9388 270.407 33.6331C271.913 31.9175 269.202 29.871 268.474 27.7034C267.886 25.9517 267.298 24.7842 266.122 23.0325C265.613 22.2748 264.444 22.2818 263.138 22.3448C259.827 22.5044 256.131 22.4548 253.772 20.1132C253.184 19.5295 253.772 17.7777 253.772 16.0261V14.7653C253.772 14.1513 253.317 13.6342 252.71 13.559L252.333 13.5121C251.295 13.3832 251.023 11.9979 251.933 11.4812C252.56 11.1255 252.675 10.2654 252.162 9.75671L251.141 8.74323C250.586 8.19239 249.78 7.9836 249.03 8.1965L248.985 8.2092C247.551 8.61596 246.127 7.53301 246.127 6.0354V5.90287C246.127 5.28213 245.88 4.68724 245.441 4.25101L245.097 3.90915C244.153 2.97203 242.574 3.23048 241.975 4.42025C241.397 5.5671 239.899 5.85814 238.938 5.01004L237.619 3.84638C236.417 2.78454 234.636 2.75376 233.259 3.57515C232.287 4.15484 231.199 4.69722 230.25 4.93276C227.78 5.54573 225.528 7.85206 222.983 7.85206H220.841C219.077 7.85206 217.901 6.68435 216.725 6.68435C216.458 6.68435 215.934 6.74671 215.276 6.84496C211.601 7.39319 208.295 12.4254 204.964 10.7715C204.218 10.4013 202.684 12.207 201.592 13.7473C201.096 14.4463 200.953 15.329 201.14 16.1665L201.625 18.3364C201.829 19.2474 201.14 20.1132 200.211 20.1132C199.548 20.1132 198.969 20.5662 198.806 21.2128L198.325 23.1224C198.058 24.1833 198.236 25.308 198.819 26.2328L200.165 28.3724C200.594 29.054 200.679 29.8988 200.394 30.6528L200.318 30.8561C199.721 32.4353 200.882 34.1259 202.562 34.1259C203.888 34.1259 204.964 35.2064 204.964 36.5393V36.6466C204.964 37.6058 205.506 38.4819 206.361 38.9067L207.41 39.4278C208.809 40.1219 210.469 40.0188 211.771 39.1567Z" stroke="#282828" stroke-width="4"/>
<path d="M216.974 51.1086L215.13 42.0419C214.93 41.0566 215.333 40.0467 216.159 39.4666C217.571 38.4746 219.546 39.1357 220.066 40.7748L221.62 45.6631C221.886 46.5003 221.971 47.3824 221.911 48.2584C221.746 50.713 221.63 54.8329 222.023 55.2207L222.205 55.3992C223.139 56.318 224.608 56.4219 225.664 55.6433C226.039 55.3665 226.335 54.9963 226.521 54.57L228.855 49.2122C229.396 47.9725 230.87 47.4352 232.088 48.0343C233.425 48.6915 233.942 50.4771 233.414 51.8635C232.798 53.4837 232.249 55.2277 231.654 55.8127C231.137 56.3214 230.365 57.3079 229.637 58.2959C229.034 59.1139 229.761 60.2107 230.761 60.0139C230.952 59.9764 231.129 59.8919 231.278 59.766C232.748 58.5128 235.411 56.1199 235.868 55.2207C236.469 54.0368 240.683 51.0768 240.683 50.4848C240.683 50.2164 241.585 50.5692 242.623 51.0689C243.946 51.7065 244.484 53.2744 243.933 54.6299C243.774 55.0192 243.533 55.3699 243.226 55.6579L231.053 67.0605L225.587 71.0021C223.307 72.6468 220.459 73.316 217.679 72.8603L216.065 72.5957C215.238 72.46 214.463 72.1035 213.823 71.5643C211.992 70.0206 211.651 67.3419 213.037 65.3935L214.179 63.7894C214.591 63.2111 214.908 62.5721 215.12 61.8956L216.675 56.9248C217.028 55.7952 217.208 54.6191 217.208 53.4362C217.208 52.6545 217.13 51.8748 216.974 51.1086Z" fill="#00CAA1" stroke="#282828" stroke-width="3"/>
<path d="M184.115 78.7874L184.209 78.8034C186.795 79.2462 189.457 78.9373 191.866 77.9147C195.105 76.5398 197.662 73.9716 198.984 70.7651L199.147 70.3707C199.843 68.6808 200.201 66.8752 200.201 65.0526V58.3446C200.201 55.1567 199.402 52.0174 197.875 49.2022L196.356 46.4005C195.303 44.4609 193.632 42.9119 191.597 41.9904L191.366 41.8858C188.352 40.5212 184.838 40.7443 182.029 42.4786C181.031 43.095 180.154 43.883 179.442 44.8046L177.904 46.7936C176.408 48.729 175.599 51.0901 175.599 53.5178V55.2456C175.599 56.8486 175.001 58.3963 173.917 59.5977C172.562 61.1008 171.981 63.1279 172.34 65.1026L172.857 67.9449C173.222 69.9481 174.078 71.8345 175.352 73.4416L175.619 73.7785C177.717 76.4247 180.746 78.2105 184.115 78.7874Z" stroke="#282828" stroke-width="3"/>
<path d="M181.724 54C182.552 54 183.222 53.3284 183.222 52.5C183.222 51.6716 182.552 51 181.724 51C180.897 51 180.226 51.6716 180.226 52.5C180.226 53.3284 180.897 54 181.724 54Z" fill="#282828"/>
<path d="M189.714 55C190.542 55 191.213 54.3284 191.213 53.5C191.213 52.6716 190.542 52 189.714 52C188.887 52 188.216 52.6716 188.216 53.5C188.216 54.3284 188.887 55 189.714 55Z" fill="#282828"/>
<path d="M186.718 48C187.546 48 188.216 47.3284 188.216 46.5C188.216 45.6716 187.546 45 186.718 45C185.891 45 185.22 45.6716 185.22 46.5C185.22 47.3284 185.891 48 186.718 48Z" fill="#282828"/>
<path d="M143.523 72C143.793 72 146.286 72.2965 148.751 72.599C151.094 72.8865 153.332 73.7501 155.276 75.1059C157.729 76.8165 160.637 77.7324 163.615 77.7324H164.215H167.067C169.575 77.7324 172.008 78.5934 173.971 80.1748C175.378 81.3088 176.491 82.7724 177.215 84.4394L177.792 85.766C179.062 88.6897 179.484 91.9141 179.078 95.0814C178.867 96.7271 178.699 98.1667 178.699 98.5775C178.699 104.261 170.613 106.439 165.425 108.607C164.839 108.852 164.406 109 164.215 109C163.81 109 161.574 108.668 158.91 108.246C153.589 107.405 148.642 104.971 144.647 101.313C141.193 98.1492 138.501 94.1858 137.148 89.673C136.647 88.0016 136.281 86.5965 136.281 86.0704V83.7002C136.281 81.1687 137.024 78.6941 138.415 76.5911C139.058 75.6195 139.826 74.7372 140.723 73.9998C141.905 73.0271 143.232 72 143.523 72Z" fill="#FAB361"/>
<path d="M141.694 73C141.97 73 144.518 73.3042 147.039 73.6147C149.439 73.9103 151.731 74.7974 153.719 76.1895C156.229 77.9463 159.208 78.8873 162.259 78.8873H162.867H165.771C168.345 78.8873 170.843 79.7735 172.854 81.4003C174.291 82.562 175.426 84.0596 176.164 85.764L176.761 87.1444C178.059 90.1434 178.491 93.4484 178.076 96.6954C177.86 98.3897 177.688 99.8731 177.688 100.296C177.688 106.121 169.412 108.374 164.093 110.601C163.5 110.85 163.061 111 162.867 111C162.454 111 160.181 110.661 157.469 110.231C152.004 109.365 146.927 106.858 142.832 103.094C139.305 99.8519 136.56 95.7949 135.179 91.1799C134.662 89.4505 134.283 87.9941 134.283 87.4507V85.0075C134.283 82.413 135.042 79.8764 136.465 77.7183C137.125 76.7183 137.912 75.8099 138.833 75.0501C140.042 74.0522 141.397 73 141.694 73Z" stroke="#282828" stroke-width="3"/>
<path d="M162.748 101C163.575 101 164.246 100.328 164.246 99.5C164.246 98.6716 163.575 98 162.748 98C161.92 98 161.25 98.6716 161.25 99.5C161.25 100.328 161.92 101 162.748 101Z" fill="#282828"/>
<path d="M170.738 102C171.565 102 172.236 101.328 172.236 100.5C172.236 99.6716 171.565 99 170.738 99C169.91 99 169.24 99.6716 169.24 100.5C169.24 101.328 169.91 102 170.738 102Z" fill="#282828"/>
<path d="M167.742 95C168.569 95 169.24 94.3284 169.24 93.5C169.24 92.6716 168.569 92 167.742 92C166.914 92 166.243 92.6716 166.243 93.5C166.243 94.3284 166.914 95 167.742 95Z" fill="#282828"/>
</g>
<defs>
<clipPath id="clip0_1051_1875">
<rect width="221.725" height="245" fill="white" transform="translate(78.3523)"/>
</clipPath>
</defs>
</svg>
