<svg width="241" height="213" viewBox="0 0 241 213" fill="none" xmlns="http://www.w3.org/2000/svg">
<ellipse cx="178.658" cy="177.962" rx="3.92654" ry="3.9654" fill="#F9C8A8"/>
<ellipse cx="3.95092" cy="3.94111" rx="3.95092" ry="3.94111" transform="matrix(-0.607548 -0.794283 0.788459 -0.615087 176.694 211.668)" fill="#B1E275"/>
<ellipse cx="1.97231" cy="1.97371" rx="1.97231" ry="1.97371" transform="matrix(0.728802 -0.684725 -0.677534 -0.735491 207.125 173.996)" fill="#EE693F"/>
<ellipse cx="1.97546" cy="1.97055" rx="1.97546" ry="1.97055" transform="matrix(-0.607548 -0.794283 0.788459 -0.615087 4.9082 31.242)" fill="#EE693F"/>
<ellipse cx="5.92638" cy="5.91166" rx="5.92638" ry="5.91166" transform="matrix(-0.607548 -0.794283 0.788459 -0.615087 12.7612 18.3545)" fill="#F9C8A8"/>
<ellipse cx="20.6142" cy="152.187" rx="1.96327" ry="1.9827" fill="#B1E275"/>
<ellipse cx="5.88981" cy="201.754" rx="5.88981" ry="5.9481" fill="#F69453"/>
<g clip-path="url(#clip0_1051_1947)">
<path d="M139.772 2.5H54.2284C48.0271 2.5 43 7.52196 43 13.7169V198.283C43 204.478 48.0271 209.5 54.2284 209.5H139.772C145.973 209.5 151 204.478 151 198.283V13.7169C151 7.52196 145.973 2.5 139.772 2.5Z" stroke="#282828" stroke-width="4"/>
<path d="M145 18.7106V191.289C145 197.48 139.978 202.5 133.783 202.5H60.2173C54.0221 202.5 49 197.48 49 191.289V18.7106C49 12.5192 54.0221 7.5 60.2173 7.5H76.9567C77.0697 7.5 77.1612 7.59152 77.1612 7.70441V9.46541C77.1612 12.9997 80.028 15.8647 83.5644 15.8647H110.215C113.752 15.8647 116.618 12.9997 116.618 9.46541V7.70441C116.618 7.59152 116.71 7.5 116.823 7.5H133.783C139.978 7.5 145 12.5192 145 18.7106Z" stroke="#282828" stroke-width="4"/>
<path d="M136.795 172.5H57.2047C56.5394 172.5 56 173.039 56 173.705V183.295C56 183.961 56.5394 184.5 57.2047 184.5H136.795C137.461 184.5 138 183.961 138 183.295V173.705C138 173.039 137.461 172.5 136.795 172.5Z" fill="#02C69E" stroke="#282828" stroke-width="2"/>
<path d="M97 117.5C115.225 117.5 130 102.725 130 84.5C130 66.2746 115.225 51.5 97 51.5C78.7746 51.5 64 66.2746 64 84.5C64 102.725 78.7746 117.5 97 117.5Z" stroke="#282828" stroke-width="4"/>
<path d="M73.4304 95.1833L84.301 98.0567C96.3935 101.253 105.106 86.4304 96.6019 77.1298L95.8459 76.303C95.4409 75.8601 95.1081 75.3543 94.8602 74.8046C94.6136 74.2582 94.2832 73.7548 93.8812 73.3137L89.1128 68.0801C88.5042 67.4122 87.7257 66.9279 86.8634 66.681C85.4911 66.2881 84.0269 66.5395 82.8726 67.3898C81.5532 68.3619 80.1299 69.3615 79.0313 69.6256C78.2148 69.8219 77.8201 70.7036 77.6588 71.7289C77.4301 73.1817 75.5534 73.4279 74.7927 74.6799C74.6951 74.8404 73.9593 75.2131 73.0455 75.6274C71.2314 76.45 70.1258 78.3739 70.4336 80.3679C70.5534 81.1434 70.4701 81.9412 70.1245 82.6432C69.6094 83.6896 68.8376 85.0259 68.0067 85.8492C64.9615 88.866 69.4234 93.7344 73.4304 95.1833Z" fill="#02C69E"/>
<path d="M87.2273 71.8448L90.5199 82.689C94.1828 94.7523 111.175 94.2973 114.487 82.1304C114.801 80.9748 115.298 79.869 115.955 78.8716L119.427 72.8894C120.315 71.3596 120.16 69.4294 119.038 68.0658C118.639 67.5798 118.136 67.1939 117.573 66.9218C115.584 65.9614 112.522 64.3507 111.497 63.3121C110.906 62.7128 109.963 62.8339 109.022 63.2308C107.69 63.7929 106.502 62.3083 105.058 62.3083C104.873 62.3083 104.177 61.8703 103.352 61.3013C101.716 60.1714 99.5306 60.2259 98.0271 61.5319C97.4423 62.0398 96.7328 62.3848 95.9656 62.4544C94.8224 62.5582 93.3026 62.5926 92.1803 62.3083C88.0673 61.2662 86.339 67.6438 87.2273 71.8448Z" stroke="#282828" stroke-width="2"/>
<path d="M74.4529 95.1815L85.3615 98.0599C97.4963 101.261 106.097 86.2577 97.5629 76.9408C96.7524 76.0559 96.0804 75.0388 95.5842 73.9407L92.3633 67.7577C91.5395 66.1764 89.8255 65.2901 88.0799 65.5426C87.4578 65.6326 86.8658 65.8651 86.3378 66.2106C84.4744 67.4301 81.4934 69.2382 80.0734 69.5791C79.2541 69.7757 78.858 70.659 78.6961 71.686C78.4666 73.1415 76.5833 73.388 75.82 74.6423C75.722 74.803 74.9837 75.1763 74.0667 75.5914C72.2462 76.4154 71.1367 78.3426 71.4457 80.3401C71.5658 81.117 71.4823 81.9162 71.1354 82.6195C70.6185 83.6677 69.844 85.0064 69.0102 85.8311C65.9544 88.8531 70.4318 93.73 74.4529 95.1815Z" stroke="#282828" stroke-width="2"/>
<path d="M88.2328 72.8087L91.6053 83.6183C95.357 95.6431 112.704 95.3923 116.097 83.2641L116.398 82.186C116.56 81.6084 116.814 81.06 117.151 80.5615C117.486 80.0656 117.739 79.5206 117.901 78.9465L119.819 72.1364C120.064 71.2673 120.06 70.3483 119.809 69.4809C119.409 68.1004 118.409 66.9769 117.063 66.4305C115.524 65.806 113.906 65.1068 113.091 64.3031C112.485 63.7057 111.52 63.8265 110.556 64.2221C109.191 64.7824 107.974 63.3026 106.496 63.3026C106.306 63.3026 105.593 62.866 104.749 62.2987C103.073 61.1725 100.834 61.2267 99.2945 62.5286C98.6956 63.0349 97.9688 63.3788 97.1831 63.4482C96.0121 63.5516 94.4555 63.5859 93.3059 63.3026C89.0932 62.2638 87.323 68.6211 88.2328 72.8087Z" fill="#02C69E"/>
<path d="M122.5 130.5H70.5C68.567 130.5 67 132.067 67 134C67 135.933 68.567 137.5 70.5 137.5H122.5C124.433 137.5 126 135.933 126 134C126 132.067 124.433 130.5 122.5 130.5Z" fill="#F9C8A8"/>
<path d="M108.5 142.5H84.5C82.567 142.5 81 144.067 81 146C81 147.933 82.567 149.5 84.5 149.5H108.5C110.433 149.5 112 147.933 112 146C112 144.067 110.433 142.5 108.5 142.5Z" fill="#F9C8A8"/>
<path d="M117.31 95.3385L118.263 96.0514C119.692 97.1201 120.32 98.9643 119.842 100.691C119.57 101.671 118.964 102.525 118.13 103.1L115.818 104.696C114.646 105.504 113.341 106.096 111.963 106.446L108.642 107.288C106.985 107.708 105.233 107.5 103.72 106.7L103.254 106.455C101.253 105.399 100 103.313 100 101.04C100 99.8236 100.36 98.6351 101.035 97.6262L101.195 97.387C101.889 96.3491 102.844 95.5155 103.963 94.9716L104.82 94.5549C106.762 93.6109 108.945 93.2898 111.074 93.6348L114.671 94.2177C115.627 94.3727 116.533 94.757 117.31 95.3385Z" stroke="#282828" stroke-width="2"/>
<path d="M109.5 104.5C112.538 104.5 115 102.933 115 101C115 99.067 112.538 97.5 109.5 97.5C106.462 97.5 104 99.067 104 101C104 102.933 106.462 104.5 109.5 104.5Z" fill="#ECB666"/>
<path d="M179 111.546L197.419 135.712C198.218 136.76 199.786 136.763 200.588 135.718L233 93.5" stroke="#02C69E" stroke-width="15" stroke-linecap="round"/>
<path d="M82.0237 93.1559L82.0259 93.1229V93.0899V88.8676C82.4287 85.1097 84.0974 81.5979 86.7607 78.905L87.4671 78.1908C88.3224 77.326 89.2567 76.5421 90.2578 75.8497L90.4464 75.7191C93.1825 73.8262 96.3122 72.5732 99.6021 72.0535L101.035 71.8271C103.365 71.4591 105.733 71.4012 108.079 71.6554L111.908 72.0702C112.782 72.1648 113.629 72.4265 114.403 72.8409L114.944 73.1309C116.826 74.1381 118 76.0938 118 78.2217C118 79.7395 117.401 81.1964 116.331 82.2777L115.413 83.2056C114.825 83.8009 114.155 84.3112 113.425 84.7216L111.397 85.8606C107.717 87.9277 104.298 90.831 102.593 94.8933C102.468 95.1932 102.359 95.4757 102.28 95.7211C102.245 95.8297 102.205 95.9606 102.175 96.0998L99.458 99.6562C93.6237 107.293 81.3906 102.732 82.0237 93.1559Z" fill="#F15919" stroke="#F9E8E8" stroke-width="2"/>
<path d="M104.104 95.9791C103.864 96.5537 103.717 96.9976 103.717 97.2058L100.706 101.151C94.0917 109.817 80.3075 104.6 81.0271 93.7025V89.3124C81.4547 85.2019 83.2676 81.3617 86.1654 78.4287L86.9133 77.6717C87.8313 76.7426 88.8332 75.9011 89.9061 75.1581L90.1151 75.0133C93.0466 72.9832 96.3945 71.6404 99.9115 71.0842L101.402 70.8485C103.882 70.4564 106.401 70.3948 108.897 70.6655L112.842 71.0933C113.861 71.2038 114.85 71.5097 115.755 71.9945L116.345 72.3109C118.595 73.5163 120 75.8694 120 78.4311C120 80.2619 119.28 82.0185 117.996 83.3178L117.043 84.2818C116.376 84.9579 115.617 85.5369 114.79 86.0021L112.703 87.1754C109.03 89.2405 105.73 92.0792 104.104 95.9791Z" stroke="#282828" stroke-width="2"/>
<path d="M92 92.5C94.2091 92.5 96 90.7091 96 88.5C96 86.2909 94.2091 84.5 92 84.5C89.7909 84.5 88 86.2909 88 88.5C88 90.7091 89.7909 92.5 92 92.5Z" fill="#F5F8FA"/>
<path d="M92 90.5C93.1046 90.5 94 89.6046 94 88.5C94 87.3954 93.1046 86.5 92 86.5C90.8954 86.5 90 87.3954 90 88.5C90 89.6046 90.8954 90.5 92 90.5Z" fill="#BEB8B6"/>
</g>
<defs>
<clipPath id="clip0_1051_1947">
<rect width="200" height="212" fill="white" transform="translate(41 0.5)"/>
</clipPath>
</defs>
</svg>
