<svg width="382" height="255" viewBox="0 0 382 255" fill="none" xmlns="http://www.w3.org/2000/svg">
<circle cx="2" cy="2" r="2" transform="matrix(-1 0 0 1 311.449 13)" fill="#B1E275"/>
<circle cx="2" cy="2" r="2" transform="matrix(-1 0 0 1 259.449 59)" fill="#B1E275"/>
<circle cx="6" cy="6" r="6" transform="matrix(-1 0 0 1 369.449 18)" fill="#F69453" fill-opacity="0.5"/>
<circle cx="377.245" cy="204.347" r="4" transform="rotate(-137.067 377.245 204.347)" fill="#F69453"/>
<circle cx="372.245" cy="100.347" r="4" transform="rotate(-137.067 372.245 100.347)" fill="#B1E275"/>
<circle cx="73.4491" cy="7" r="2" fill="#B1E275"/>
<circle cx="125.449" cy="53" r="2" fill="#B1E275"/>
<circle cx="19.4491" cy="16" r="6" fill="#F69453" fill-opacity="0.5"/>
<circle cx="4" cy="4" r="4" transform="matrix(0.732156 -0.681136 -0.681136 -0.732156 5.4491 202)" fill="#F69453"/>
<circle cx="4" cy="4" r="4" transform="matrix(0.732156 -0.681136 -0.681136 -0.732156 10.4491 98)" fill="#B1E275"/>
<g clip-path="url(#clip0_1051_1905)">
<path d="M209.449 3V80.7955H199.976L155.449 87V27.3409V15.8863L157.818 12.0682L209.449 3Z" fill="#F26225"/>
<path d="M210.449 82.2298V4L234.021 6.86207V13.5402L236.849 19.7414L250.992 21.6494L255.707 17.8333L257.12 11.6321L258.534 9.72414L274.092 11.6321L276.449 87L210.449 82.2298Z" fill="#ECB666"/>
<path d="M199.449 82V107L126.449 104.115V93.5383L128.345 90.173L199.449 82Z" fill="#F26225"/>
<path d="M199.449 85.9956V102.549C199.449 105.307 201.694 107.544 204.463 107.544H211.011C211.549 107.544 212.084 107.63 212.596 107.8L217.078 109.288C219.068 109.949 220.436 111.776 220.503 113.866L221.239 136.594C221.302 138.541 222.496 140.274 224.297 141.033L232.748 144.596C233.387 144.864 233.963 145.263 234.439 145.766L249.899 162.075L261.982 178.281C262.175 178.54 262.394 178.78 262.634 178.998L277.259 192.244C277.734 192.675 278.122 193.192 278.402 193.769L283.637 204.573C284.206 205.748 285.58 206.297 286.806 205.839C287.794 205.47 288.449 204.528 288.449 203.476V192.897L286.627 93.0454C286.581 90.5009 284.622 88.398 282.078 88.1626L266.322 86.7043C263.383 86.4323 260.845 88.7368 260.845 91.6781V101.715C260.845 103.004 260.271 104.227 259.276 105.052C258.448 105.74 257.393 106.097 256.315 106.055L235.678 105.249C234.417 105.2 233.222 104.679 232.329 103.789L231.749 103.212C230.871 102.337 230.35 101.169 230.287 99.9342L229.655 87.6089C229.528 85.1297 227.592 83.1197 225.112 82.89L204.927 81.0218C201.987 80.7498 199.449 83.0544 199.449 85.9956Z" fill="#ECB666"/>
<path d="M209.756 80.7954C209.374 77.3591 209.597 27.5 209.756 3M209.756 3L159.516 12.7136C157.155 13.1701 155.449 15.2408 155.449 17.6502V86.0454M209.756 3L271.217 11.478C273.677 11.8172 275.52 13.9075 275.551 16.3947L276.449 87M235.48 7.77273V14.8525C235.48 17.3607 237.326 19.4853 239.805 19.8319L250.73 21.3591C253.576 21.757 256.173 19.6836 256.422 16.8152L256.917 11.1137" stroke="black" stroke-width="4"/>
<path d="M199.846 106.568V81M199.846 81L282.864 87.7305C285.454 87.9405 287.449 90.1036 287.449 92.702V203.159C287.449 204.728 286.177 206 284.608 206M199.846 81L130.83 89.4592C128.329 89.7658 126.449 91.8899 126.449 94.4099V103.727" stroke="black" stroke-width="4"/>
<path d="M230.449 85V99.5396C230.449 102.098 232.432 104.226 235.003 104.425L255.126 105.985C257.996 106.207 260.449 103.956 260.449 101.099V86.3956" stroke="black" stroke-width="4"/>
<path d="M220.639 226.64L218.508 219.136C218.174 217.961 219.323 216.917 220.419 217.399C220.695 217.52 221 217.549 221.293 217.481C223.374 216.993 226.969 216.189 227.643 216.189C230.054 216.189 232.09 214.19 234.487 213.931L237.15 213.643C238.664 213.479 240.191 213.479 241.705 213.643L244.804 213.978C246.955 214.211 249.075 214.682 251.126 215.384C255.36 216.834 259.857 217.282 264.289 216.743C266.798 216.439 268.968 216.189 269.343 216.189C270.25 216.189 278.861 212 279.768 212C282.065 212 283.97 213.825 284.127 216.177L284.428 220.648C284.632 223.686 283.372 226.634 281.056 228.538L280.373 229.098C278.793 230.396 276.887 231.208 274.877 231.442L249.852 234.343L233.128 234.991C228.603 235.166 224.323 232.882 221.863 228.979L221.241 227.992C220.977 227.573 220.774 227.118 220.639 226.64Z" fill="#02C69E"/>
<path d="M148.949 227C155.853 227 161.449 221.627 161.449 215C161.449 208.373 155.853 203 148.949 203C142.046 203 136.449 208.373 136.449 215C136.449 221.627 142.046 227 148.949 227Z" fill="#282828"/>
<path d="M148.449 198.015V112.989C148.449 110.174 146.124 107.917 143.313 108.002L65.2807 110.392C62.5888 110.475 60.4492 112.674 60.4492 115.37V192.281C60.4492 194.311 112.425 199.948 142.993 202.975C145.921 203.265 148.449 200.96 148.449 198.015Z" fill="#ECE5E2"/>
<path d="M162.927 152.015L165.23 145.49C165.782 143.927 167.08 142.737 168.695 142.317L173.11 141.164C174.431 140.819 175.836 141.023 177.002 141.727L185.135 146.636C185.803 147.039 186.367 147.591 186.782 148.247L210.139 185.222C210.674 186.069 211.454 186.737 212.377 187.139L239.446 198.935C241.271 199.731 242.449 201.521 242.449 203.498V206.542C242.449 208.71 241.039 210.631 238.951 211.272C234.882 212.522 229.957 213.966 229.09 213.966C228.317 213.966 226.194 214.973 224.31 215.967C222.812 216.757 221.02 216.824 219.502 216.072L215.672 214.172C215.395 214.035 215.104 213.923 214.806 213.839L203.776 210.713C202.566 210.37 201.272 210.49 200.147 211.047L196.475 212.869C195.08 213.56 194.088 214.856 193.789 216.375L191.708 226.99C191.252 229.318 189.194 231 186.803 231C186.37 231 185.94 230.944 185.521 230.835L166.177 225.744C164.133 225.206 162.647 223.462 162.46 221.373C161.623 212.025 160.387 198.072 160.387 197.405C160.387 196.664 159.778 182.259 159.454 174.699C159.44 174.377 159.458 174.06 159.506 173.742L162.703 152.913C162.749 152.608 162.824 152.308 162.927 152.015Z" fill="#ECE5E2"/>
<path d="M138.449 219L139.051 220.428C140.187 223.122 142.39 225.24 145.148 226.288L145.297 226.345C146.436 226.778 147.647 227 148.867 227C152.437 227 155.732 225.11 157.503 222.048L158.449 220.412" stroke="#282828" stroke-width="4"/>
<path d="M258.056 245C257.365 245 255.425 244.668 253.277 244.245C248.836 243.371 245.234 240.343 243.449 236.292L271.719 234C272.545 234.803 272.687 236.058 272.06 237.016L270.522 239.367C270.069 240.059 269.472 240.652 268.77 241.108L267.133 242.169C266.11 242.832 265.014 243.381 263.844 243.745C261.936 244.338 259.442 245 258.056 245Z" fill="#282828" stroke="#282828" stroke-width="4"/>
<path d="M237.866 206.816L237.721 207.087C236.857 208.714 235.212 209.772 233.378 209.88L231.599 209.985C229.512 210.108 227.456 209.452 225.823 208.141L223.669 206.412L220.752 203.809C219.923 203.07 219.449 202.01 219.449 200.898V200.787C219.449 198.695 221.139 197 223.222 197C223.52 197 223.815 197.035 224.103 197.104L234.653 199.645C235.143 199.763 235.612 199.956 236.045 200.216C238.306 201.579 239.107 204.481 237.866 206.816Z" fill="#ECB666"/>
<path d="M214.449 217.247C214.762 217.561 218.944 217.895 222.096 218.093C223.299 218.169 224.483 217.793 225.434 217.051L226.882 215.921C227.762 215.234 228.844 214.862 229.958 214.862H241.412C242.133 214.862 242.844 215.018 243.499 215.319L245.542 216.258C251.001 218.768 257.083 219.58 263.006 218.59L267.091 217.907C269.71 217.469 272.259 216.684 274.673 215.575L282.449 212" stroke="#282828" stroke-width="4" stroke-linecap="round"/>
<path d="M159.441 206.463L158.872 201.745C158.523 198.849 158.429 195.927 158.588 193.014L159.441 177.45L163.144 148.061C163.298 146.843 163.737 145.679 164.427 144.662C165.311 143.36 166.568 142.355 168.034 141.781L169.992 141.012C171.691 140.346 173.499 140.004 175.324 140.004H217.111C218.314 140.004 219.511 140.161 220.672 140.472M159.441 206.463L161.596 224.332C161.746 225.585 162.665 226.611 163.895 226.9L186.348 232.178C187.904 232.544 189.456 231.561 189.789 230L192.056 219.379C192.464 217.464 193.412 215.707 194.787 214.313C197.042 212.029 200.237 210.928 203.423 211.34L204.816 211.521C207.316 211.844 209.669 212.881 211.593 214.505L211.746 214.635C213.163 215.831 214.323 217.301 215.158 218.955L218.193 224.973C218.678 225.933 219.028 226.953 219.236 228.006L219.582 229.757C220.248 233.136 222.79 235.835 226.125 236.707C227.004 236.937 227.913 237.033 228.821 236.99L260.198 235.529C263.72 235.364 267.208 234.765 270.583 233.744L280.368 230.782C281.656 230.392 282.809 229.647 283.692 228.632C284.927 227.214 285.553 225.366 285.435 223.49L284.731 212.333C284.179 203.59 280.305 195.387 273.903 189.399L263.814 179.962C262.025 178.29 260.363 176.488 258.837 174.573L243.685 155.541C237.829 148.184 229.761 142.902 220.672 140.472M159.441 206.463H153.467C150.696 206.463 148.449 204.219 148.449 201.451V106.227C148.449 104.939 149.539 103.92 150.826 104.005L215.984 108.297C218.622 108.47 220.672 110.657 220.672 113.297V140.472" stroke="#282828" stroke-width="4" stroke-linecap="round"/>
<path d="M176.303 154.691L172.305 154.063C169.233 153.581 166.449 155.909 166.449 158.962V174.118C166.449 176.447 168.1 178.462 170.418 178.963L193.455 183.943C194.276 184.121 195.133 183.875 195.727 183.291C196.566 182.469 196.688 181.178 196.019 180.217L179.678 156.788C178.895 155.664 177.675 154.906 176.303 154.691Z" stroke="#282828" stroke-width="4" stroke-linecap="round"/>
<path d="M208.526 179.477L196.122 157.76C194.275 154.528 196.435 150.465 200.128 150.225L234.174 148.01C235.475 147.926 236.756 148.358 237.745 149.212L239.126 150.406C239.388 150.632 239.627 150.886 239.837 151.162L254.409 170.291C256.8 173.43 254.83 177.992 250.922 178.368L213.327 181.977C211.38 182.164 209.502 181.187 208.526 179.477Z" stroke="#282828" stroke-width="4" stroke-linecap="round"/>
<path d="M217.449 234.5C217.449 244.593 211.027 252 203.949 252C196.873 252 190.449 244.593 190.449 234.5C190.449 224.407 196.873 217 203.949 217C211.027 217 217.449 224.407 217.449 234.5Z" fill="#282828" stroke="#282828" stroke-width="4"/>
<path d="M148.449 200.024V109.979C148.449 107.17 146.104 104.917 143.27 105.002L59.3227 107.534C56.6075 107.616 54.4492 109.807 54.4492 112.498V193.691C54.4492 195.834 110.348 201.798 142.954 204.976C145.907 205.263 148.449 202.962 148.449 200.024Z" stroke="#282828" stroke-width="4"/>
<path d="M154.479 221.755C146.489 220.802 131.367 218.535 120.036 216.777L83.8616 221.949C82.6899 222.116 81.4959 221.869 80.4918 221.25L76.8003 218.978C75.3377 218.078 74.4492 216.499 74.4492 214.8V204.928C74.4492 201.945 77.1197 199.646 80.1213 200.045L92.0189 201.63H105.528L115.762 202.565L155.04 207.19C157.555 207.487 159.449 209.587 159.449 212.082V217.281C159.449 220.002 157.222 222.082 154.479 221.755Z" fill="#7B7B7B"/>
<path d="M105.528 201.63L111.753 213.458C112.483 214.843 113.83 215.806 115.394 216.051C126.849 217.853 145.335 220.665 154.479 221.755C157.222 222.082 159.449 220.002 159.449 217.281V212.082C159.449 209.587 157.555 207.487 155.04 207.19L115.762 202.565L105.528 201.63ZM105.528 201.63H92.0189L80.1213 200.045C77.1197 199.646 74.4492 201.945 74.4492 204.928V214.8C74.4492 216.499 75.3377 218.078 76.8003 218.978L80.4918 221.25C81.4959 221.869 82.6899 222.116 83.8616 221.949L120.036 216.777" stroke="#282828" stroke-width="4"/>
<path d="M246.736 208.921L246.673 208.716C245.746 205.632 247.799 202.446 250.918 202.134L272.028 200.024C275.03 199.724 277.59 202.241 277.443 205.347L277.42 205.82C277.321 207.921 275.978 209.744 274.04 210.406L267.22 212.741C266.717 212.912 266.191 213 265.662 213H252.114C251.069 213 250.052 212.66 249.206 212.026L248.549 211.533C247.688 210.887 247.051 209.971 246.736 208.921Z" fill="#7B7B7B" stroke="#282828" stroke-width="4"/>
<path d="M94.9492 235C101.853 235 107.449 227.389 107.449 218C107.449 208.611 101.853 201 94.9492 201C88.0457 201 82.4492 208.611 82.4492 218C82.4492 227.389 88.0457 235 94.9492 235Z" fill="#282828"/>
<path d="M91.4492 225C94.2106 225 96.4492 221.642 96.4492 217.5C96.4492 213.358 94.2106 210 91.4492 210C88.6878 210 86.4492 213.358 86.4492 217.5C86.4492 221.642 88.6878 225 91.4492 225Z" fill="#ECE5E2"/>
<path d="M200.949 243C203.987 243 206.449 239.418 206.449 235C206.449 230.582 203.987 227 200.949 227C197.912 227 195.449 230.582 195.449 235C195.449 239.418 197.912 243 200.949 243Z" fill="#ECE5E2"/>
</g>
<defs>
<clipPath id="clip0_1051_1905">
<rect width="238" height="255" fill="white" transform="translate(52.4492)"/>
</clipPath>
</defs>
</svg>
