<svg width="69" height="80" viewBox="0 0 69 80" fill="none" xmlns="http://www.w3.org/2000/svg">
<path d="M30.4849 33.4898L26.5379 49.2395L26.4445 50.918C26.3239 53.0871 25.9304 55.2324 25.2734 57.3032L27.4036 61.4391L28.7666 61.9507C30.0443 62.4302 31.2811 63.0119 32.4653 63.6901L34.4447 63.2039L36.6371 62.5562L36.9516 62.3663C39.6302 60.7494 41.9627 58.619 43.8151 56.0975L39.4205 50.6341L36.6283 46.6372C36.5333 46.5014 36.46 46.3516 36.4105 46.1934L36.372 46.07C36.011 44.9149 37.0585 43.8119 38.2305 44.1135C38.6435 44.2191 39.082 44.1497 39.4419 43.9218L41.394 42.6841C41.5286 42.5986 41.6544 42.5007 41.7698 42.3909C42.6699 41.5347 44.0858 41.4796 44.9086 42.4106C45.5939 43.1854 46.2041 44.0626 46.2819 44.7538C46.2922 44.846 46.3029 44.9477 46.3134 45.0589C46.6623 48.7102 46.4786 52.3904 46.1203 56.0408L45.9612 58.4584C45.818 60.6299 45.3132 62.7623 44.4676 64.7674C43.6463 66.7146 42.5145 68.5158 41.1164 70.1006L39.6197 71.797L37.0066 73.7788C36.6304 74.064 36.168 74.2119 35.6961 74.1977C35.0718 74.1789 34.4895 73.8788 34.1121 73.3811L33.4058 72.4498C31.5498 74.4587 28.5908 75.0023 26.1421 73.7838L25.9642 73.6953L24.8716 73.0812C23.2883 72.1914 23.4654 69.8767 25.124 69.2186C23.3475 69.8752 19.9528 71.0767 19.825 70.9081L17.2188 67.4717C15.728 65.506 14.8155 63.1634 14.5838 60.7074L14.4617 59.413L14.4022 59.3346C13.0669 57.5739 12.344 55.4246 12.3437 53.2148C12.3436 51.6719 12.6959 50.1493 13.3738 48.7633L14.4478 46.5674L15.8847 44.1244C15.7033 43.8307 15.6534 43.4745 15.7468 43.1423L16.8547 39.2063C17.2253 37.8896 17.8492 36.6564 18.6908 35.5779L18.7821 35.4609C20.0045 33.8935 21.618 32.6777 23.4605 31.9338L27.3251 30.3737L30.1812 32.6052C30.4482 32.8146 30.5674 33.1609 30.4849 33.4898Z" fill="#F26226"/>
<path d="M26.2114 48.2297L33.3205 33.632C33.4691 33.3272 33.4238 32.9637 33.2057 32.7038M26.2114 48.2297C22.2076 48.3416 18.5846 45.8702 17.228 42.1016L16.8416 41.0283M26.2114 48.2297L25.774 49.8529C25.2088 51.9505 24.3815 53.9686 23.3116 55.8595M33.2057 32.7038L30.8711 29.9315M33.2057 32.7038C35.5538 30.411 38.268 28.5247 41.2357 27.1235C42.5374 26.5088 43.6487 25.9837 44.003 25.8166C44.5514 25.5574 46.5632 23.9079 48.3097 22.4282C49.5673 21.3624 50.5652 20.0273 51.2597 18.5329L51.7606 17.4549C52.9118 14.9771 52.9028 12.1153 51.7363 9.64335M16.8416 41.0283C16.7246 40.7034 16.7492 40.3446 16.9092 40.0388L18.8046 36.4157C19.4387 35.2038 20.3034 34.1256 21.3493 33.2438L21.4627 33.1482C22.982 31.8665 24.8115 31.0094 26.7678 30.6613L30.8711 29.9315M16.8416 41.0283L14.9319 43.1226L13.4283 45.0498C12.4792 46.2663 11.8206 47.6836 11.5026 49.1934C11.0473 51.3558 11.3116 53.6079 12.2553 55.6061L12.2973 55.695M23.3116 55.8595L22.8136 56.7398C22.106 57.9906 20.8952 58.8773 19.4891 59.1744C17.9991 59.4892 16.4467 59.1091 15.2708 58.1415L12.2973 55.695M23.3116 55.8595L24.5435 60.3457M30.8711 29.9315L33.9226 26.5873C35.3877 24.9821 36.6272 23.1846 37.6069 21.2443L38.3861 19.7011C39.1169 18.2537 39.5912 16.6908 39.7879 15.0814L40.0991 12.5375C40.2569 11.2477 40.0021 9.94084 39.3709 8.80544L39.0173 8.16949C37.572 5.56784 33.9476 4.17665 31.8015 6.2392C31.487 6.54124 30.7366 7.88541 30.0544 9.18394C29.4211 10.3893 29.4135 11.8224 29.9954 13.054M12.2973 55.695L12.1499 56.9868C11.8703 59.4378 12.2803 61.9183 13.3338 64.149C13.9094 65.3677 15.0835 67.854 15.1756 68.0489C15.2676 68.244 18.9736 67.7459 20.8151 67.4725M20.8151 67.4725L21.205 66.9997C22.8041 65.061 23.9453 62.7865 24.5435 60.3457M20.8151 67.4725C18.977 67.7014 18.2728 69.9949 19.6657 71.2157L20.6083 72.0418L20.7641 72.1652C22.9091 73.8623 25.9166 73.9404 28.1469 72.3572M24.5435 60.3457L25.7718 61.1273C26.9231 61.8599 28.0134 62.6841 29.0324 63.5919M28.1469 72.3572L28.5158 70.0972C28.8669 67.9467 29.0397 65.7708 29.0324 63.5919M28.1469 72.3572L28.6459 73.4142C28.9127 73.9789 29.4206 74.3927 30.0276 74.5398C30.4864 74.6509 30.9694 74.6016 31.3963 74.4001L34.3619 72.9995M29.0324 63.5919L31.0695 63.5242L33.3483 63.3423M33.3483 63.3423L33.3808 63.3821C34.6991 64.9985 35.2577 67.1041 34.914 69.1614L34.3619 72.9995M33.3483 63.3423L33.6953 63.2213C36.6496 62.1914 39.3713 60.5876 41.7037 58.5022M34.3619 72.9995L36.1761 71.6481C37.8709 70.3856 39.3497 68.8564 40.5548 67.1204C41.7956 65.3326 42.7292 63.3501 43.3169 61.2547L43.971 58.9219M41.7037 58.5022L43.971 58.9219M41.7037 58.5022L38.5297 52.2502L36.6215 47.7635C36.5566 47.611 36.5157 47.4494 36.4999 47.2843L36.4877 47.1557C36.3726 45.9509 37.625 45.0876 38.7096 45.6243C39.092 45.8128 39.5353 45.8353 39.9345 45.6865L42.0998 44.8778C42.2491 44.8219 42.3924 44.752 42.528 44.6683C43.5853 44.0161 44.9821 44.2541 45.5954 45.3348C46.1061 46.2342 46.5224 47.2183 46.4561 47.9107C46.4472 48.003 46.4367 48.1048 46.424 48.2158C46.0127 51.8606 45.0742 55.4238 43.971 58.9219" stroke="#282828" stroke-width="4"/>
</svg>
