<svg width="173" height="76" viewBox="0 0 173 76" fill="none" xmlns="http://www.w3.org/2000/svg">
<path d="M168.567 27.2731C168.815 30.3177 167.214 33.5609 163.491 36.9564C159.776 40.3457 154.155 43.6808 146.942 46.8166C132.535 53.0799 112.155 58.3866 89.0544 61.8303C65.9546 65.2739 44.6539 66.1808 29.0262 64.3911C21.2013 63.495 14.8973 61.9331 10.5146 59.7416C6.10941 57.5388 3.93224 54.8588 3.68732 51.8522C3.43856 48.7986 5.10131 45.3419 8.9331 41.6194C12.7422 37.919 18.4804 34.1778 25.7941 30.6371C40.405 23.5636 60.9806 17.4441 84.0454 14.0058C107.11 10.5675 128.177 10.4792 143.576 13.079C151.284 14.3804 157.487 16.3415 161.8 18.8311C166.139 21.3356 168.319 24.2195 168.567 27.2731Z" stroke="#F9C8A8" stroke-width="3"/>
<path d="M3.0127 52.1693C7.05012 36.4598 41.3683 6.59778 146.341 12.8255C185.008 19.5581 194.791 52.1693 43.5423 72.1568" stroke="#F9C8A8" stroke-width="3" stroke-linecap="round"/>
</svg>
