<svg width="24" height="24" viewBox="0 0 24 24" fill="none" xmlns="http://www.w3.org/2000/svg">
<path d="M4.05 21C3.88333 21 3.70833 20.996 3.525 20.988C3.34167 20.9793 3.16667 20.9667 3 20.95V15.1L8 14.1L10.9 17C12.1667 16.2333 13.3293 15.325 14.388 14.275C15.446 13.225 16.325 12.1 17.025 10.9L14.175 8.025L15.1 3H20.95C20.9833 3.16667 21 3.34167 21 3.525V4.05C21 6.2 20.5207 8.29567 19.562 10.337C18.604 12.379 17.3373 14.1917 15.762 15.775C14.1873 17.3583 12.3793 18.625 10.338 19.575C8.296 20.525 6.2 21 4.05 21Z" fill="#EE693F"/>
</svg>
