<svg width="125" height="144" viewBox="0 0 125 144" fill="none" xmlns="http://www.w3.org/2000/svg">
<g clip-path="url(#clip0_346_856)">
<path d="M40.3691 50.9071L49.1705 46.3909C50.1402 45.8934 51.3244 46.4037 51.6247 47.4485C51.7033 47.7221 51.8022 47.9895 51.9207 48.2485L52.3834 49.2607C53.0882 50.8022 54.4053 51.9818 56.0184 52.5163L56.4195 52.6492C57.9011 53.1402 59.515 53.0479 60.9305 52.3912L62.4645 51.6795C63.4466 51.2239 64.2899 50.5163 64.9075 49.6294L66.4094 47.4728C66.8699 46.8114 67.194 46.0656 67.364 45.2786L67.7376 43.5457C67.962 42.5029 69.0316 41.8725 70.0571 42.1784L74.9309 43.6319C75.0685 43.673 75.2012 43.7301 75.3253 43.8018L115.717 67.1402C115.899 67.2456 116.062 67.3814 116.198 67.5423L121.457 73.7507C121.539 73.8469 121.61 73.9511 121.67 74.0614L123.571 77.5711C123.855 78.0957 123.864 78.7245 123.6 79.2589C122.851 80.7712 121.81 82.927 121.58 83.6149C121.315 84.404 119.361 83.3876 118.264 82.6882C118.146 82.6126 118.021 82.5492 117.89 82.4999L110.076 79.5867C109.833 79.4959 109.574 79.4582 109.315 79.4746L99.4949 80.1046C99.0974 80.1296 98.7029 80.026 98.3703 79.8085L85.6134 71.4651L90.8517 104.097L91.8705 113.215C91.8894 113.384 91.9316 113.549 91.9965 113.706L94.9825 120.963C95.0216 121.058 95.0528 121.158 95.0754 121.259L95.9652 125.239C96.2122 126.345 95.4008 127.406 94.2652 127.462L68.1546 128.744H43.0852C42.2267 128.744 41.4829 128.15 41.2951 127.315L35.741 102.631C35.7007 102.452 35.6877 102.268 35.7024 102.085L37.7754 76.2757L33.7482 79.9931C33.6399 80.0931 33.5199 80.1796 33.3908 80.2509L30.4425 81.8796C26.2523 83.6149 17.7322 87.1557 17.1735 87.4335C16.6498 87.6937 14.8581 89.8044 13.8687 91.0212C13.7444 91.1741 13.6468 91.3466 13.5784 91.5306L11.799 96.332C11.4783 97.1979 10.5605 97.6902 9.66048 97.4727C7.60744 96.9767 5.03696 96.3278 4.60284 96.1121C4.09662 95.8604 3.74329 92.7401 3.59481 90.7787C3.56681 90.4088 3.65801 90.0408 3.84981 89.7227L12.8604 74.7932C12.942 74.6579 13.0408 74.5336 13.1543 74.424L26.2523 61.7452L40.0868 51.0861C40.1752 51.018 40.2697 50.9581 40.3691 50.9071Z" fill="#02C69E"/>
<path d="M56.6738 99.4559L57.0137 101.97C57.027 102.067 57.0163 102.167 56.9827 102.26C56.8311 102.681 57.1631 103.117 57.6346 103.117H60.4457C61.4369 103.117 61.9288 101.984 61.2213 101.33C61.0725 101.193 60.8854 101.098 60.6817 101.056L57.7538 100.454" stroke="#282828" stroke-width="4"/>
<path d="M49.3033 43.2449V46.0813C49.3033 46.4902 49.3868 46.8948 49.549 47.271L51.0872 50.8402C51.285 51.2992 51.5942 51.7031 51.9876 52.0159L54.0195 53.6325C54.5658 54.0671 55.2463 54.3041 55.9477 54.3041H59.0722C59.9337 54.3041 60.7558 53.947 61.338 53.3197L64.0242 50.426C64.3974 50.0237 64.6544 49.5293 64.7675 48.9951L65.8669 43.8C65.945 43.4333 65.9512 43.0553 65.8854 42.6864L64.6667 35.8193C64.4613 34.661 62.8307 34.531 62.4397 35.6417M49.3033 43.2449L54.9266 42.3129C55.3436 42.2438 55.7416 42.0905 56.0959 41.8625L60.5861 38.9733C61.157 38.6059 61.5882 38.0615 61.8119 37.4258L62.4397 35.6417M49.3033 43.2449L44.8096 42.407C44.1193 42.2783 43.4944 41.92 43.039 41.3916L39.9616 37.8212C39.7046 37.523 39.5084 37.1786 39.3838 36.8069L36.4447 28.0385L34.7212 18.7832C34.7118 18.7327 34.707 18.6814 34.707 18.6301C34.707 17.9406 35.4971 17.5405 36.0638 17.943L36.7949 18.4624C37.0191 18.6216 37.2883 18.7073 37.5645 18.7073H43.8198C44.4484 18.7073 45.0619 18.517 45.5776 18.1619L49.0621 15.7629C49.2219 15.653 49.3626 15.5183 49.4789 15.364C49.9856 14.6922 50.8964 14.4578 51.6705 14.7999L53.4736 15.5969L54.8181 16.2654C55.7175 16.7126 56.3269 17.5696 56.5547 18.5386C56.7372 19.3149 56.9883 20.1681 57.2964 20.7809C57.6341 21.4523 58.4157 22.3276 59.1593 23.0663C59.7971 23.7001 60.8488 23.5332 61.312 22.7656C61.4141 22.5963 61.5504 22.4495 61.7124 22.3345L62.9383 21.4635C63.5391 21.0371 64.315 20.9359 65.0067 21.1939C65.9825 21.5576 66.5672 22.5457 66.4098 23.5638L65.985 26.3105L64.6796 31.1773C64.6231 31.3882 64.5437 31.5924 64.4429 31.7865L62.4397 35.6417" stroke="#282828" stroke-width="4"/>
<path d="M47.6243 79.4878L51.7926 87.8629L49.2903 78.7846C49.1293 78.201 48.4941 77.9251 47.9875 78.219C47.5584 78.4678 47.3972 79.031 47.6243 79.4878Z" stroke="#282828" stroke-width="4"/>
<path d="M35.9452 78.1797L39.7862 64.3138M35.9452 78.1797L31.918 81.9054C31.8097 82.0054 31.6897 82.0925 31.5606 82.1638L28.6124 83.7957C24.4222 85.5349 15.9022 89.0834 15.3435 89.3619C14.8197 89.6227 13.0276 91.7384 12.0383 92.9578C11.9142 93.1102 11.8169 93.2826 11.7487 93.4673L9.96865 98.2808C9.64816 99.1473 8.72955 99.6403 7.82891 99.4222C5.77615 98.9255 3.2069 98.2753 2.7729 98.0596C2.2665 97.8073 1.91309 94.6775 1.7647 92.7122C1.73683 92.343 1.82771 91.9749 2.01889 91.658L11.0307 76.6934C11.1121 76.5581 11.2106 76.4344 11.324 76.3241L24.4222 63.6178L38.2565 52.9357C38.345 52.8675 38.4395 52.8074 38.5389 52.7563L47.3365 48.2323C48.3076 47.7329 49.4944 48.2441 49.7946 49.2912C49.8731 49.5647 49.9718 49.8321 50.0899 50.091L50.5547 51.1099C51.2585 52.6524 52.575 53.8333 54.1882 54.3691L54.5849 54.5008C56.069 54.9937 57.6862 54.901 59.1039 54.2419L60.6341 53.5304C61.6163 53.0738 62.4589 52.3652 63.0759 51.4772L64.5808 49.3117C65.0401 48.6507 65.3635 47.9058 65.5323 47.1196L65.9072 45.3771C66.1316 44.3333 67.2024 43.7024 68.2285 44.0091L73.1004 45.4653C73.238 45.5065 73.3707 45.5637 73.4948 45.6357L113.886 69.0243C114.069 69.1303 114.231 69.2662 114.368 69.4271L119.627 75.6495C119.708 75.7458 119.779 75.85 119.839 75.9603L121.741 79.4813C122.024 80.0048 122.034 80.6324 121.77 81.1663C121.022 82.6818 119.979 84.8451 119.749 85.5349C119.484 86.3259 117.53 85.3076 116.433 84.6062C116.315 84.5307 116.191 84.4667 116.059 84.4173L108.246 81.4984C108.002 81.4076 107.743 81.3692 107.483 81.3856L97.6648 82.0169C97.2673 82.0425 96.8717 81.9383 96.539 81.7196L83.7829 73.3588M35.9452 78.1797L33.8703 104.069C33.8569 104.237 33.8667 104.405 33.8993 104.57L39.5236 132.917C39.6797 133.704 40.3322 134.297 41.1327 134.381L63.1817 136.676H90.77C91.7466 136.676 92.552 135.913 92.6021 134.941L93.1898 123.515C93.2038 123.247 93.158 122.978 93.0559 122.73L90.1652 115.69C90.101 115.534 90.0588 115.369 90.0399 115.2L89.0211 106.061L83.7829 73.3588M83.7829 73.3588L73.3077 67.7927M72.9585 47.6147L70.88 49.3898C70.6403 49.5945 70.4574 49.8574 70.3498 50.153L69.2277 53.2262C69.1549 53.4264 69.1176 53.6379 69.1176 53.851V55.6803C69.1176 55.8684 69.1464 56.0554 69.2038 56.2347L71.5618 63.6178" stroke="#282828" stroke-width="4"/>
<path d="M22.3497 101.86L12.9015 100.389C10.9239 100.081 9.76403 97.9825 10.5481 96.1313L11.0101 95.0403C11.0715 94.8959 11.1439 94.7559 11.2265 94.622L14.0825 89.9977C14.4209 89.4497 14.9217 89.0221 15.5143 88.7753L20.554 86.6754L28.6055 83.2285C29.283 82.9384 30.0415 82.9027 30.7427 83.1285L45.0585 87.738L51.4614 88.9721C52.0788 89.0912 52.7176 89.0165 53.2914 88.7586L55.2679 87.8694C55.4624 87.7824 55.6654 87.7152 55.8737 87.6701L59.4626 86.892C60.1089 86.7519 60.7833 86.8383 61.3739 87.137C62.1276 87.5183 62.6786 88.2119 62.8823 89.0357L63.2941 90.7017C63.4972 91.5237 63.3554 92.3931 62.902 93.1065L60.9558 96.1702C60.6332 96.6774 60.1699 97.0791 59.6229 97.3253L54.6339 99.569C54.3203 99.7103 53.9854 99.7973 53.6431 99.8269L37.7072 101.199L22.9625 101.893C22.7576 101.903 22.5523 101.892 22.3497 101.86Z" fill="white" stroke="#282828" stroke-width="4"/>
<path d="M31.6634 114.941L31.1064 112.159C31.0668 111.962 31.0469 111.761 31.0469 111.56V107.998C31.0469 106.314 32.4103 104.947 34.0922 104.947H75.5935C77.467 104.947 78.8959 106.626 78.6005 108.479L77.9518 112.554L76.4834 118.421C76.4237 118.658 76.3366 118.887 76.2227 119.103L73.773 123.751C73.2547 124.735 72.2461 125.358 71.1351 125.377C63.9646 125.498 52.3252 125.693 51.8165 125.693C51.3223 125.693 43.2557 125.142 37.9994 124.778C36.9094 124.703 35.9461 124.047 35.471 123.062L31.9069 115.668C31.7955 115.437 31.7137 115.193 31.6634 114.941Z" fill="#F26226"/>
<path d="M30.9637 108.405H24.8493C23.823 108.405 23.0213 109.289 23.1241 110.307C23.2134 111.19 23.959 111.862 24.8493 111.862H30.9637M30.9637 108.405V107.998C30.9637 106.314 32.3337 104.947 34.0236 104.947H77.0757C78.4166 104.947 79.5034 106.031 79.5034 107.368M30.9637 108.405H32.0234C32.9811 108.405 33.7574 109.179 33.7574 110.134C33.7574 111.089 32.9811 111.862 32.0234 111.862H30.9637M30.9637 111.862L31.5854 114.94C31.6364 115.193 31.7191 115.437 31.8317 115.669L35.4285 123.065C35.9068 124.049 36.8739 124.702 37.9678 124.777C43.27 125.141 51.4171 125.693 51.9161 125.693C52.4294 125.693 64.1827 125.498 71.415 125.377C72.5294 125.358 73.5416 124.737 74.0636 123.756L76.5366 119.104C76.6516 118.887 76.7398 118.658 76.7997 118.42L77.9441 113.888C78.2446 112.698 79.3192 111.862 80.5511 111.862H84.7413M84.7413 111.862V111.456C84.7413 109.771 83.3711 108.405 81.6814 108.405H74.9516C73.9938 108.405 73.2172 109.179 73.2172 110.134C73.2172 111.089 73.9938 111.862 74.9516 111.862H84.7413Z" stroke="#282828" stroke-width="4"/>
<path d="M93.5644 87.5871L95.2418 84.0296C95.7056 83.0462 96.6654 82.3837 97.7574 82.2929L104.021 81.7721C104.204 81.757 104.387 81.7576 104.569 81.7752L110.591 82.3474C111.222 82.4073 111.819 82.6605 112.299 83.071L113.58 84.1664C115.041 85.4168 114.981 87.6779 113.454 88.8496L102.912 96.9443L93.45 104.027C93.2995 104.139 93.1594 104.266 93.0321 104.404L85.6114 112.485L82.5849 116.055C80.5061 118.506 76.507 116.505 77.2687 113.395L77.8841 110.883C77.9606 110.571 78.0854 110.274 78.2585 110.003C78.9009 108.999 79.9403 107.439 80.4211 106.959C80.9748 106.406 77.1922 105.578 76.9616 104.887C76.745 104.455 76.7591 103.945 76.9995 103.526L77.7978 102.131C77.9318 101.898 78.0964 101.683 78.2873 101.492L84.5732 95.2173L87.1567 92.639C87.2797 92.5161 87.413 92.4046 87.555 92.3041L92.5666 88.7733C92.9973 88.4699 93.3411 88.0612 93.5644 87.5871Z" fill="#FDFDF7" stroke="#282828" stroke-width="4"/>
<path d="M20.6738 125.693L65.9598 126.739L68.0496 130.574H69.7916L71.5336 126.739H78.8488M78.8488 126.739H109.504M78.8488 126.739L76.7584 130.574M118.909 130.574L117.167 126.739H109.504M109.504 126.739L111.246 130.574M58.9927 126.739L60.3861 130.574" stroke="#282828" stroke-width="4"/>
<path d="M117.596 130.574H16.4962C12.7381 130.574 9.69141 133.579 9.69141 137.286C9.69141 140.993 12.7381 143.998 16.4962 143.998H117.596C121.355 143.998 124.401 140.993 124.401 137.286C124.401 133.579 121.355 130.574 117.596 130.574Z" fill="#F9C8A8"/>
<path d="M55.5092 17.5117L57.1935 20.475C58.1506 22.1588 60.4171 22.4764 61.7889 21.1188C62.0976 20.8131 62.4692 20.5803 62.8771 20.4367L63.1943 20.3251C64.5942 19.8327 65.6588 18.6655 66.034 17.2129L66.2404 16.4146C66.4928 15.4388 66.4977 14.4157 66.2719 13.4332C65.7593 11.2008 65.1788 8.39729 65.4336 8.39729C65.6812 8.39729 64.3357 6.99592 63.1664 5.83227C62.5872 5.2556 61.8046 4.94011 60.9927 4.94011H60.5908C59.6633 4.94011 58.8124 4.41823 58.382 3.58536C58.0683 2.9782 57.5247 2.52622 56.876 2.33306L54.5722 1.64716C53.3737 1.29033 52.0957 1.31811 50.9133 1.72669L47.6823 2.84327C47.3434 2.9604 47.0175 3.1132 46.71 3.29917C45.0464 4.30525 42.9631 4.27849 41.3397 3.20708C40.122 2.40348 39.0145 1.6557 38.8359 1.48289C37.752 0.434107 36.4243 2.76835 36.7922 4.24074C37.0446 5.2509 37.248 6.16557 37.248 6.47661C37.248 7.40443 35.9776 7.3218 35.6028 6.47538L35.3319 5.86371C35.2861 5.76044 35.2515 5.65248 35.2286 5.54169L34.7962 3.44943C34.6056 2.5274 33.8035 1.86703 32.8741 1.86703C32.369 1.86703 31.8833 2.06427 31.518 2.41777L31.0429 2.8775C30.435 3.46573 30.049 4.25084 29.9519 5.097L29.8644 5.85906C29.7598 6.76985 29.8706 7.69283 30.1876 8.55164L31.6902 12.6228L33.2662 15.6728C34.0344 17.1594 35.3697 18.2621 36.9613 18.7241L37.4931 18.8785C38.1195 19.0603 38.7708 19.1384 39.4218 19.1098L42.1575 18.9895C43.3565 18.9368 44.5129 18.5239 45.4799 17.8034L49.8804 14.5245C50.3166 14.1995 50.8561 14.0498 51.3947 14.1044C51.7504 14.1404 52.092 14.2642 52.3896 14.4649L53.3523 15.1142C53.9905 15.5446 54.5422 16.094 54.978 16.733L55.5092 17.5117Z" stroke="#282828" stroke-width="4"/>
<path d="M84.1309 30.1721C84.1309 29.8408 86.2754 24.8441 87.7531 21.3806C88.3759 19.9206 89.9714 19.1817 91.4378 19.6803L92.466 20.0299L94.3468 20.716C96.0353 21.3321 96.8194 23.3384 96.0186 24.9939L92.466 32.3384" stroke="#282828" stroke-width="4"/>
<path d="M22.7302 51.8635C22.4314 51.7132 18.9349 47.4534 16.5072 44.5086C15.4839 43.2673 15.5683 41.4496 16.7081 40.3135L17.5073 39.5168L19.0111 38.0808C20.3613 36.7916 22.5394 36.9736 23.6554 38.4689L28.6063 45.1025" stroke="#282828" stroke-width="4"/>
<path d="M82.6059 31.7283C84.4593 31.7283 85.9618 30.3624 85.9618 28.6775C85.9618 26.9926 84.4593 25.6267 82.6059 25.6267C80.7525 25.6267 79.25 26.9926 79.25 28.6775C79.25 30.3624 80.7525 31.7283 82.6059 31.7283Z" fill="#282828"/>
<path d="M23.3616 53.4483C24.1969 51.7938 23.6548 49.837 22.1507 49.0776C20.6467 48.3182 18.7502 49.0438 17.9149 50.6983C17.0795 52.3528 17.6216 54.3096 19.1257 55.069C20.6298 55.8284 22.5262 55.1028 23.3616 53.4483Z" fill="#282828"/>
<path d="M90.5375 35.3893C92.3909 35.3893 93.8934 34.0234 93.8934 32.3385C93.8934 30.6535 92.3909 29.2877 90.5375 29.2877C88.6841 29.2877 87.1816 30.6535 87.1816 32.3385C87.1816 34.0234 88.6841 35.3893 90.5375 35.3893Z" fill="#282828"/>
<path d="M30.0745 47.9569C30.9098 46.3024 30.3677 44.3455 28.8636 43.5861C27.3596 42.8267 25.4631 43.5523 24.6278 45.2068C23.7924 46.8613 24.3345 48.8181 25.8386 49.5775C27.3427 50.3369 29.2391 49.6113 30.0745 47.9569Z" fill="#282828"/>
</g>
<defs>
<clipPath id="clip0_346_856">
<rect width="123.862" height="143.998" fill="white" transform="translate(0.539062)"/>
</clipPath>
</defs>
</svg>
