<svg width="116" height="154" viewBox="0 0 116 154" fill="none" xmlns="http://www.w3.org/2000/svg">
<g clip-path="url(#clip0_346_834)">
<path d="M91.3931 3.52002H58.878C54.9952 3.52002 51.8477 6.67193 51.8477 10.56V96.8C51.8477 100.688 54.9952 103.84 58.878 103.84H91.3931C95.2758 103.84 98.4234 100.688 98.4234 96.8V10.56C98.4234 6.67193 95.2758 3.52002 91.3931 3.52002Z" fill="#00CAA1"/>
<path d="M19.3763 113.278L24.6371 105.796C26.151 103.643 29.1333 103.196 31.1997 104.813C34.286 107.635 58.8792 120.14 58.8792 120.478C58.8792 124.046 58.7792 121.78 58.51 125.338C57.9499 132.737 57.2928 141.553 57.2928 142.071C57.2928 142.918 53.5051 142.495 52.6634 142.071C52.2756 141.876 51.0318 140.923 49.7518 139.907C48.0986 138.594 47.0542 136.657 46.8075 134.547L46.5617 132.445C46.4282 131.304 45.7887 130.286 44.8237 129.679C43.6857 128.964 42.2559 128.919 41.0763 129.562L37.9244 131.279C34.805 132.98 31.0256 132.866 28.0107 130.984L22.1951 127.353C21.1923 126.727 20.3102 125.922 19.592 124.976C16.9862 121.549 16.8987 116.802 19.3763 113.278Z" fill="#EE693F"/>
<path d="M46.2782 47.7458L47.5717 53.573L47.9459 7.49037C47.9592 5.85653 48.663 4.30473 49.8828 3.21925C50.9392 2.27924 52.3033 1.76001 53.7167 1.76001H65.7458H70.487H84.7102L96.4653 2.45226C97.5362 2.51529 98.5324 3.01886 99.2192 3.84351C99.8004 4.54177 100.119 5.42194 100.119 6.33088V28.2598L100.407 28.192L104.024 27.3397C105.825 26.9157 107.719 27.2224 109.295 28.1926L109.871 28.5475C111.207 29.3708 112.128 30.727 112.4 32.2741C112.843 34.7881 111.499 37.2767 109.156 38.2823L108.288 38.6546C107.847 38.8435 107.388 38.9845 106.918 39.0751L100.802 40.2524C98.6775 40.6615 96.4996 39.8718 95.1288 38.1954C94.268 37.1414 93.7976 35.8218 93.7976 34.4601V34.1187C93.7976 32.6465 94.3814 31.2347 95.4216 30.1937C96.1672 29.4473 97.1098 28.9292 98.1394 28.7002L100.119 28.2598V6.33088C100.119 5.42194 99.8004 4.54177 99.2192 3.84351C98.5324 3.01886 97.5362 2.51529 96.4653 2.45226L84.7102 1.76001V3.68959C84.7102 4.22682 84.497 4.74206 84.1176 5.12193C83.7381 5.5018 83.2235 5.7152 82.6869 5.7152H65.7458C64.6549 5.7152 63.7704 4.82981 63.7704 3.7376C63.7704 2.64541 64.6549 1.76001 65.7458 1.76001H53.7167C52.3033 1.76001 50.9392 2.27924 49.8828 3.21925C48.663 4.30473 47.9592 5.85653 47.9459 7.49037L47.5717 53.573L47.2453 93.7738C47.2069 98.4946 50.8956 102.405 55.6058 102.637L71.2772 103.408H95.7328C97.4641 103.408 99.06 102.469 99.9006 100.953C100.302 100.23 100.509 99.4136 100.501 98.5852L100.119 61.8789C98.6837 61.8789 97.3885 61.0149 96.8363 59.6883L96.6851 59.3238C96.1426 58.021 96.511 56.5166 97.5943 55.6131C97.9556 55.3115 98.3794 55.093 98.834 54.9731L103.587 53.7209C104.875 53.3815 106.248 53.71 107.244 54.5962L107.677 54.9813C108.604 55.8066 108.952 57.1058 108.559 58.2842C108.224 59.2914 107.397 60.0573 106.368 60.3147L100.119 61.8789L100.501 98.5852C100.509 99.4136 100.302 100.23 99.9006 100.953C99.06 102.469 97.4641 103.408 95.7328 103.408H71.2772L68.2516 105.176C67.1221 105.835 66.1539 106.738 65.4172 107.82L60.9539 114.373C60.7249 114.71 60.4651 115.023 60.1777 115.311L58.6527 116.837C57.4755 118.016 55.6561 118.26 54.2106 117.433C53.9995 117.313 53.777 117.213 53.5464 117.136L41.6126 113.153C41.1087 112.985 40.6211 112.772 40.1557 112.516L33.9579 109.103C33.2911 108.736 32.6746 108.284 32.1241 107.757L27.3272 103.174C25.3899 101.323 24.4011 98.6882 24.6408 96.0184L27.4221 65.0431L28.6074 59.9014L31.1415 52.6532C31.2956 52.2124 31.4144 51.76 31.4968 51.3003L34.1387 36.5657L36.5092 28.2598L39.3876 17.0939C39.5725 16.3769 39.9458 15.7225 40.4689 15.1989C41.4503 14.2164 42.8584 13.7916 44.2187 14.0677L44.2859 14.0814C46.3556 14.5014 47.8072 16.3739 47.6999 18.4854L46.7815 36.5657L46.0968 45.1342C46.0269 46.0089 46.088 46.8892 46.2782 47.7458Z" fill="white"/>
<path d="M100.355 42.4868L106.766 40.6925C107.908 40.3727 109.126 40.4147 110.243 40.8126L111.558 41.2813C112.345 41.5614 112.958 42.1781 113.222 42.9558C113.452 43.6314 113.398 44.3689 113.074 45.0059L112.414 46.2973C111.667 47.7612 110.357 48.8744 108.772 49.3919L103.078 51.251L100.084 51.8375C98.3643 52.1743 96.6077 51.4615 95.6346 50.0324C95.161 49.3362 94.9082 48.5071 94.9082 47.6703C94.9082 45.9277 95.9688 44.3281 97.6033 43.6416L100.355 42.4868Z" fill="white"/>
<path d="M47.4698 53.573L46.1821 47.7459C45.9927 46.8892 45.9319 46.0089 46.0015 45.1342L46.6831 36.5657L47.5974 18.4854C47.7042 16.3739 46.2591 14.5014 44.1986 14.0814L44.1317 14.0677C42.7774 13.7916 41.3756 14.2164 40.3985 15.1989C39.8777 15.7225 39.5061 16.3769 39.322 17.0939L36.4564 28.2598L34.0964 36.5657L31.4662 51.3003C31.3842 51.76 31.266 52.2124 31.1125 52.6532L28.5896 59.9014L27.4096 65.0431L24.6406 96.0184C24.402 98.6882 25.3865 101.323 27.3152 103.174L32.0907 107.757C32.6388 108.284 33.2525 108.736 33.9164 109.103L40.0867 112.516C40.55 112.772 41.0354 112.985 41.5371 113.153L53.4179 117.136C53.6475 117.213 53.8691 117.313 54.0792 117.433C55.5183 118.26 57.3296 118.016 58.5016 116.837L60.0199 115.311C60.3059 115.023 60.5647 114.71 60.7926 114.373L65.2361 107.82C65.9695 106.738 66.9334 105.835 68.0579 105.176L71.0701 103.408M71.0701 103.408L55.4682 102.637C50.779 102.405 47.1066 98.4946 47.1448 93.7738L47.8424 7.49037C47.8556 5.85653 48.5562 4.30473 49.7706 3.21925C50.8223 2.27924 52.1804 1.76001 53.5875 1.76001H70.2834M71.0701 103.408H95.4172C97.1408 103.408 98.7296 102.469 99.5665 100.953C99.9665 100.23 100.172 99.4136 100.164 98.5852L99.7835 61.8789M70.2834 1.76001H65.5632C64.4772 1.76001 63.5966 2.64541 63.5966 3.7376C63.5966 4.82981 64.4772 5.7152 65.5632 5.7152H82.4291C82.9634 5.7152 83.4757 5.5018 83.8535 5.12193C84.2312 4.74206 84.4435 4.22682 84.4435 3.68959V1.76001M70.2834 1.76001H84.4435M99.7835 61.8789C98.3549 61.8789 97.0655 61.0149 96.5158 59.6883L96.3652 59.3238C95.8251 58.021 96.1919 56.5166 97.2704 55.6131C97.6301 55.3115 98.0521 55.093 98.5046 54.9731L103.237 53.7209C104.519 53.3815 105.886 53.71 106.878 54.5962L107.308 54.9813C108.232 55.8066 108.577 57.1058 108.186 58.2842C107.853 59.2914 107.03 60.0573 106.006 60.3147L99.7835 61.8789ZM84.4435 1.76001L96.1464 2.45226C97.2126 2.51529 98.2044 3.01886 98.888 3.84351C99.4667 4.54177 99.7835 5.42194 99.7835 6.33088V28.2598M99.7835 28.2598L97.8131 28.7002C96.788 28.9292 95.8496 29.4473 95.1073 30.1937C94.0718 31.2347 93.4905 32.6465 93.4905 34.1187V34.4601C93.4905 35.8218 93.9588 37.1414 94.8158 38.1954C96.1805 39.8718 98.3488 40.6615 100.464 40.2524L106.553 39.0751C107.021 38.9845 107.478 38.8435 107.917 38.6546L108.781 38.2823C111.113 37.2767 112.452 34.7881 112.011 32.2741C111.739 30.727 110.823 29.3708 109.492 28.5475L108.919 28.1926C107.35 27.2224 105.465 26.9157 103.672 27.3397L99.7835 28.2598ZM100.57 8.08832L104.066 3.9881C104.861 3.05529 105.935 2.40698 107.128 2.14047L107.304 2.10106C108.298 1.87887 109.336 1.96351 110.282 2.34391L110.64 2.48768C111.969 3.02231 112.95 4.18264 113.26 5.58793C113.449 6.44386 113.377 7.33727 113.053 8.15137L112.342 9.938C112.1 10.5487 111.789 11.1301 111.418 11.6713L100.071 28.192M99.3905 42.894L105.873 41.0315C107.028 40.6996 108.259 40.7433 109.388 41.1562L110.719 41.6427C111.513 41.9335 112.133 42.5736 112.401 43.3808C112.633 44.0821 112.579 44.8475 112.251 45.5088L111.584 46.8492C110.828 48.3687 109.504 49.5241 107.901 50.0613L102.144 51.991L99.1165 52.5997C97.378 52.9494 95.6019 52.2094 94.618 50.7261C94.1392 50.0034 93.8836 49.1429 93.8836 48.2744C93.8836 46.4655 94.9559 44.8052 96.6086 44.0926L99.3905 42.894Z" stroke="#282828" stroke-width="4"/>
<path d="M25.4851 98.56L13.3307 117.019C11.9557 119.107 12.4437 121.917 14.4406 123.409M14.4406 123.409L26.0739 132.099C29.6151 134.745 34.55 134.335 37.6151 131.141L39.6101 129.061C41.2584 127.344 44.1403 128.521 44.1403 130.913V133.192C44.1403 136.976 46.5199 140.344 50.0653 141.578L55.6243 143.51M14.4406 123.409L1.75781 151.776M55.6243 143.51L58.0002 117.186M55.6243 143.51V154.88" stroke="#282828" stroke-width="4"/>
<ellipse cx="1.49814" cy="1.49889" rx="1.49814" ry="1.49889" transform="matrix(-0.613452 -0.789732 0.793027 -0.609186 93.8379 151.188)" fill="#EE693F"/>
<ellipse cx="3.99504" cy="3.99705" rx="3.99504" ry="3.99705" transform="matrix(-0.613452 -0.789732 0.793027 -0.609186 106.838 155.18)" fill="#F9C8A8"/>
<circle cx="2" cy="2" r="2" transform="matrix(0.990094 -0.140406 -0.140406 -0.990094 1.5625 98.522)" fill="#EE693F"/>
</g>
<defs>
<clipPath id="clip0_346_834">
<rect width="116" height="154" fill="white"/>
</clipPath>
</defs>
</svg>
