<svg width="187" height="154" viewBox="0 0 187 154" fill="none" xmlns="http://www.w3.org/2000/svg">
<path d="M56.1768 151.101L8.60747 114.712C6.17043 112.848 7.03064 108.984 10.0282 108.331L30.5208 103.863C67.6152 99.9387 141.942 92.1272 145.325 91.9773C145.407 91.9737 145.444 91.968 145.525 91.9543L165.169 88.5665C165.899 88.4405 166.65 88.5428 167.32 88.8591L177.025 93.4486C180.079 94.8932 179.643 99.3703 176.367 100.198L155.389 105.499C154.126 105.819 153.902 107.516 155.037 108.154L173.348 118.429C176.212 120.036 175.608 124.324 172.412 125.077L59.1899 151.745C58.1396 151.993 57.0339 151.756 56.1768 151.101Z" fill="#F26226"/>
<path d="M32.0265 102.363L32.2721 65.7334C29.9347 63.7696 25.6417 60.74 24.6899 59.9649C24.3241 59.6669 20.9763 55.6822 18.247 52.4565C16.2899 50.1436 15.9595 46.2635 17.5639 43.6937C18.1314 42.7847 18.9507 42.0596 19.9224 41.6065L20.8885 41.156C22.7739 40.2767 24.9032 40.0666 26.9244 40.5604L30.1263 41.3428C30.5385 41.4435 30.9229 41.6345 31.2521 41.902L33.7055 43.8966C34.578 44.6059 34.2415 46.0087 33.142 46.2458L32.7658 50.8205C38.5816 54.4668 44.9467 57.2117 51.5428 59.116C54.516 59.9744 57.2682 60.7331 58.7788 60.9541C62.9626 61.5663 92.5421 64.3444 93.3483 64.1706C94.1553 63.9967 126.819 62.5113 128.271 62.1983C129.278 61.9812 140.28 60.0133 147.532 58.5572C148.888 58.2848 149.952 57.3206 150.4 56.074L150.628 54.8543L150.578 53.4786C150.45 49.9276 152.888 46.7957 156.363 46.0462C159.187 45.4376 162.104 46.5401 163.818 48.8628L165.352 50.942C167.646 54.0521 167.292 58.3771 164.522 61.0726C163.753 61.8195 162.839 62.3991 161.835 62.7745L160.162 63.4003C158.758 63.9253 157.437 64.6433 156.222 65.5205C153.126 67.7565 148.917 70.7027 148.176 70.8625L146.225 108.172C146.144 109.727 145.869 111.265 145.407 112.752C144.682 115.084 143.509 117.253 141.953 119.135L141.763 119.364C139.656 121.913 136.956 123.907 133.9 125.174L130.491 126.587C128.536 127.397 126.512 128.029 124.443 128.475L119.274 129.59C112.661 131.015 105.912 131.72 99.1467 131.691L81.7817 131.615L70.2318 130.098C64.0505 129.285 57.9774 127.796 52.1222 125.657L49.2466 124.606C47.3863 123.926 45.5765 123.115 43.831 122.179L41.4257 120.89C40.4521 120.368 39.5358 119.746 38.6917 119.034C36.8114 117.446 35.3268 115.444 34.3555 113.184L33.9082 112.143C33.3831 110.922 32.9773 109.653 32.6967 108.353L32.5985 107.898C32.2059 106.08 32.014 104.223 32.0265 102.363Z" fill="white"/>
<path d="M32.7658 50.8205L32.3881 53.7622M32.7658 50.8205C38.5816 54.4668 44.9467 57.2117 51.5428 59.116C54.516 59.9744 57.2682 60.7331 58.7788 60.9541C62.9626 61.5663 92.5421 64.3444 93.3483 64.1706C94.1553 63.9967 126.819 62.5113 128.271 62.1983C129.278 61.9812 140.28 60.0133 147.532 58.5572C149.305 58.201 150.58 56.6612 150.628 54.8543M32.7658 50.8205L33.142 46.2458M32.3881 53.7622L32.5349 53.8318C36.6805 55.7988 39.9576 59.2203 41.7424 63.4448L42.1202 64.339C42.3225 64.8179 42.4795 65.3145 42.5892 65.8226L43.6444 70.7088C43.8058 71.4564 43.4514 72.2203 42.7762 72.5807C42.1808 72.8979 41.4544 72.8367 40.9208 72.4239L32.2721 65.7334M32.3881 53.7622L26.0582 50.2475L23.1325 48.1036C22.158 47.3895 21.8405 46.0776 22.3807 44.9975C22.928 43.9033 24.1925 43.3718 25.358 43.7461L33.142 46.2458M150.628 54.8543L150.578 53.4786C150.45 49.9276 152.888 46.7957 156.363 46.0462C159.187 45.4376 162.104 46.5401 163.818 48.8628L165.352 50.942C167.646 54.0521 167.292 58.3771 164.522 61.0726C163.753 61.8195 162.839 62.3991 161.835 62.7745L160.162 63.4003C158.758 63.9253 157.437 64.6433 156.222 65.5205C153.126 67.7565 148.917 70.7027 148.176 70.8625M150.628 54.8543C150.754 51.7563 152.961 49.1355 155.994 48.4815L156.361 48.4024C156.66 48.338 156.965 48.3086 157.27 48.315L158.413 48.3386C159.561 48.3623 160.542 49.1709 160.785 50.2928C160.997 51.2748 160.594 52.2876 159.766 52.8566L156.744 54.9322C156.34 55.2096 155.911 55.4491 155.464 55.6476L152.439 56.9877L150.001 58.2056M150.628 54.8543L150.001 58.2056M33.142 46.2458C34.2415 46.0087 34.578 44.6059 33.7055 43.8966L31.2521 41.902C30.9229 41.6345 30.5385 41.4435 30.1263 41.3428L26.9244 40.5604C24.9032 40.0666 22.7739 40.2767 20.8885 41.156L19.9224 41.6065C18.9507 42.0596 18.1314 42.7847 17.5639 43.6937C15.9595 46.2635 16.2899 50.1436 18.247 52.4565C20.9763 55.6822 24.324 59.6669 24.6899 59.9649C25.6417 60.74 29.9347 63.7696 32.2721 65.7334M32.2721 65.7334L32.0265 102.363C32.014 104.223 32.2059 106.08 32.5985 107.898L32.6967 108.353C32.9773 109.653 33.3831 110.922 33.9082 112.143L34.3555 113.184C35.3268 115.444 36.8114 117.446 38.6917 119.034C39.5358 119.746 40.4521 120.368 41.4257 120.89L43.8309 122.179C45.5765 123.115 47.3863 123.926 49.2466 124.606L52.1222 125.657C57.9774 127.796 64.0505 129.285 70.2318 130.098L81.7817 131.615L99.1467 131.691C105.912 131.72 112.661 131.015 119.274 129.59L124.443 128.475C126.512 128.029 128.536 127.397 130.491 126.587L133.9 125.174C136.956 123.907 139.656 121.913 141.763 119.364L141.953 119.135C143.509 117.253 144.682 115.084 145.407 112.752C145.869 111.265 146.144 109.727 146.225 108.172L148.176 70.8625M148.176 70.8625L140.286 76.3015C139.882 76.5799 139.381 76.6777 138.903 76.5713C138.019 76.3749 137.429 75.5427 137.535 74.645L138.001 70.7179C138.084 70.0206 138.285 69.3426 138.598 68.7135L139.367 67.1636C140.928 64.0179 143.473 61.4666 146.616 59.8965L150.001 58.2056" stroke="#282828" stroke-width="4"/>
<path d="M150.318 51.8575C150.296 53.0352 149.251 54.5789 146.238 56.249C143.337 57.8577 139.059 59.3231 133.659 60.5378C122.883 62.962 107.957 64.3177 91.4534 64.0013C74.9498 63.6848 60.0859 61.758 49.4074 58.9224C44.0569 57.5017 39.8368 55.8733 36.9975 54.1545C34.0495 52.37 33.0624 50.7875 33.0843 49.6098C33.1064 48.4319 34.1519 46.8884 37.1645 45.2181C40.066 43.6095 44.3438 42.144 49.7436 40.9294C60.5204 38.5052 75.4451 37.1495 91.9494 37.466C108.453 37.7824 123.317 39.7092 133.996 42.5448C139.346 43.9655 143.566 45.5939 146.405 47.3126C149.353 49.0971 150.341 50.6797 150.318 51.8575Z" fill="#ECE5E2" stroke="#282828" stroke-width="4"/>
<path d="M33.2678 103.807L8.73412 108.088C5.58365 108.638 4.6647 112.733 7.27633 114.584L58.8946 151.18C59.735 151.776 60.7898 151.982 61.7916 151.745L174.836 125.037C178.024 124.284 178.627 119.992 175.77 118.384L157.536 108.12C156.399 107.48 156.631 105.772 157.898 105.462L177.786 100.584C180.961 99.8049 181.535 95.5226 178.677 93.9298L168.484 88.2479C167.715 87.8196 166.818 87.6891 165.96 87.8802L147.889 91.9094" stroke="#282828" stroke-width="4"/>
<path d="M88.7375 90.2091L91.7281 88.8643C93.4138 88.1066 94.6076 86.5604 94.9094 84.7428L105.854 18.9286C106.246 16.5684 107.396 14.3986 109.132 12.745L110.851 11.1076C112.293 9.73291 114.301 9.11512 116.271 9.4402C118 9.72571 119.534 10.7117 120.508 12.1641L121.338 13.4016C122.72 15.4624 123.262 17.9698 122.856 20.4147L122.098 24.9723C122.022 25.4301 121.734 25.8255 121.32 26.0395C120.239 26.5998 118.979 25.6889 119.178 24.4904L119.677 21.4948C119.785 20.8437 119.674 20.1752 119.361 19.5933L117.829 16.7413C117.299 15.7554 116.306 15.1023 115.187 15.0048C113.479 14.8556 111.938 16.025 111.627 17.7052L98.5002 88.7549C97.6321 93.4535 95.4294 97.8045 92.1528 101.293L92.0603 101.392C90.613 102.933 88.9679 104.277 87.1674 105.388L85.9772 106.122C84.1392 107.257 82.0983 108.028 79.967 108.394L79.7634 108.429C76.2311 109.035 72.5977 108.459 69.4284 106.791C67.2004 105.619 65.277 103.946 63.8105 101.905L63.0038 100.782C62.1892 99.6479 61.5123 98.4218 60.9874 97.1288C59.5983 93.7075 59.3212 89.9378 60.195 86.3517L60.803 83.8557C60.9683 83.1779 61.8483 82.9915 62.2755 83.5448C64.5841 86.5352 67.8448 88.6549 71.522 89.5551L73.5957 90.0623C74.6704 90.3257 75.7631 90.5106 76.8644 90.6156L82.8327 91.1841C84.8527 91.3762 86.8879 91.0402 88.7375 90.2091Z" fill="#00CAA1"/>
<path d="M59.092 82.1216C62.1561 86.1149 66.4836 88.9447 71.364 90.1469L71.7556 90.243C72.8549 90.5141 73.972 90.7042 75.0983 90.8118L81.2024 91.3971C83.2676 91.5951 85.3493 91.2494 87.2413 90.3936L90.2997 89.0107C92.0236 88.2309 93.2444 86.6392 93.5536 84.7692M59.092 82.1216C61.6131 80.5285 64.5215 79.6584 67.5013 79.6046L72.598 79.512C75.8912 79.4532 79.1758 79.8657 82.3523 80.7372L84.4283 81.3075C86.94 81.9968 89.3938 82.8834 91.7667 83.9594L93.5536 84.7692M59.092 82.1216L58.0501 86.4247C57.1565 90.1153 57.4399 93.9938 58.8605 97.5144C59.3973 98.8442 60.0896 100.106 60.9227 101.273L61.7478 102.429C63.2476 104.529 65.2147 106.25 67.4933 107.457C70.7344 109.173 74.4507 109.765 78.0631 109.142L78.272 109.106C80.4517 108.729 82.5384 107.936 84.4183 106.768L85.6355 106.012C87.4767 104.869 89.1598 103.487 90.6397 101.901L90.7341 101.8C94.0853 98.2101 96.3379 93.732 97.226 88.8973L110.651 15.7883C110.969 14.0595 112.545 12.8561 114.293 13.0096C115.436 13.1101 116.452 13.7821 116.994 14.7966L118.561 17.7312C118.881 18.3299 118.994 19.0177 118.884 19.6878L118.374 22.7702C118.17 24.0035 119.458 24.9408 120.565 24.3642C120.987 24.1441 121.282 23.7372 121.36 23.2662L122.135 18.5764C122.551 16.0606 121.996 13.4805 120.583 11.3601L119.734 10.0866C118.738 8.59216 117.169 7.57759 115.401 7.28378C113.386 6.9493 111.333 7.58498 109.857 8.99952L108.099 10.6844C106.324 12.3859 105.148 14.6186 104.747 17.0473L93.5536 84.7692" stroke="#282828" stroke-width="4"/>
<path d="M167.574 95.0575C167.594 95.1316 167.609 95.5169 166.872 96.1397C166.185 96.7196 165.072 97.2815 163.681 97.6085C162.291 97.9348 161.024 97.9322 160.124 97.725C159.157 97.5026 158.975 97.1558 158.955 97.0823C158.936 97.0088 158.919 96.6236 159.657 96.0001C160.343 95.4202 161.458 94.8583 162.848 94.5319C164.238 94.2049 165.505 94.2083 166.405 94.4148C167.371 94.6378 167.554 94.984 167.574 95.0575Z" fill="white" stroke="#282828" stroke-width="4"/>
<ellipse cx="52.5" cy="21.4672" rx="1.5" ry="1.49702" fill="#B1E275"/>
<ellipse cx="17" cy="8.99205" rx="4" ry="3.99205" fill="#F69453" fill-opacity="0.5"/>
<ellipse cx="2.5" cy="2.49503" rx="2.5" ry="2.49503" transform="matrix(1 0 8.07065e-05 -1 0 133.744)" fill="#F69453"/>
<ellipse cx="1.49814" cy="1.49889" rx="1.49814" ry="1.49889" transform="matrix(-0.613452 -0.789732 0.793027 -0.609186 149 145.72)" fill="#EE693F"/>
<ellipse cx="3.99504" cy="3.99705" rx="3.99504" ry="3.99705" transform="matrix(-0.613452 -0.789732 0.793027 -0.609186 162 149.712)" fill="#F9C8A8"/>
</svg>
