<svg width="141" height="149" viewBox="0 0 141 149" fill="none" xmlns="http://www.w3.org/2000/svg">
<g clip-path="url(#clip0_346_784)">
<path d="M48.3137 33.4341H29.8967C28.6545 33.4341 27.6209 32.5591 27.5222 31.424L26.9392 24.7212C26.898 24.2473 27.0266 23.774 27.3054 23.3732L28.8375 21.1716C29.1604 20.7075 29.6626 20.3724 30.2435 20.2332L35.5238 18.9685C35.78 18.9071 36.0457 18.8853 36.3097 18.9041L46.0917 19.5983C46.6763 19.6398 47.2236 19.8775 47.6289 20.2657L50.0347 22.5707C50.4589 22.9771 50.6957 23.5179 50.6957 24.0805V31.2504C50.6957 32.4565 49.6293 33.4341 48.3137 33.4341Z" fill="#F26226"/>
<path d="M56.064 119.884C55.0875 120.175 36.9895 118.918 26.0263 118.103C24.5231 117.991 23.2976 116.987 23.027 115.654C22.7739 114.407 23.4206 113.152 24.6427 112.518L50.0668 99.3354C52.7323 97.9528 56.064 99.6809 56.064 102.445V103.323C55.6237 107.003 61.7873 107.581 61.7873 108.843C61.7873 110.42 57.3848 119.49 56.064 119.884Z" fill="#00CAA1"/>
<path d="M13.5643 63.3216L12.6794 79.0502C12.5128 82.0099 16.1236 83.8854 18.8504 82.2551L38.8008 70.3321C39.1128 70.1456 39.3944 69.9202 39.6373 69.6625L57.6608 50.5407C58.6609 49.4797 58.8986 47.9909 58.2716 46.7158L57.5567 45.2622L53.114 38.7761C52.3611 37.6769 51.0183 37.0267 49.5931 37.0711L39.2711 37.3928L28.2062 37.0702C26.7132 37.0266 25.3189 37.7446 24.5941 38.9299L16.8852 51.5367C16.717 51.8119 16.589 52.1058 16.5046 52.411L13.679 62.6255C13.616 62.8536 13.5775 63.0867 13.5643 63.3216Z" fill="#00CAA1"/>
<path d="M73.6683 54.5778L68.1543 56.4656C66.4587 57.0462 65.1505 55.039 66.5144 53.9494C66.6507 53.8405 66.7663 53.7115 66.8563 53.5678L73.3595 43.1773C73.5618 42.8541 73.6683 42.4881 73.6683 42.1156C73.6683 40.3708 71.5065 39.362 69.9634 40.3866L68.8916 41.0982L53.043 53.6125C52.8976 53.7273 52.7631 53.8498 52.6377 53.9829C49.8332 56.9581 44.574 62.7659 44.574 63.6963C44.574 64.5477 42.0249 68.0013 40.3477 70.1388C39.9879 70.5975 39.5112 70.9662 38.9616 71.2227L1.58398 88.6732" stroke="#282828" stroke-width="4" stroke-linecap="round"/>
<path d="M70.244 147.546L77.4192 116.152C77.5524 115.569 77.5271 114.964 77.3455 114.393L71.6498 96.4604C71.5808 96.243 71.5341 96.0198 71.5104 95.7945L70.244 83.7783L68.9928 71.1389C68.9595 70.8023 69.018 70.4634 69.163 70.1526C69.7199 68.9593 71.3359 68.5381 72.496 69.2839L73.6223 70.0078C74.2448 70.408 74.6998 70.9905 74.9121 71.6591L77.6221 80.1916L80.6604 90.1549L87.604 67.8363L94.747 51.2443C94.9026 50.8832 95.1242 50.5491 95.403 50.2565L96.5617 49.0408C97.3503 48.2133 98.7394 48.171 99.5868 48.9486C99.9728 49.3036 100.19 49.7844 100.19 50.2855V58.6909C100.19 58.9417 100.162 59.1919 100.105 59.4374L94.9821 81.7858L108.506 46.8559C108.741 46.2495 109.205 45.74 109.815 45.42C111.032 44.7816 112.572 45.0185 113.494 45.9859L113.848 46.3579C114.545 47.0886 114.854 48.0631 114.693 49.0215L113.21 57.8725L106.266 81.7858L120.909 55.2765C121.244 54.6687 121.925 54.2856 122.669 54.2856C123.865 54.2856 124.785 55.2504 124.624 56.3343L123.682 62.6798C123.645 62.9284 123.58 63.1728 123.488 63.4092L114.947 85.3724L127.434 68.5529C127.767 68.1046 128.321 67.8363 128.913 67.8363C130.012 67.8363 130.85 68.7342 130.679 69.7272L129.777 74.9715C129.727 75.2623 129.639 75.5458 129.515 75.8162L121.457 93.3433L106.561 118.747C106.365 119.08 106.229 119.438 106.154 119.809L103.228 134.394M14.2578 116.061L38.5619 102.909L51.582 97.7274" stroke="#282828" stroke-width="4" stroke-linecap="round"/>
<path d="M12.6738 82.8585V60.6611C12.6738 60.3641 12.7135 60.0683 12.7919 59.7802L15.5776 49.5509C15.6609 49.2451 15.7871 48.9506 15.9532 48.6747L24.7906 33.9939M24.7906 33.9939L38.2055 34.3912L50.755 33.9939M24.7906 33.9939V29.624L25.5567 23.6455C25.6221 23.1345 25.8051 22.6421 26.0935 22.2008L27.0988 20.6627C27.8145 19.5676 29.1041 18.8976 30.4956 18.8976H39.9365H45.3595C46.8169 18.8976 48.1566 19.6319 48.8472 20.8095L50.282 23.2557C50.5925 23.785 50.755 24.3768 50.755 24.9779V29.624V33.9939M50.755 33.9939L56.3806 42.3366L59.4098 47.5012" stroke="#282828" stroke-width="4" stroke-linecap="round"/>
<path d="M33.9653 17.0441V11.8645C33.9653 10.3095 32.5826 9.04901 30.8769 9.04901C29.2331 9.04901 27.8773 7.87518 27.7925 6.37863L27.73 5.27515C27.6123 3.19723 29.4288 1.45364 31.7112 1.45364H46.7397C48.1521 1.45364 49.459 2.13491 50.1754 3.24455L50.6997 4.05682C51.2728 4.94442 52.232 5.56869 53.3389 5.77445L59.2364 6.87071C59.7984 6.97518 60.2021 7.42585 60.2021 7.94874C60.2021 8.55644 59.6618 9.04901 58.9952 9.04901H44.8335C42.6319 9.04901 40.8471 10.6761 40.8471 12.6832V17.4439" stroke="#282828" stroke-width="4" stroke-linecap="round"/>
<path d="M18.2188 115.021L20.1287 118.093C20.8334 119.227 22.1466 119.927 23.5691 119.927H55.5411C56.976 119.927 58.3056 119.218 58.962 118.047C59.6678 116.788 60.3949 115.386 60.7421 114.433C60.9849 113.767 60.9643 113.014 61.0572 112.316L61.7862 106.844" stroke="#282828" stroke-width="4" stroke-linecap="round"/>
<path d="M94.5812 52.0588L93.7994 48.8852C92.5819 43.9427 87.0266 41.0235 81.7874 42.5727C79.3904 43.2813 77.4039 44.8474 76.2739 46.9188L75.6212 48.1153C74.3899 50.3724 74.2515 53.0037 75.2403 55.3599C75.6529 56.3431 76.2509 57.2516 77.0067 58.0433L81.8104 63.0752C81.8674 63.1354 81.8215 63.2299 81.7344 63.2299H81.1007C81.0919 63.2299 81.0832 63.2285 81.0753 63.2257L74.7533 61.1187C72.6291 60.4107 70.3405 60.2275 68.1155 60.5874C65.509 61.009 63.1069 62.1669 61.535 64.1276C60.1849 65.8116 58.8881 67.6819 58.8881 68.4165C58.8881 69.086 58.8881 70.2969 58.8881 71.5081C58.8881 73.3788 59.5932 75.191 60.8829 76.6355C62.1286 78.0311 63.8466 79.0014 65.7619 79.3917L66.7232 79.588L61.0645 82.3806C58.1707 83.7062 55.333 85.2645 53.4652 87.6939C52.9091 88.4169 52.4863 89.0946 52.3588 89.5615C51.9236 91.1578 51.4883 93.9505 51.4883 95.546M51.4883 95.546C51.4883 93.9505 51.4883 97.1422 51.4883 95.546ZM51.4883 95.546C51.4883 96.8234 55.1156 104.324 56.7117 105.122L59.1151 106.066C61.5153 107.009 64.1754 107.236 66.7232 106.717L71.5113 105.122V111.505V112.478C71.5113 113.849 72.3111 115.116 73.606 115.794C74.2301 116.121 74.9357 116.293 75.6538 116.293H77.1699M114.604 46.4732H124.371C128.008 46.4732 131.353 48.3089 133.084 51.2551C135.058 54.615 134.549 58.7517 131.811 61.6207L130.276 63.2282C130.275 63.2291 130.275 63.2306 130.276 63.2315L133.387 66.0829C137.246 69.6198 139.415 74.4272 139.415 79.4413V80.7581C139.415 81.8335 139.235 82.9015 138.879 83.9251C137.383 88.2338 133.035 91.1578 128.124 91.1578H124.18" stroke="#282828" stroke-width="4"/>
<path d="M94.2637 48.6976L95.9169 45.7094C97.6231 42.6238 99.9029 38.5219 103.674 38.5219C104.071 38.5219 106.311 38.796 108.623 39.1055C111.415 39.4793 113.773 41.1628 114.921 43.5281L115.291 44.2906C115.529 44.781 115.651 45.3117 115.651 45.8484" stroke="#282828" stroke-width="4"/>
</g>
<defs>
<clipPath id="clip0_346_784">
<rect width="141" height="149" fill="white"/>
</clipPath>
</defs>
</svg>
