<svg width="16" height="16" viewBox="0 0 16 16" fill="none" xmlns="http://www.w3.org/2000/svg">
<path d="M7.99935 10.5748C7.81046 10.5748 7.65224 10.5096 7.52468 10.379C7.39668 10.249 7.33268 10.0876 7.33268 9.89502V2.97807L6.73268 3.58988C6.61046 3.71451 6.45779 3.77683 6.27468 3.77683C6.09113 3.77683 5.93268 3.70885 5.79935 3.57289C5.67713 3.43693 5.61602 3.27536 5.61602 3.08819C5.61602 2.90147 5.67713 2.7458 5.79935 2.62117L7.53268 0.853693C7.58824 0.797043 7.65779 0.751723 7.74135 0.717733C7.82446 0.683743 7.91046 0.666748 7.99935 0.666748C8.08824 0.666748 8.17446 0.683743 8.25802 0.717733C8.34113 0.751723 8.41046 0.797043 8.46602 0.853693L10.1993 2.62117C10.3327 2.75713 10.3993 2.92142 10.3993 3.11403C10.3993 3.30663 10.3327 3.46525 10.1993 3.58988C10.066 3.71451 9.90779 3.77683 9.72468 3.77683C9.54113 3.77683 9.38824 3.71451 9.26602 3.58988L8.66602 2.97807V9.89502C8.66602 10.0876 8.60224 10.249 8.47468 10.379C8.34668 10.5096 8.18824 10.5748 7.99935 10.5748ZM3.99935 15.3334C3.63268 15.3334 3.3189 15.2004 3.05802 14.9344C2.79668 14.6679 2.66602 14.3477 2.66602 13.9738V6.49603C2.66602 6.12214 2.79668 5.80195 3.05802 5.53547C3.3189 5.26944 3.63268 5.13643 3.99935 5.13643H5.33268C5.52157 5.13643 5.68002 5.20146 5.80802 5.33153C5.93557 5.46205 5.99935 5.62362 5.99935 5.81623C5.99935 6.00884 5.93557 6.17018 5.80802 6.30024C5.68002 6.43076 5.52157 6.49603 5.33268 6.49603H3.99935V13.9738H11.9993V6.49603H10.666C10.4771 6.49603 10.3189 6.43076 10.1913 6.30024C10.0633 6.17018 9.99935 6.00884 9.99935 5.81623C9.99935 5.62362 10.0633 5.46205 10.1913 5.33153C10.3189 5.20146 10.4771 5.13643 10.666 5.13643H11.9993C12.366 5.13643 12.68 5.26944 12.9413 5.53547C13.2022 5.80195 13.3327 6.12214 13.3327 6.49603V13.9738C13.3327 14.3477 13.2022 14.6679 12.9413 14.9344C12.68 15.2004 12.366 15.3334 11.9993 15.3334H3.99935Z" fill="#EE693F"/>
</svg>
