<svg width="24" height="25" viewBox="0 0 24 25" fill="none" xmlns="http://www.w3.org/2000/svg">
<g clip-path="url(#clip0_346_212)">
<path fill-rule="evenodd" clip-rule="evenodd" d="M19.9283 4.13779C20.1742 4.03481 20.4434 3.99929 20.7078 4.03493C20.9722 4.07057 21.2221 4.17607 21.4316 4.34045C21.6411 4.50482 21.8025 4.72206 21.899 4.96955C21.9955 5.21705 22.0235 5.48575 21.9802 5.74769L19.7234 19.3685C19.5044 20.6824 18.0556 21.4358 16.8446 20.7814C15.8316 20.2339 14.327 19.3903 12.9737 18.5101C12.297 18.0695 10.2243 16.6586 10.479 15.6546C10.6979 14.7962 14.1807 11.5705 16.1709 9.65265C16.952 8.89918 16.5958 8.46453 15.6734 9.1576C13.3817 10.8784 9.70483 13.4952 8.48884 14.2319C7.41614 14.8814 6.8569 14.9923 6.1882 14.8814C4.96823 14.6794 3.83682 14.3665 2.91338 13.9853C1.66554 13.4705 1.72624 11.7635 2.91238 11.2665L19.9283 4.13779Z" fill="#EE693F"/>
</g>
<defs>
<clipPath id="clip0_346_212">
<rect width="24" height="24" fill="white" transform="translate(0 0.0214844)"/>
</clipPath>
</defs>
</svg>
