<svg width="258" height="86" viewBox="0 0 258 86" fill="none" xmlns="http://www.w3.org/2000/svg">
<path d="M253.59 30.4043C253.948 33.682 251.611 37.3637 245.829 41.2946C240.145 45.1591 231.597 48.9309 220.717 52.4576C198.981 59.5027 168.305 65.4553 133.596 69.3177C98.8881 73.1799 66.8344 74.208 43.2703 72.2015C31.4746 71.197 21.8988 69.4392 15.2015 66.9447C8.36339 64.3978 5.14395 61.327 4.79073 58.0903C4.43139 54.7975 6.86374 50.888 12.7861 46.5999C18.5982 42.3918 27.3118 38.1649 38.3453 34.1825C60.3896 26.2259 91.3712 19.3594 126.053 15.5C160.735 11.6407 192.454 11.53 215.685 14.4484C227.313 15.9091 236.729 18.1186 243.309 20.9478C250.014 23.8307 253.231 27.1116 253.59 30.4043Z" stroke="#B1E275" stroke-width="3"/>
<path d="M4.00488 57.932C10.0555 40.3405 61.486 6.90092 218.803 13.8747C276.749 21.4139 291.41 57.932 64.744 80.3141" stroke="#B1E275" stroke-width="3" stroke-linecap="round"/>
</svg>
