<svg width="24" height="25" viewBox="0 0 24 25" fill="none" xmlns="http://www.w3.org/2000/svg">
<path d="M2.00401 22.0215L3.35601 17.0535C2.46515 15.5263 1.99711 13.7895 2.00001 12.0215C2.00001 6.49848 6.47701 2.02148 12 2.02148C17.523 2.02148 22 6.49848 22 12.0215C22 17.5445 17.523 22.0215 12 22.0215C10.2328 22.0243 8.49667 21.5567 6.97001 20.6665L2.00401 22.0215ZM8.39101 7.32948C8.26188 7.3375 8.13569 7.37152 8.02001 7.42948C7.91153 7.49091 7.81251 7.56771 7.72601 7.65748C7.60601 7.77048 7.53801 7.86848 7.46501 7.96348C7.09542 8.44448 6.89662 9.0349 6.90001 9.64148C6.90201 10.1315 7.03001 10.6085 7.23001 11.0545C7.63901 11.9565 8.31201 12.9115 9.20101 13.7965C9.41501 14.0095 9.62401 14.2235 9.84901 14.4225C10.9524 15.3939 12.2673 16.0945 13.689 16.4685L14.258 16.5555C14.443 16.5655 14.628 16.5515 14.814 16.5425C15.1053 16.5275 15.3896 16.4486 15.647 16.3115C15.778 16.244 15.9058 16.1706 16.03 16.0915C16.03 16.0915 16.073 16.0635 16.155 16.0015C16.29 15.9015 16.373 15.8305 16.485 15.7135C16.568 15.6275 16.64 15.5265 16.695 15.4115C16.773 15.2485 16.851 14.9375 16.883 14.6785C16.907 14.4805 16.9 14.3725 16.897 14.3055C16.893 14.1985 16.804 14.0875 16.707 14.0405L16.125 13.7795C16.125 13.7795 15.255 13.4005 14.724 13.1585C14.668 13.1341 14.608 13.1202 14.547 13.1175C14.4786 13.1105 14.4095 13.1182 14.3443 13.1401C14.2791 13.162 14.2193 13.1976 14.169 13.2445V13.2425C14.164 13.2425 14.097 13.2995 13.374 14.1755C13.3325 14.2312 13.2754 14.2734 13.2098 14.2965C13.1443 14.3197 13.0733 14.3228 13.006 14.3055C12.9409 14.2881 12.877 14.266 12.815 14.2395C12.691 14.1875 12.648 14.1675 12.563 14.1305L12.558 14.1285C11.9859 13.8787 11.4562 13.5413 10.988 13.1285C10.862 13.0185 10.745 12.8985 10.625 12.7825C10.2316 12.4057 9.88873 11.9795 9.60501 11.5145L9.54601 11.4195C9.50364 11.3556 9.46937 11.2868 9.44401 11.2145C9.40601 11.0675 9.50501 10.9495 9.50501 10.9495C9.50501 10.9495 9.74801 10.6835 9.86101 10.5395C9.9551 10.4198 10.0429 10.2953 10.124 10.1665C10.242 9.97648 10.279 9.78148 10.217 9.63048C9.93701 8.94648 9.64701 8.26548 9.34901 7.58948C9.29001 7.45548 9.11501 7.35948 8.95601 7.34048C8.90201 7.33448 8.84801 7.32848 8.79401 7.32448C8.65972 7.31781 8.52515 7.32015 8.39101 7.32948Z" fill="#EE693F"/>
</svg>
